<svg width="168" height="280" viewBox="0 0 168 280" fill="none" xmlns="http://www.w3.org/2000/svg">
<path fill-rule="evenodd" clip-rule="evenodd" d="M-0.00924683 -10H167.88V181H-0.00924683V-10Z" fill="#4AF6CD"/>
<path d="M60.1797 145.36C60.1797 142.2 60.6397 139.42 61.5597 137.02C62.4797 134.58 63.8597 132.4 65.6997 130.48L71.5797 135.46C69.2997 138.34 68.1597 141.36 68.1597 144.52C68.1597 146.16 68.4797 147.42 69.1197 148.3C69.7197 149.14 70.5797 149.56 71.6997 149.56C72.4997 149.56 73.1597 149.34 73.6797 148.9C74.1997 148.46 74.6997 147.72 75.1797 146.68C75.6597 145.64 76.2597 144 76.9797 141.76C78.3397 137.48 80.0597 134.36 82.1397 132.4C84.1797 130.4 87.0197 129.4 90.6597 129.4C93.2997 129.4 95.6397 130.08 97.6797 131.44C99.6797 132.8 101.24 134.78 102.36 137.38C103.48 139.94 104.04 142.96 104.04 146.44C104.04 153.08 102.02 158.5 97.9797 162.7L91.9197 157.24C94.6397 153.92 95.9997 150.46 95.9997 146.86C95.9997 144.98 95.5997 143.52 94.7997 142.48C93.9597 141.44 92.8597 140.92 91.4997 140.92C90.5397 140.92 89.7597 141.12 89.1597 141.52C88.5197 141.92 87.9597 142.64 87.4797 143.68C86.9597 144.68 86.3997 146.16 85.7997 148.12C84.3197 152.84 82.5397 156.16 80.4597 158.08C78.3797 160 75.7597 160.96 72.5997 160.96C70.1197 160.96 67.9397 160.3 66.0597 158.98C64.1797 157.62 62.7397 155.76 61.7397 153.4C60.6997 151 60.1797 148.32 60.1797 145.36ZM88.9797 91.9553C91.8597 91.9553 94.4397 92.5953 96.7197 93.8753C98.9997 95.1153 100.8 96.9953 102.12 99.5153C103.4 102.035 104.04 105.115 104.04 108.755C104.04 114.275 102.7 118.455 100.02 121.295C97.2997 124.135 93.6197 125.555 88.9797 125.555H61.2597V114.455H88.6197C91.1397 114.455 92.9997 114.015 94.1997 113.135C95.3597 112.215 95.9397 110.755 95.9397 108.755C95.9397 106.755 95.3397 105.315 94.1397 104.435C92.9397 103.555 91.0997 103.115 88.6197 103.115H61.2597V91.9553H88.9797ZM87.5997 71.9477V75.0077H102.96V86.1077H61.2597V71.6477C61.2597 65.7677 62.3197 61.3877 64.4397 58.5077C66.5597 55.5877 69.8197 54.1277 74.2197 54.1277C76.8597 54.1277 79.0597 54.7477 80.8197 55.9877C82.5797 57.1877 84.1597 59.1277 85.5597 61.8077L102.96 51.4277V63.7877L87.5997 71.9477ZM80.0397 75.0077V71.2877C80.0397 67.4477 78.0997 65.5277 74.2197 65.5277C72.4197 65.5277 71.0997 66.0677 70.2597 67.1477C69.4197 68.1877 68.9997 69.7677 68.9997 71.8877V75.0077H80.0397ZM102.96 48.9006H61.2597V23.2806L69.1197 24.4206V37.8006H79.1397V26.0406H86.9997V37.8006H102.96V48.9006Z" fill="white"/>
<path d="M60.1797 257.92C60.1797 252.36 61.9397 247.58 65.4597 243.58L71.1597 249.04C70.0797 250.56 69.2997 251.94 68.8197 253.18C68.2997 254.38 68.0397 255.76 68.0397 257.32C68.0397 260.32 69.1997 262.68 71.5197 264.4C73.8397 266.08 77.3797 266.92 82.1397 266.92C85.6197 266.92 88.3797 266.64 90.4197 266.08C92.4197 265.52 93.8597 264.68 94.7397 263.56C95.6197 262.4 96.0597 260.92 96.0597 259.12C96.0597 257.32 95.6797 255.68 94.9197 254.2H86.3397V258.94L78.7197 260.02V243.46H99.4797C100.92 245.62 102.04 248.06 102.84 250.78C103.64 253.5 104.04 256.18 104.04 258.82C104.04 271.86 96.7197 278.38 82.0797 278.38C77.5197 278.38 73.5997 277.5 70.3197 275.74C66.9997 273.94 64.4797 271.5 62.7597 268.42C61.0397 265.34 60.1797 261.84 60.1797 257.92ZM60.1797 220.335C60.1797 214.295 62.0997 209.595 65.9397 206.235C69.7797 202.875 75.1597 201.195 82.0797 201.195C86.5997 201.195 90.5197 201.955 93.8397 203.475C97.1197 204.955 99.6397 207.135 101.4 210.015C103.16 212.895 104.04 216.335 104.04 220.335C104.04 226.375 102.12 231.075 98.2797 234.435C94.4397 237.755 89.0397 239.415 82.0797 239.415C77.5597 239.415 73.6597 238.675 70.3797 237.195C67.0997 235.675 64.5797 233.495 62.8197 230.655C61.0597 227.775 60.1797 224.335 60.1797 220.335ZM68.1597 220.335C68.1597 222.935 69.2397 224.855 71.3997 226.095C73.5597 227.295 77.1197 227.895 82.0797 227.895C87.0397 227.895 90.6197 227.275 92.8197 226.035C94.9797 224.795 96.0597 222.895 96.0597 220.335C96.0597 217.695 94.9797 215.775 92.8197 214.575C90.6597 213.375 87.0797 212.775 82.0797 212.775C77.1197 212.775 73.5597 213.375 71.3997 214.575C69.2397 215.775 68.1597 217.695 68.1597 220.335Z" fill="white"/>
<rect x="82.936" y="191" width="20" height="0.998681" transform="rotate(-90 82.936 191)" fill="white"/>
</svg>
