<svg width="22" height="24" viewBox="0 0 22 24" fill="none" xmlns="http://www.w3.org/2000/svg">
<path d="M11.1528 23.8879C11.5507 23.8485 11.9275 23.688 12.2301 23.4276L20.3641 16.451C20.7741 16.1225 21.0328 15.641 21.0813 15.1187C21.1297 14.5963 20.9647 14.077 20.6243 13.6773C20.2824 13.2791 19.7952 13.0354 19.2717 13.0036C18.7481 12.9718 18.2337 13.1535 17.8464 13.5077L10.9712 19.4065L4.09606 13.5077C3.70872 13.1535 3.19431 12.9718 2.67079 13.0036C2.14727 13.0354 1.66008 13.2791 1.31814 13.6773C0.977708 14.077 0.812786 14.5963 0.861202 15.1187C0.909619 15.641 1.16835 16.1225 1.57839 16.451L9.71239 23.4276C10.1103 23.7698 10.6308 23.9348 11.1528 23.8879Z" fill="white"/>
<path d="M11.1528 10.8879C11.5507 10.8485 11.9275 10.688 12.2301 10.4276L20.3641 3.45102C20.7741 3.12248 21.0328 2.64104 21.0813 2.11868C21.1297 1.59633 20.9647 1.07704 20.6243 0.677315C20.2824 0.279144 19.7952 0.0353896 19.2717 0.00356854C18.7481 -0.0282258 18.2337 0.153457 17.8464 0.507745L10.9712 6.40646L4.09606 0.507745C3.70872 0.153465 3.19431 -0.0282138 2.67079 0.00356854C2.14727 0.0353629 1.66008 0.279121 1.31814 0.677315C0.977708 1.077 0.812786 1.59633 0.861202 2.11868C0.909619 2.64104 1.16835 3.12246 1.57839 3.45102L9.71239 10.4276C10.1103 10.7698 10.6308 10.9348 11.1528 10.8879Z" fill="white"/>
</svg>
