<svg width="11" height="14" viewBox="0 0 11 14" fill="none" xmlns="http://www.w3.org/2000/svg">
<path fill-rule="evenodd" clip-rule="evenodd" d="M5.39313 0.2948C6.61757 0.2948 7.80638 0.708526 8.74372 1.45986V1.45983C9.96815 2.44068 10.6883 3.83532 10.7754 5.38588C10.8588 6.91674 10.2871 8.4145 9.20749 9.49486L5.62856 13.0293C5.48993 13.1668 5.24948 13.1656 5.11084 13.0281L1.58248 9.4974C0.500386 8.41459 -0.0725647 6.91561 0.0120889 5.38591C0.0979579 3.83542 0.819365 2.44077 2.04254 1.45986C2.97865 0.708526 4.16873 0.2948 5.39313 0.2948ZM2.98847 5.68443C2.98847 7.01154 4.06686 8.09067 5.39312 8.09067C6.71934 8.09067 7.79899 7.01157 7.79776 5.68443C7.79776 4.35733 6.71937 3.2782 5.39312 3.2782C4.06689 3.2782 2.98847 4.3573 2.98847 5.68443Z" fill="white"/>
<path d="M5.39314 4.5116C4.74657 4.5116 4.22147 5.03705 4.22147 5.68404C4.22147 6.33103 4.74657 6.85648 5.39314 6.85648C6.0397 6.85648 6.56481 6.33103 6.56481 5.68404C6.56481 5.03705 6.0397 4.5116 5.39314 4.5116Z" fill="white"/>
</svg>
