<svg width="25" height="52" viewBox="0 0 25 52" fill="none" xmlns="http://www.w3.org/2000/svg">
<g filter="url(#filter0_d)">
<path fill-rule="evenodd" clip-rule="evenodd" d="M5.1622 20.3518C5.1622 7.34408 10.5935 0.326237 12.8147 0.325684C15.0361 0.326237 20.4671 7.34364 20.4671 20.3518C20.4671 33.4948 15.7156 42.4048 15.5139 42.7777L15.3173 43.1403H10.312L10.1155 42.7777C9.91377 42.4047 5.1622 33.4948 5.1622 20.3518ZM12.1192 2.15915V2.15907L12.1194 2.15903L12.1192 2.15915ZM12.1192 2.15915V23.805H13.5106V2.15907C15.2916 3.737 19.0761 9.47749 19.0761 20.3519C19.0761 23.9808 18.6917 27.292 18.1438 30.1838C17.3386 29.0461 15.8585 27.4975 13.1612 25.9679C6.60285 22.2474 6.68255 17.1388 6.68789 16.9231H6.68615C7.36966 8.25522 10.5366 3.56295 12.1192 2.15915ZM6.68879 23.9726C6.62966 23.1543 6.59487 22.3153 6.57574 21.4608C7.57061 23.2958 9.33586 25.3898 12.4696 27.1679C16.9229 29.6947 17.6853 32.194 17.7045 32.2569L17.7047 32.2575C17.3638 33.7354 16.9899 35.0768 16.616 36.2576C16.0299 35.227 14.9968 33.9598 13.1723 32.8808C7.6781 29.6334 6.81034 24.922 6.68879 23.9726ZM13.5105 41.7596H14.4723L14.4721 41.7593C14.7487 41.193 15.3087 39.9811 15.9452 38.2374C15.8096 37.6625 15.1591 35.6616 12.4599 34.0664C10.006 32.6146 8.39199 30.8865 7.32587 29.2671C8.46505 35.8917 10.5313 40.4786 11.1574 41.7596H12.1192V36.9254H13.5105V41.7596Z" fill="white"/>
<path d="M12.8147 0.325684L12.8147 0.0756836L12.8146 0.0756836L12.8147 0.325684ZM15.5139 42.7777L15.7337 42.8969L15.7338 42.8967L15.5139 42.7777ZM15.3173 43.1403V43.3903H15.4662L15.5371 43.2594L15.3173 43.1403ZM10.312 43.1403L10.0922 43.2594L10.1631 43.3903H10.312V43.1403ZM10.1155 42.7777L9.89555 42.8966L9.89568 42.8969L10.1155 42.7777ZM12.1192 2.15907L12.0391 1.92227L11.8692 1.97977V2.15907H12.1192ZM12.1194 2.15903L12.2853 2.34607L12.0392 1.92223L12.1194 2.15903ZM12.1192 23.805H11.8692V24.055H12.1192V23.805ZM13.5106 23.805V24.055H13.7606V23.805H13.5106ZM13.5106 2.15907L13.6764 1.97195L13.2606 1.60356V2.15907H13.5106ZM18.1438 30.1838L17.9398 30.3282L18.2799 30.8087L18.3895 30.2303L18.1438 30.1838ZM13.1612 25.9679L13.0378 26.1853L13.0379 26.1853L13.1612 25.9679ZM6.68789 16.9231L6.93782 16.9293L6.94416 16.6731H6.68789V16.9231ZM6.68615 16.9231L6.43693 16.9035L6.41566 17.1731H6.68615V16.9231ZM6.57574 21.4608L6.79552 21.3416L6.3258 21.4664L6.57574 21.4608ZM6.68879 23.9726L6.43906 23.9907L6.44081 24.0044L6.68879 23.9726ZM12.4696 27.1679L12.3462 27.3854L12.3462 27.3854L12.4696 27.1679ZM17.7045 32.2569L17.4654 32.3299L17.4654 32.3299L17.7045 32.2569ZM17.7047 32.2575L17.9483 32.3137L17.9633 32.2485L17.9438 32.1846L17.7047 32.2575ZM16.616 36.2576L16.3986 36.3812L16.6815 36.8787L16.8543 36.3331L16.616 36.2576ZM13.1723 32.8808L13.2996 32.6656L13.2995 32.6656L13.1723 32.8808ZM14.4723 41.7596V42.0096H14.9064L14.6886 41.6341L14.4723 41.7596ZM13.5105 41.7596H13.2605V42.0096H13.5105V41.7596ZM14.4721 41.7593L14.2475 41.6496L14.189 41.7694L14.2559 41.8848L14.4721 41.7593ZM15.9452 38.2374L16.1801 38.3231L16.2058 38.2528L16.1886 38.18L15.9452 38.2374ZM12.4599 34.0664L12.3326 34.2816L12.3327 34.2816L12.4599 34.0664ZM7.32587 29.2671L7.53468 29.1297L7.07948 29.3095L7.32587 29.2671ZM11.1574 41.7596L10.9327 41.8694L11.0013 42.0096H11.1574V41.7596ZM12.1192 41.7596V42.0096H12.3692V41.7596H12.1192ZM12.1192 36.9254V36.6754H11.8692V36.9254H12.1192ZM13.5105 36.9254H13.7605V36.6754H13.5105V36.9254ZM12.8146 0.0756836C12.4746 0.0757683 12.1015 0.208522 11.7192 0.438631C11.3341 0.670449 10.9226 1.01125 10.501 1.45323C9.65759 2.33744 8.7567 3.64435 7.93046 5.35218C6.27711 8.76963 4.9122 13.8137 4.9122 20.3518H5.4122C5.4122 13.8821 6.76296 8.91346 8.38055 5.56993C9.18978 3.89727 10.0632 2.63663 10.8628 1.79834C11.2628 1.37908 11.64 1.0699 11.9771 0.867009C12.317 0.662412 12.5995 0.575737 12.8147 0.575684L12.8146 0.0756836ZM20.7171 20.3518C20.7171 13.8135 19.3523 8.76941 17.699 5.35201C16.8728 3.64421 15.9719 2.33734 15.1284 1.45316C14.7068 1.0112 14.2953 0.670413 13.9102 0.438607C13.5279 0.208507 13.1548 0.0757683 12.8147 0.0756836L12.8146 0.575684C13.0299 0.575737 13.3125 0.662413 13.6524 0.866997C13.9894 1.06987 14.3667 1.37904 14.7666 1.79829C15.5663 2.63653 16.4397 3.89713 17.2489 5.56976C18.8664 8.91324 20.2171 13.8819 20.2171 20.3518H20.7171ZM15.7338 42.8967C15.9458 42.5047 20.7171 33.5525 20.7171 20.3518H20.2171C20.2171 33.4371 15.4854 42.3049 15.294 42.6588L15.7338 42.8967ZM15.5371 43.2594L15.7337 42.8969L15.2941 42.6586L15.0976 43.0211L15.5371 43.2594ZM10.312 43.3903H15.3173V42.8903H10.312V43.3903ZM9.89568 42.8969L10.0922 43.2594L10.5318 43.0211L10.3352 42.6586L9.89568 42.8969ZM4.9122 20.3518C4.9122 33.5525 9.68358 42.5046 9.89555 42.8966L10.3354 42.6588C10.144 42.3048 5.4122 33.4371 5.4122 20.3518H4.9122ZM11.8692 2.15907V2.15915H12.3692V2.15907H11.8692ZM12.0392 1.92223L12.0391 1.92227L12.1994 2.39588L12.1995 2.39583L12.0392 1.92223ZM12.2851 2.34619L12.2853 2.34607L11.9535 1.97199L11.9534 1.97211L12.2851 2.34619ZM12.3692 23.805V2.15915H11.8692V23.805H12.3692ZM13.5106 23.555H12.1192V24.055H13.5106V23.555ZM13.2606 2.15907V23.805H13.7606V2.15907H13.2606ZM19.3261 20.3519C19.3261 9.42541 15.5239 3.60887 13.6764 1.97195L13.3448 2.34619C15.0592 3.86514 18.8261 9.52958 18.8261 20.3519H19.3261ZM18.3895 30.2303C18.9398 27.3253 19.3261 23.9984 19.3261 20.3519H18.8261C18.8261 23.9632 18.4436 27.2587 17.8982 30.1372L18.3895 30.2303ZM13.0379 26.1853C15.7054 27.698 17.1571 29.2224 17.9398 30.3282L18.3479 30.0393C17.5201 28.8697 16.0117 27.2969 13.2845 25.7504L13.0379 26.1853ZM6.43797 16.917C6.43128 17.187 6.371 22.4033 13.0378 26.1853L13.2845 25.7504C6.83471 22.0915 6.93382 17.0907 6.93782 16.9293L6.43797 16.917ZM6.68615 17.1731H6.68789V16.6731H6.68615V17.1731ZM11.9534 1.97212C10.3107 3.42913 7.12415 8.18842 6.43693 16.9035L6.93538 16.9428C7.61517 8.32203 10.7624 3.69678 12.2851 2.34618L11.9534 1.97212ZM6.3258 21.4664C6.345 22.3239 6.37994 23.1672 6.43944 23.9907L6.93814 23.9546C6.87938 23.1414 6.84474 22.3067 6.82568 21.4552L6.3258 21.4664ZM12.593 26.9505C9.49979 25.1954 7.76801 23.1354 6.79552 21.3416L6.35596 21.5799C7.37321 23.4563 9.17193 25.5843 12.3462 27.3854L12.593 26.9505ZM17.9436 32.184C17.9065 32.0622 17.104 29.51 12.593 26.9505L12.3462 27.3854C16.7419 29.8794 17.4642 32.3259 17.4654 32.3299L17.9436 32.184ZM17.9438 32.1846L17.9436 32.184L17.4654 32.3299L17.4656 32.3305L17.9438 32.1846ZM16.8543 36.3331C17.2302 35.1461 17.6059 33.7982 17.9483 32.3137L17.4611 32.2013C17.1218 33.6725 16.7496 35.0074 16.3776 36.1822L16.8543 36.3331ZM13.0451 33.096C14.8292 34.1511 15.8324 35.3854 16.3986 36.3812L16.8333 36.134C16.2273 35.0685 15.1644 33.7685 13.2996 32.6656L13.0451 33.096ZM6.44081 24.0044C6.56769 24.9953 7.45915 29.7944 13.0451 33.096L13.2995 32.6656C7.89705 29.4724 7.05299 24.8486 6.93676 23.9409L6.44081 24.0044ZM14.4723 41.5096H13.5105V42.0096H14.4723V41.5096ZM14.2559 41.8848L14.2561 41.8851L14.6886 41.6341L14.6884 41.6338L14.2559 41.8848ZM15.7104 38.1517C15.0772 39.8861 14.5207 41.09 14.2475 41.6496L14.6968 41.869C14.9766 41.296 15.5402 40.076 16.1801 38.3231L15.7104 38.1517ZM12.3327 34.2816C14.9604 35.8345 15.578 37.7698 15.7019 38.2948L16.1886 38.18C16.0411 37.5552 15.3579 35.4887 12.5871 33.8512L12.3327 34.2816ZM7.11706 29.4046C8.20267 31.0536 9.84381 32.8092 12.3326 34.2816L12.5872 33.8512C10.1681 32.4201 8.5813 30.7194 7.53468 29.1297L7.11706 29.4046ZM11.382 41.6498C10.7631 40.3837 8.70635 35.8197 7.57225 29.2248L7.07948 29.3095C8.22375 35.9636 10.2994 40.5736 10.9327 41.8694L11.382 41.6498ZM12.1192 41.5096H11.1574V42.0096H12.1192V41.5096ZM11.8692 36.9254V41.7596H12.3692V36.9254H11.8692ZM13.5105 36.6754H12.1192V37.1754H13.5105V36.6754ZM13.7605 41.7596V36.9254H13.2605V41.7596H13.7605Z" fill="black"/>
</g>
<defs>
<filter id="filter0_d" x="0.912201" y="0.0756836" width="23.8049" height="51.3146" filterUnits="userSpaceOnUse" color-interpolation-filters="sRGB">
<feFlood flood-opacity="0" result="BackgroundImageFix"/>
<feColorMatrix in="SourceAlpha" type="matrix" values="0 0 0 0 0 0 0 0 0 0 0 0 0 0 0 0 0 0 127 0"/>
<feOffset dy="4"/>
<feGaussianBlur stdDeviation="2"/>
<feColorMatrix type="matrix" values="0 0 0 0 0 0 0 0 0 0 0 0 0 0 0 0 0 0 0.25 0"/>
<feBlend mode="normal" in2="BackgroundImageFix" result="effect1_dropShadow"/>
<feBlend mode="normal" in="SourceGraphic" in2="effect1_dropShadow" result="shape"/>
</filter>
</defs>
</svg>
