<svg width="25" height="52" viewBox="0 0 25 52" fill="none" xmlns="http://www.w3.org/2000/svg">
<g filter="url(#filter0_d)">
<path fill-rule="evenodd" clip-rule="evenodd" d="M4.93997 20.5831C4.93997 7.50231 10.3581 0.445014 12.5738 0.444458C14.7898 0.445014 20.2076 7.50186 20.2076 20.5831C20.2076 33.8 15.4677 42.7601 15.2664 43.1351L15.0704 43.4997H10.0772L9.88116 43.1351C9.67995 42.76 4.93997 33.8 4.93997 20.5831ZM11.8801 2.2882V2.28813L11.8802 2.28809L11.8801 2.2882ZM11.8801 2.2882V24.0557H13.268V2.28813C15.0446 3.87493 18.8199 9.64769 18.8199 20.5832C18.8199 24.2325 18.4365 27.5624 17.89 30.4704C17.0867 29.3263 15.6102 27.769 12.9195 26.2308C6.37711 22.4894 6.45662 17.3521 6.46195 17.1352H6.46021C7.14205 8.41855 10.3012 3.6999 11.8801 2.2882ZM6.46283 24.2243C6.40385 23.4014 6.36915 22.5577 6.35006 21.6983C7.3425 23.5437 9.10345 25.6495 12.2296 27.4376C16.672 29.9785 17.4326 32.4919 17.4517 32.5552L17.4519 32.5558C17.1118 34.0419 16.7388 35.3908 16.3658 36.5784C15.7811 35.5419 14.7506 34.2676 12.9306 33.1825C7.44974 29.9169 6.58409 25.179 6.46283 24.2243ZM13.2679 42.1113H14.2274L14.2272 42.1109C14.5031 41.5415 15.0617 40.3227 15.6967 38.5693C15.5614 37.9911 14.9125 35.979 12.2199 34.3748C9.77194 32.9149 8.16189 31.1771 7.09837 29.5486C8.23478 36.2104 10.2959 40.8231 10.9205 42.1113H11.88V37.2499H13.2679V42.1113Z" fill="white"/>
<path d="M12.5738 0.444458L12.5738 0.319458L12.5738 0.319458L12.5738 0.444458ZM15.2664 43.1351L15.3765 43.1943L15.3765 43.1942L15.2664 43.1351ZM15.0704 43.4997V43.6247H15.1451L15.1804 43.5589L15.0704 43.4997ZM10.0772 43.4997L9.96712 43.5589L10.0025 43.6247H10.0772V43.4997ZM9.88116 43.1351L9.771 43.1942L9.77106 43.1943L9.88116 43.1351ZM11.8801 2.28813L11.8397 2.16984L11.7551 2.19874V2.28813H11.8801ZM11.8802 2.28809L11.9635 2.38129L11.8398 2.1698L11.8802 2.28809ZM11.8801 24.0557H11.7551V24.1807H11.8801V24.0557ZM13.268 24.0557V24.1807H13.393V24.0557H13.268ZM13.268 2.28813L13.3513 2.1949L13.143 2.00889V2.28813H13.268ZM17.89 30.4704L17.7877 30.5422L17.958 30.7848L18.0128 30.4934L17.89 30.4704ZM12.9195 26.2308L12.8574 26.3393L12.8574 26.3393L12.9195 26.2308ZM6.46195 17.1352L6.58691 17.1383L6.59005 17.0102H6.46195V17.1352ZM6.46021 17.1352L6.33559 17.1254L6.32505 17.2602H6.46021V17.1352ZM6.35006 21.6983L6.46015 21.6391L6.22509 21.7011L6.35006 21.6983ZM6.46283 24.2243L6.33797 24.2333L6.33883 24.2401L6.46283 24.2243ZM12.2296 27.4376L12.1675 27.5461L12.2296 27.4376ZM17.4517 32.5552L17.5714 32.519L17.5714 32.519L17.4517 32.5552ZM17.4519 32.5558L17.5737 32.5837L17.5811 32.5513L17.5715 32.5196L17.4519 32.5558ZM16.3658 36.5784L16.2569 36.6398L16.3986 36.891L16.4851 36.6158L16.3658 36.5784ZM12.9306 33.1825L12.9946 33.0752L12.9945 33.0751L12.9306 33.1825ZM14.2274 42.1113V42.2363H14.4426L14.336 42.0493L14.2274 42.1113ZM13.2679 42.1113H13.1429V42.2363H13.2679V42.1113ZM14.2272 42.1109L14.1147 42.0564L14.086 42.1157L14.1186 42.1728L14.2272 42.1109ZM15.6967 38.5693L15.8143 38.6118L15.8269 38.5769L15.8184 38.5408L15.6967 38.5693ZM12.2199 34.3748L12.1559 34.4822L12.1559 34.4822L12.2199 34.3748ZM7.09837 29.5486L7.20303 29.4802L6.97515 29.5696L7.09837 29.5486ZM10.9205 42.1113L10.808 42.1658L10.8422 42.2363H10.9205V42.1113ZM11.88 42.1113V42.2363H12.005V42.1113H11.88ZM11.88 37.2499V37.1249H11.755V37.2499H11.88ZM13.2679 37.2499H13.3929V37.1249H13.2679V37.2499ZM12.5738 0.319458C12.2653 0.319535 11.9156 0.441571 11.5448 0.666569C11.1725 0.892442 10.7706 1.22722 10.3554 1.66595C9.52502 2.54355 8.63323 3.84611 7.81329 5.55461C6.17297 8.97251 4.81497 14.0258 4.81497 20.5831H5.06497C5.06497 14.0597 6.41602 9.04387 8.03867 5.66278C8.85022 3.97178 9.7284 2.69236 10.537 1.83778C10.9414 1.41043 11.3263 1.09157 11.6745 0.880297C12.0241 0.668146 12.3283 0.56952 12.5738 0.569458L12.5738 0.319458ZM20.3326 20.5831C20.3326 14.0255 18.9747 8.97229 17.3344 5.55444C16.5145 3.84597 15.6227 2.54346 14.7922 1.66589C14.3771 1.22717 13.9751 0.892409 13.6029 0.666548C13.2321 0.44156 12.8823 0.319535 12.5738 0.319458L12.5738 0.569458C12.8193 0.56952 13.1236 0.668143 13.4732 0.880282C13.8214 1.09155 14.2063 1.41039 14.6107 1.83772C15.4193 2.69226 16.2975 3.97164 17.109 5.66261C18.7316 9.04365 20.0826 14.0594 20.0826 20.5831H20.3326ZM15.3765 43.1942C15.5829 42.8097 20.3326 33.8286 20.3326 20.5831H20.0826C20.0826 33.7714 15.3524 42.7105 15.1563 43.076L15.3765 43.1942ZM15.1804 43.5589L15.3765 43.1943L15.1563 43.0759L14.9603 43.4405L15.1804 43.5589ZM10.0772 43.6247H15.0704V43.3747H10.0772V43.6247ZM9.77106 43.1943L9.96712 43.5589L10.1873 43.4405L9.99125 43.0759L9.77106 43.1943ZM4.81497 20.5831C4.81497 33.8286 9.5647 42.8096 9.771 43.1942L9.99131 43.076C9.7952 42.7104 5.06497 33.7714 5.06497 20.5831H4.81497ZM11.7551 2.28813V2.2882H12.0051V2.28813H11.7551ZM11.8398 2.1698L11.8397 2.16984L11.9205 2.40642L11.9206 2.40638L11.8398 2.1698ZM11.9634 2.3814L11.9635 2.38129L11.7969 2.19489L11.7968 2.195L11.9634 2.3814ZM12.0051 24.0557V2.2882H11.7551V24.0557H12.0051ZM13.268 23.9307H11.8801V24.1807H13.268V23.9307ZM13.143 2.28813V24.0557H13.393V2.28813H13.143ZM18.9449 20.5832C18.9449 9.62196 15.161 3.81128 13.3513 2.1949L13.1848 2.38136C14.9282 3.93858 18.6949 9.67341 18.6949 20.5832H18.9449ZM18.0128 30.4934C18.5606 27.5789 18.9449 24.2413 18.9449 20.5832H18.6949C18.6949 24.2238 18.3124 27.5458 17.7671 30.4473L18.0128 30.4934ZM12.8574 26.3393C15.5332 27.8689 16.9956 29.414 17.7877 30.5422L17.9923 30.3985C17.1778 29.2385 15.6872 27.669 12.9815 26.1222L12.8574 26.3393ZM6.33698 17.1321C6.331 17.3757 6.26088 22.5669 12.8574 26.3393L12.9815 26.1222C6.49334 22.4119 6.58223 17.3284 6.58691 17.1383L6.33698 17.1321ZM6.46021 17.2602H6.46195V17.0102H6.46021V17.2602ZM11.7967 2.19502C10.1881 3.63341 7.01926 8.3855 6.33559 17.1254L6.58483 17.1449C7.26485 8.4516 10.4144 3.76639 11.9634 2.38138L11.7967 2.19502ZM6.22509 21.7011C6.24421 22.562 6.27899 23.4078 6.33815 24.2332L6.58751 24.2154C6.52871 23.395 6.49408 22.5534 6.47503 21.6955L6.22509 21.7011ZM12.2916 27.329C9.18584 25.5526 7.44152 23.4639 6.46015 21.6391L6.23997 21.7575C7.24348 23.6235 9.02106 25.7464 12.1675 27.5461L12.2916 27.329ZM17.5714 32.519C17.5434 32.4265 16.763 29.8866 12.2916 27.329L12.1675 27.5461C16.5811 30.0705 17.3218 32.5574 17.3321 32.5914L17.5714 32.519ZM17.5715 32.5196L17.5714 32.519L17.3321 32.5914L17.3322 32.592L17.5715 32.5196ZM16.4851 36.6158C16.859 35.4252 17.2329 34.0731 17.5737 32.5837L17.33 32.5279C16.9907 34.0107 16.6186 35.3564 16.2466 36.5409L16.4851 36.6158ZM12.8666 33.2899C14.6663 34.3629 15.6821 35.6207 16.2569 36.6398L16.4747 36.5169C15.8802 35.4631 14.8348 34.1723 12.9946 33.0752L12.8666 33.2899ZM6.33883 24.2401C6.46268 25.2152 7.33994 29.997 12.8666 33.2899L12.9945 33.0751C7.55953 29.8368 6.70549 25.1428 6.58684 24.2086L6.33883 24.2401ZM14.2274 41.9863H13.2679V42.2363H14.2274V41.9863ZM14.1186 42.1728L14.1188 42.1732L14.336 42.0493L14.3358 42.049L14.1186 42.1728ZM15.5792 38.5267C14.9459 40.2756 14.389 41.4903 14.1147 42.0564L14.3397 42.1654C14.6172 41.5926 15.1776 40.3699 15.8143 38.6118L15.5792 38.5267ZM12.1559 34.4822C14.8128 36.065 15.4455 38.0443 15.575 38.5977L15.8184 38.5408C15.6773 37.9379 15.0123 35.8929 12.2839 34.2674L12.1559 34.4822ZM6.99371 29.6169C8.06689 31.2602 9.69045 33.0118 12.1559 34.4822L12.2839 34.2674C9.85343 32.818 8.25689 31.0939 7.20303 29.4802L6.99371 29.6169ZM11.033 42.0567C10.412 40.7759 8.35549 36.1747 7.22159 29.5276L6.97515 29.5696C8.11406 36.2461 10.1799 40.8702 10.808 42.1658L11.033 42.0567ZM11.88 41.9863H10.9205V42.2363H11.88V41.9863ZM11.755 37.2499V42.1113H12.005V37.2499H11.755ZM13.2679 37.1249H11.88V37.3749H13.2679V37.1249ZM13.3929 42.1113V37.2499H13.1429V42.1113H13.3929Z" fill="black"/>
</g>
<defs>
<filter id="filter0_d" x="0.814972" y="0.319458" width="23.5176" height="51.3052" filterUnits="userSpaceOnUse" color-interpolation-filters="sRGB">
<feFlood flood-opacity="0" result="BackgroundImageFix"/>
<feColorMatrix in="SourceAlpha" type="matrix" values="0 0 0 0 0 0 0 0 0 0 0 0 0 0 0 0 0 0 127 0"/>
<feOffset dy="4"/>
<feGaussianBlur stdDeviation="2"/>
<feColorMatrix type="matrix" values="0 0 0 0 0 0 0 0 0 0 0 0 0 0 0 0 0 0 0.25 0"/>
<feBlend mode="normal" in2="BackgroundImageFix" result="effect1_dropShadow"/>
<feBlend mode="normal" in="SourceGraphic" in2="effect1_dropShadow" result="shape"/>
</filter>
</defs>
</svg>
