<svg width="61" height="48" viewBox="0 0 61 48" fill="none" xmlns="http://www.w3.org/2000/svg">
<path fill-rule="evenodd" clip-rule="evenodd" d="M59.4714 43.9442C59.4866 43.9181 59.4992 43.8896 59.5093 43.8612C59.5181 43.8414 59.5244 43.8204 59.5309 43.7991C59.5337 43.7898 59.5366 43.7804 59.5396 43.771L59.5397 43.7708C59.5472 43.7424 59.5548 43.714 59.5599 43.6855C59.5672 43.6534 59.5698 43.619 59.5722 43.5867L59.5725 43.5835C59.575 43.5645 59.5775 43.5479 59.5775 43.5289C59.5775 43.5242 59.5769 43.5195 59.5763 43.5147L59.5763 43.5147C59.5757 43.5099 59.575 43.5052 59.575 43.5004C59.575 43.4672 59.57 43.434 59.5649 43.4007L59.5498 43.3082C59.5488 43.3048 59.5483 43.301 59.5478 43.2972C59.5476 43.2957 59.5474 43.2942 59.5472 43.2928C59.5466 43.2874 59.546 43.2821 59.5447 43.2773C59.4739 43.0329 57.6495 37.4439 42.7358 36.6228C48.4391 14.6349 37.5757 2.26032 37.0805 1.71474C36.8884 1.50115 36.6079 1.38011 36.3098 1.38011L36.1607 1.37537C36.0874 1.37537 36.0166 1.38249 35.9484 1.39673C35.9425 1.39831 35.9366 1.40015 35.9307 1.402C35.9189 1.40569 35.9071 1.40938 35.8953 1.41096C35.8448 1.42283 35.7968 1.43707 35.7488 1.45606C35.726 1.46555 35.7058 1.47742 35.6856 1.48928L35.6639 1.50068C35.6315 1.51766 35.6004 1.53392 35.5694 1.55336C35.5466 1.5676 35.5264 1.58421 35.5062 1.6032C35.4734 1.6293 35.443 1.65541 35.4127 1.68626C35.4083 1.69179 35.403 1.69571 35.3974 1.6999C35.3933 1.7029 35.3891 1.70603 35.3849 1.71C34.8896 2.25821 23.973 14.6964 29.7801 36.7912C24.4231 37.2991 21.7088 38.443 19.849 39.5988C19.7985 39.0957 19.6595 38.6898 19.3765 38.3766C19.0934 38.0609 18.6917 37.8806 18.2469 37.8663C15.4926 37.7856 12.8317 41.1058 11.3154 43.3913C10.9288 41.6588 10.7317 39.4873 11.5833 38.2627C12.0053 37.6575 12.68 37.3324 13.6478 37.2731C16.2455 37.1141 17.1956 36.16 17.5367 35.3887C17.9284 34.5011 17.6808 33.4877 16.8545 32.6072C15.6617 31.3328 13.2232 30.3645 10.4563 31.067C6.74166 32.0092 3.44133 36.2739 2.39789 39.8528C1.59179 42.6153 2.01885 44.979 3.60325 46.5049C3.99493 46.8822 4.63168 46.8893 5.03347 46.5238C5.43273 46.1584 5.44283 45.558 5.05369 45.1806C3.61835 43.797 3.99744 41.5614 4.3487 40.3534C5.35191 36.917 8.3286 33.5732 10.9846 32.8988C12.8999 32.4099 14.5829 33.0554 15.336 33.8599C15.619 34.1613 15.7479 34.477 15.667 34.6621C15.5457 34.9397 14.9089 35.291 13.5166 35.3764C11.9145 35.4737 10.6611 36.1121 9.88789 37.2228C7.82338 40.1941 9.80955 45.5645 10.042 46.1678C10.1785 46.5238 10.5297 46.7683 10.9315 46.7896C10.9517 46.792 10.9719 46.792 10.9922 46.792C11.3712 46.792 11.7224 46.5926 11.8943 46.2698C13.284 43.6854 15.9626 40.1324 17.8502 39.7861C17.9024 40.3326 17.7442 41.4562 17.6404 42.1929L17.6354 42.2281C17.3448 44.2644 17.2033 45.5507 17.9083 46.3053C18.1989 46.6186 18.6108 46.7918 19.0632 46.7918C20.4909 46.7918 21.201 45.8995 21.7165 45.2492C22.2042 44.6346 22.3887 44.4684 22.75 44.4684C23.1139 44.4684 23.2984 44.6345 23.7836 45.2468L23.7872 45.2514C24.3049 45.9012 25.0125 46.7894 26.4369 46.7894C27.8646 46.7894 28.5747 45.897 29.0902 45.2468C29.5779 44.6321 29.7624 44.466 30.1237 44.466C30.4876 44.466 30.6721 44.6321 31.1573 45.2444L31.1609 45.2489C31.6786 45.8988 32.3862 46.787 33.8106 46.787C35.2408 46.787 35.9484 45.8946 36.4639 45.2444C36.9516 44.6321 37.1336 44.466 37.4974 44.466C37.8613 44.466 38.0458 44.6321 38.531 45.2444L38.5346 45.2489C39.0523 45.8988 39.7599 46.787 41.1868 46.787C42.6145 46.787 43.3246 45.8946 43.8401 45.2444C44.3278 44.6297 44.5123 44.4635 44.8737 44.4635C45.2375 44.4635 45.422 44.6297 45.9072 45.2419L45.9109 45.2465C46.4285 45.8964 47.1361 46.7846 48.5605 46.7846C49.9874 46.7846 50.695 45.8963 51.2127 45.2465L51.2163 45.2419C51.704 44.6296 51.886 44.4635 52.2499 44.4635C52.6138 44.4635 52.7982 44.6297 53.2834 45.2444L53.2871 45.2489C53.8048 45.8988 54.5123 46.787 55.9367 46.787C57.602 46.787 58.0139 45.5529 58.211 44.9596L58.2161 44.9442C58.2696 44.7838 58.354 44.5308 58.4005 44.4802C58.4005 44.4802 58.4409 44.4636 58.5546 44.4636C58.638 44.4636 58.7189 44.4517 58.7972 44.4327C58.8073 44.4304 58.8149 44.4327 58.825 44.4304C58.8402 44.4272 58.8531 44.4219 58.866 44.4166C58.8725 44.414 58.8789 44.4114 58.8857 44.409C58.9066 44.4014 58.9276 44.3948 58.9479 44.3873C58.9558 44.3844 58.9636 44.3814 58.9713 44.378C58.9748 44.3766 58.9783 44.375 58.9817 44.3734C59.0006 44.3652 59.0178 44.3562 59.0349 44.3473L59.0349 44.3473C59.0474 44.3408 59.0598 44.3343 59.0727 44.3283C59.0979 44.3141 59.1257 44.2975 59.1485 44.2832C59.1763 44.2642 59.204 44.2429 59.2293 44.2191C59.2521 44.2002 59.2723 44.1812 59.2925 44.1622C59.3152 44.1385 59.338 44.1123 59.3582 44.0886C59.364 44.0808 59.3698 44.0733 59.3756 44.0657L59.3759 44.0654C59.3877 44.0501 59.3995 44.0348 59.4113 44.0174C59.4416 43.9984 59.4567 43.9723 59.4719 43.9438L59.4714 43.9442ZM39.7838 39.5466H37.171V5.22961C40.1249 9.95952 45.5379 21.8735 39.7838 39.5466ZM56.2874 44.42L56.2925 44.4046L56.2917 44.4047C56.4105 44.0486 56.6126 43.4648 57.1104 43.0543C55.9913 41.7252 52.4612 38.996 42.2144 38.5C41.992 39.2523 41.7519 40.0141 41.4891 40.7878C41.3552 41.1817 40.966 41.4499 40.5264 41.4499H31.9401C31.5004 41.4499 31.1113 41.1818 30.9773 40.7878C30.7347 40.0663 30.5124 39.3567 30.3026 38.6566C23.8057 39.2309 21.481 40.7617 19.7045 42.0527C19.6967 42.1083 19.6891 42.1635 19.6816 42.2192C19.6697 42.3062 19.6578 42.3944 19.6439 42.487C19.5453 43.18 19.3937 44.2479 19.4241 44.8175C19.6085 44.7155 19.7955 44.5066 20.0988 44.1222L20.1024 44.1176C20.6201 43.4678 21.3277 42.5796 22.7546 42.5796C24.179 42.5796 24.8866 43.4677 25.4042 44.1176L25.4079 44.1222C25.8931 44.7345 26.0776 44.9006 26.4414 44.9006C26.8053 44.9006 26.9873 44.7345 27.475 44.1222L27.4786 44.1176C27.9963 43.4678 28.7039 42.5796 30.1308 42.5796C31.5552 42.5796 32.2628 43.4677 32.7805 44.1176L32.7841 44.1222C33.2719 44.7345 33.4563 44.9006 33.8177 44.9006C34.1816 44.9006 34.3635 44.7345 34.8512 44.1222C35.3667 43.4719 36.0743 42.5796 37.5045 42.5796C38.9289 42.5796 39.6365 43.4677 40.1542 44.1176L40.1578 44.1222C40.6456 44.7369 40.83 44.903 41.1939 44.903C41.5578 44.903 41.7397 44.7369 42.2274 44.1246L42.231 44.1201C42.7488 43.4702 43.4564 42.582 44.8833 42.582C46.3077 42.582 47.0152 43.4702 47.5329 44.12L47.5366 44.1246C48.0218 44.7369 48.2062 44.903 48.5701 44.903C48.934 44.903 49.1185 44.7368 49.6062 44.1222C50.1217 43.4719 50.8318 42.5796 52.2595 42.5796C53.6864 42.5796 54.394 43.4677 54.9117 44.1176L54.9153 44.1222C55.4031 44.7345 55.5875 44.9006 55.9489 44.9006C56.0626 44.9006 56.103 44.884 56.103 44.884C56.1495 44.8334 56.2339 44.5803 56.2874 44.42Z" fill="white"/>
<path d="M59.5093 43.8612L59.0523 43.6584L59.0445 43.6759L59.0381 43.6939L59.5093 43.8612ZM59.4714 43.9442L59.039 43.6932L59.7754 44.3412L59.4714 43.9442ZM59.5309 43.7991L60.0095 43.9439L60.0095 43.9439L59.5309 43.7991ZM59.5396 43.771L60.0148 43.9266L60.0187 43.9147L60.022 43.9025L59.5396 43.771ZM59.5397 43.7708L60.0221 43.9024L60.0229 43.8994L59.5397 43.7708ZM59.5599 43.6855L59.0724 43.5743L59.0697 43.5862L59.0676 43.5982L59.5599 43.6855ZM59.5722 43.5867L59.0737 43.5482L59.0737 43.549L59.5722 43.5867ZM59.5725 43.5835L59.0769 43.5175L59.075 43.5311L59.074 43.5449L59.5725 43.5835ZM59.5763 43.5147L60.072 43.449L60.0713 43.444L59.5763 43.5147ZM59.5763 43.5147L59.0806 43.5804L59.0813 43.5854L59.5763 43.5147ZM59.5649 43.4007L60.0593 43.3255L60.0583 43.3199L59.5649 43.4007ZM59.5498 43.3082L60.0432 43.2274L60.0392 43.2032L60.0329 43.1795L59.5498 43.3082ZM59.5478 43.2972L59.0519 43.3611L59.0519 43.3617L59.5478 43.2972ZM59.5472 43.2928L60.0438 43.2345L60.0438 43.2342L59.5472 43.2928ZM59.5447 43.2773L60.028 43.1486L60.025 43.1383L59.5447 43.2773ZM42.7358 36.6228L42.2518 36.4973L42.0984 37.0885L42.7083 37.1221L42.7358 36.6228ZM37.0805 1.71474L36.7087 2.04905L36.7103 2.05081L37.0805 1.71474ZM36.3098 1.38011L36.2939 1.87986L36.3018 1.88011H36.3098V1.38011ZM36.1607 1.37537L36.1766 0.875619L36.1686 0.875366H36.1607V1.37537ZM35.9484 1.39673L35.8463 0.907274L35.8325 0.910152L35.8189 0.913803L35.9484 1.39673ZM35.9307 1.402L35.7814 0.924829L35.7813 0.924837L35.9307 1.402ZM35.8953 1.41096L35.8289 0.915405L35.8047 0.91864L35.7811 0.924202L35.8953 1.41096ZM35.7488 1.45606L35.5649 0.991003L35.5562 0.994649L35.7488 1.45606ZM35.6856 1.48928L35.9181 1.93196L35.9285 1.92646L35.9387 1.92047L35.6856 1.48928ZM35.6639 1.50068L35.8958 1.94363L35.8964 1.94336L35.6639 1.50068ZM35.5694 1.55336L35.3041 1.12955L35.304 1.12957L35.5694 1.55336ZM35.5062 1.6032L35.8173 1.99466L35.8334 1.9818L35.8485 1.96765L35.5062 1.6032ZM35.4127 1.68626L35.0561 1.33579L35.0381 1.35413L35.022 1.37423L35.4127 1.68626ZM35.3974 1.6999L35.6956 2.10125L35.6957 2.10115L35.3974 1.6999ZM35.3849 1.71L35.0426 1.34552L35.0277 1.35957L35.0139 1.37481L35.3849 1.71ZM29.7801 36.7912L29.8273 37.289L30.4133 37.2334L30.2637 36.6641L29.7801 36.7912ZM19.849 39.5988L19.3515 39.6488L19.4317 40.4468L20.1129 40.0235L19.849 39.5988ZM19.3765 38.3766L19.0042 38.7104L19.0055 38.7118L19.3765 38.3766ZM18.2469 37.8663L18.2629 37.3666L18.2616 37.3665L18.2469 37.8663ZM11.3154 43.3913L10.8274 43.5002L11.0831 44.6459L11.7321 43.6677L11.3154 43.3913ZM11.5833 38.2627L11.1732 37.9767L11.1728 37.9772L11.5833 38.2627ZM13.6478 37.2731L13.6172 36.774L13.6172 36.774L13.6478 37.2731ZM17.5367 35.3887L17.994 35.5909L17.9942 35.5905L17.5367 35.3887ZM16.8545 32.6072L16.4894 32.9489L16.4899 32.9494L16.8545 32.6072ZM10.4563 31.067L10.5792 31.5516L10.5793 31.5516L10.4563 31.067ZM2.39789 39.8528L2.87787 39.9928L2.8779 39.9927L2.39789 39.8528ZM3.60325 46.5049L3.95015 46.1448L3.95009 46.1447L3.60325 46.5049ZM5.03347 46.5238L5.36992 46.8937L5.37108 46.8927L5.03347 46.5238ZM5.05369 45.1806L5.40176 44.8217L5.40069 44.8206L5.05369 45.1806ZM4.3487 40.3534L3.86873 40.2133L3.86859 40.2138L4.3487 40.3534ZM10.9846 32.8988L11.1076 33.3834L11.1082 33.3832L10.9846 32.8988ZM15.336 33.8599L14.9709 34.2016L14.9715 34.2022L15.336 33.8599ZM15.667 34.6621L16.1252 34.8622L16.1252 34.8622L15.667 34.6621ZM13.5166 35.3764L13.5469 35.8755L13.5472 35.8755L13.5166 35.3764ZM9.88789 37.2228L9.47753 36.9372L9.47727 36.9375L9.88789 37.2228ZM10.042 46.1678L10.5089 45.9889L10.5086 45.988L10.042 46.1678ZM10.9315 46.7896L10.9898 46.293L10.974 46.2911L10.958 46.2903L10.9315 46.7896ZM11.8943 46.2698L11.4539 46.033L11.4529 46.0349L11.8943 46.2698ZM17.8502 39.7861L18.348 39.7385L18.2961 39.1959L17.76 39.2943L17.8502 39.7861ZM17.6404 42.1929L17.1453 42.1231L17.1453 42.1231L17.6404 42.1929ZM17.6354 42.2281L18.1304 42.2988L18.1305 42.2979L17.6354 42.2281ZM17.9083 46.3053L18.2749 45.9653L18.2737 45.964L17.9083 46.3053ZM21.7165 45.2492L21.3248 44.9384L21.3247 44.9386L21.7165 45.2492ZM23.7836 45.2468L23.3917 45.5573L23.3925 45.5583L23.7836 45.2468ZM23.7872 45.2514L23.3961 45.5629L23.3962 45.5629L23.7872 45.2514ZM29.0902 45.2468L28.6985 44.936L28.6984 44.9362L29.0902 45.2468ZM31.1573 45.2444L30.7654 45.5549L30.7662 45.5559L31.1573 45.2444ZM31.1609 45.2489L30.7698 45.5605L30.7699 45.5605L31.1609 45.2489ZM36.4639 45.2444L36.0728 44.9328L36.0721 44.9337L36.4639 45.2444ZM38.531 45.2444L38.1391 45.5549L38.14 45.556L38.531 45.2444ZM38.5346 45.2489L38.9257 44.9374L38.9256 44.9372L38.5346 45.2489ZM43.8401 45.2444L43.4484 44.9336L43.4483 44.9337L43.8401 45.2444ZM45.9072 45.2419L45.5153 45.5525L45.5162 45.5535L45.9072 45.2419ZM45.9109 45.2465L46.3019 44.935L46.3019 44.9349L45.9109 45.2465ZM51.2127 45.2465L51.6038 45.558L51.6038 45.558L51.2127 45.2465ZM51.2163 45.2419L51.6074 45.5535L51.6074 45.5534L51.2163 45.2419ZM53.2834 45.2444L52.891 45.5541L52.8923 45.5558L53.2834 45.2444ZM53.2871 45.2489L52.8959 45.5604L52.896 45.5605L53.2871 45.2489ZM58.211 44.9596L57.7366 44.8014L57.7365 44.802L58.211 44.9596ZM58.2161 44.9442L57.7418 44.786L57.7418 44.786L58.2161 44.9442ZM58.4005 44.4802L58.2105 44.0177L58.1077 44.06L58.0324 44.1418L58.4005 44.4802ZM58.7972 44.4327L58.683 43.9459L58.6794 43.9468L58.7972 44.4327ZM58.825 44.4304L58.7229 43.9407L58.7108 43.9436L58.825 44.4304ZM58.866 44.4166L58.6771 43.9537L58.6769 43.9538L58.866 44.4166ZM58.8857 44.409L59.0517 44.8806L59.0555 44.8793L58.8857 44.409ZM58.9479 44.3873L58.7749 43.9182L58.7749 43.9182L58.9479 44.3873ZM58.9713 44.378L58.7741 43.9186L58.774 43.9187L58.9713 44.378ZM58.9817 44.3734L58.7828 43.9146L58.7759 43.9177L58.7691 43.9209L58.9817 44.3734ZM59.0349 44.3473L58.8112 43.9001L58.8038 43.904L59.0349 44.3473ZM59.0349 44.3473L59.2585 44.7946L59.2661 44.7907L59.0349 44.3473ZM59.0727 44.3283L59.2852 44.7809L59.302 44.773L59.3181 44.7639L59.0727 44.3283ZM59.1485 44.2832L59.4138 44.707L59.4222 44.7017L59.4305 44.6961L59.1485 44.2832ZM59.2293 44.2191L58.9089 43.8353L58.8977 43.8447L58.887 43.8547L59.2293 44.2191ZM59.2925 44.1622L59.6348 44.5267L59.6444 44.5177L59.6535 44.5081L59.2925 44.1622ZM59.3582 44.0886L59.7388 44.4128L59.7494 44.4004L59.7591 44.3874L59.3582 44.0886ZM59.3756 44.0657L58.9824 43.7568L58.9796 43.7605L59.3756 44.0657ZM59.3759 44.0654L59.769 44.3743L59.7718 44.3707L59.3759 44.0654ZM59.4113 44.0174L59.1459 43.5936L59.0565 43.6496L58.9973 43.737L59.4113 44.0174ZM59.4719 43.9438L59.9132 44.1789L59.1679 43.5468L59.4719 43.9438ZM37.171 39.5466H36.671V40.0466H37.171V39.5466ZM39.7838 39.5466V40.0466H40.1469L40.2593 39.7013L39.7838 39.5466ZM37.171 5.22961L37.595 4.96476L36.671 3.48511V5.22961H37.171ZM56.2925 44.4046L56.7669 44.5628L57.0171 43.8124L56.232 43.9083L56.2925 44.4046ZM56.2874 44.42L56.7617 44.5782L56.7617 44.5782L56.2874 44.42ZM56.2917 44.4047L55.8174 44.2464L55.5671 44.9968L56.3523 44.901L56.2917 44.4047ZM57.1104 43.0543L57.4286 43.44L57.8183 43.1186L57.4929 42.7322L57.1104 43.0543ZM42.2144 38.5L42.2385 38.0006L41.8462 37.9816L41.7349 38.3583L42.2144 38.5ZM41.4891 40.7878L41.9625 40.9488L41.9626 40.9486L41.4891 40.7878ZM30.9773 40.7878L30.5034 40.9472L30.5039 40.9487L30.9773 40.7878ZM30.3026 38.6566L30.7816 38.5131L30.6646 38.1227L30.2586 38.1586L30.3026 38.6566ZM19.7045 42.0527L19.4106 41.6483L19.2393 41.7728L19.2095 41.9825L19.7045 42.0527ZM19.6816 42.2192L20.177 42.2866L20.177 42.2865L19.6816 42.2192ZM19.6439 42.487L19.1494 42.413L19.1489 42.4166L19.6439 42.487ZM19.4241 44.8175L18.9248 44.8441L18.9672 45.6416L19.666 45.2551L19.4241 44.8175ZM20.0988 44.1222L19.7077 43.8107L19.7062 43.8125L20.0988 44.1222ZM20.1024 44.1176L19.7113 43.8061L19.7113 43.8061L20.1024 44.1176ZM25.4042 44.1176L25.7953 43.8061L25.7953 43.8061L25.4042 44.1176ZM25.4079 44.1222L25.7998 43.8116L25.799 43.8107L25.4079 44.1222ZM27.475 44.1222L27.8661 44.4337L27.8661 44.4337L27.475 44.1222ZM27.4786 44.1176L27.0875 43.8061L27.0875 43.8061L27.4786 44.1176ZM32.7805 44.1176L33.1716 43.8061L33.1716 43.8061L32.7805 44.1176ZM32.7841 44.1222L32.393 44.4337L32.393 44.4337L32.7841 44.1222ZM34.8512 44.1222L35.2423 44.4337L35.243 44.4328L34.8512 44.1222ZM40.1542 44.1176L40.5453 43.8062L40.5453 43.8061L40.1542 44.1176ZM40.1578 44.1222L40.5495 43.8114L40.549 43.8108L40.1578 44.1222ZM42.2274 44.1246L41.8364 43.8131L41.8364 43.8131L42.2274 44.1246ZM42.231 44.1201L41.84 43.8085L41.84 43.8086L42.231 44.1201ZM47.5329 44.12L47.9241 43.8086L47.924 43.8085L47.5329 44.12ZM47.5366 44.1246L47.9285 43.8141L47.9277 43.8131L47.5366 44.1246ZM49.6062 44.1222L49.9979 44.433L49.998 44.4328L49.6062 44.1222ZM54.9117 44.1176L54.5206 44.4291L54.5206 44.4292L54.9117 44.1176ZM54.9153 44.1222L55.3064 43.8107L55.3064 43.8106L54.9153 44.1222ZM56.103 44.884L56.2931 45.3464L56.3959 45.3042L56.4711 45.2224L56.103 44.884ZM59.0381 43.6939C59.0374 43.6959 59.0369 43.697 59.0368 43.6972C59.0367 43.6975 59.0373 43.6961 59.039 43.6932L59.9038 44.1953C59.9371 44.138 59.962 44.0806 59.9805 44.0284L59.0381 43.6939ZM59.0523 43.6543C59.0506 43.6599 59.0496 43.6634 59.0486 43.6665C59.0477 43.6695 59.0472 43.6708 59.0471 43.6713C59.0467 43.6724 59.0484 43.6671 59.0523 43.6584L59.9664 44.0639C59.9898 44.011 60.0046 43.96 60.0095 43.9439L59.0523 43.6543ZM59.0645 43.6153C59.0594 43.631 59.0549 43.6457 59.0523 43.6543L60.0095 43.9439C60.0125 43.9338 60.0138 43.9298 60.0148 43.9266L59.0645 43.6153ZM59.0573 43.6393L59.0573 43.6394L60.022 43.9025L60.0221 43.9024L59.0573 43.6393ZM59.0676 43.5982C59.0668 43.6022 59.065 43.6101 59.0565 43.6423L60.0229 43.8994C60.0294 43.8747 60.0428 43.8257 60.0522 43.7729L59.0676 43.5982ZM59.0737 43.549C59.073 43.5574 59.0726 43.5633 59.0721 43.5689C59.0716 43.5743 59.0713 43.5778 59.071 43.5803C59.0704 43.5857 59.0705 43.5825 59.0724 43.5743L60.0473 43.7967C60.0644 43.722 60.0689 43.6499 60.0708 43.6245L59.0737 43.549ZM59.074 43.5449L59.0737 43.5482L60.0708 43.6253L60.071 43.6221L59.074 43.5449ZM59.0775 43.5289C59.0775 43.5158 59.0785 43.5063 59.0788 43.5033C59.0789 43.5021 59.0789 43.5022 59.0786 43.5047C59.0784 43.506 59.0782 43.5075 59.0779 43.5097C59.0777 43.5117 59.0773 43.5146 59.0769 43.5175L60.0681 43.6495C60.069 43.6428 60.0775 43.5886 60.0775 43.5289H59.0775ZM59.0806 43.5805C59.0811 43.5842 59.0803 43.5784 59.0796 43.5713C59.0788 43.5632 59.0775 43.5482 59.0775 43.5289H60.0775C60.0775 43.5049 60.076 43.4851 60.0747 43.4724C60.0735 43.4605 60.0721 43.45 60.072 43.449L59.0806 43.5805ZM59.0813 43.5854L59.0813 43.5854L60.0713 43.444L60.0713 43.4439L59.0813 43.5854ZM59.075 43.5004C59.075 43.5246 59.0766 43.5445 59.0779 43.5572C59.0791 43.5691 59.0805 43.5796 59.0806 43.5804L60.0719 43.4489C60.0714 43.445 60.0722 43.4508 60.0729 43.4578C60.0737 43.4659 60.075 43.481 60.075 43.5004H59.075ZM59.0706 43.4759C59.0719 43.4846 59.0728 43.4906 59.0736 43.4963C59.0744 43.5016 59.0748 43.505 59.0751 43.5073C59.0756 43.512 59.075 43.5086 59.075 43.5004H60.075C60.075 43.423 60.0633 43.3521 60.0592 43.3255L59.0706 43.4759ZM59.0563 43.389L59.0715 43.4816L60.0583 43.3199L60.0432 43.2274L59.0563 43.389ZM59.0519 43.3617C59.0531 43.3707 59.057 43.4008 59.0666 43.4369L60.0329 43.1795C60.0371 43.1954 60.0397 43.2083 60.0411 43.2166C60.0425 43.2248 60.0433 43.2309 60.0436 43.2328L59.0519 43.3617ZM59.0506 43.351C59.0507 43.352 59.0512 43.3564 59.0519 43.3611L60.0437 43.2333C60.0439 43.2351 60.044 43.2365 60.0438 43.2345L59.0506 43.351ZM59.0615 43.406C59.0558 43.3844 59.053 43.3674 59.0519 43.3599C59.0508 43.3528 59.0502 43.3471 59.0507 43.3513L60.0438 43.2342C60.0436 43.233 60.0424 43.222 60.0405 43.2098C60.0386 43.197 60.0349 43.175 60.0279 43.1487L59.0615 43.406ZM42.7083 37.1221C50.1082 37.5295 54.1987 39.1168 56.4318 40.5842C57.5473 41.3172 58.2035 42.0227 58.5809 42.5434C58.7699 42.8042 58.8902 43.0202 58.9635 43.1722C59.0002 43.2482 59.0252 43.3083 59.0412 43.3501C59.0492 43.371 59.0549 43.3873 59.0587 43.3986C59.0606 43.4043 59.062 43.4086 59.063 43.4117C59.0635 43.4132 59.0638 43.4144 59.0641 43.4152C59.0643 43.416 59.0644 43.4164 59.0644 43.4164L60.025 43.1383C59.9581 42.9074 59.4146 41.3476 56.9809 39.7484C54.5557 38.1549 50.277 36.5372 42.7632 36.1236L42.7083 37.1221ZM36.7103 2.05081C37.1444 2.52909 47.8964 14.7357 42.2518 36.4973L43.2197 36.7484C48.9817 14.5341 38.007 1.99155 37.4507 1.37867L36.7103 2.05081ZM36.3098 1.88011C36.4736 1.88011 36.6164 1.94639 36.7087 2.04905L37.4523 1.38043C37.1605 1.05591 36.7422 0.880112 36.3098 0.880112V1.88011ZM36.1448 1.87511L36.2939 1.87986L36.3257 0.880366L36.1766 0.875619L36.1448 1.87511ZM36.0506 1.88618C36.0835 1.8793 36.12 1.87537 36.1607 1.87537V0.875366C36.0548 0.875366 35.9498 0.885669 35.8463 0.907274L36.0506 1.88618ZM36.0801 1.87917C36.0817 1.87868 36.0825 1.87841 36.0833 1.87817C36.084 1.87795 36.0842 1.8779 36.084 1.87794C36.0839 1.87798 36.0816 1.87868 36.078 1.87965L35.8189 0.913803C35.8013 0.91851 35.7855 0.923524 35.7814 0.924829L36.0801 1.87917ZM35.9618 1.90652C36.0233 1.89828 36.0764 1.88033 36.0801 1.87916L35.7813 0.924837C35.7737 0.927225 35.7777 0.925902 35.7834 0.924358C35.7902 0.922555 35.8065 0.918404 35.8289 0.915405L35.9618 1.90652ZM35.9326 1.92103C35.9536 1.91276 35.9776 1.90525 36.0096 1.89773L35.7811 0.924202C35.712 0.940408 35.6401 0.961382 35.5649 0.991086L35.9326 1.92103ZM35.9387 1.92047C35.9441 1.91733 35.9473 1.91548 35.9501 1.91384C35.9527 1.91233 35.9539 1.91171 35.9541 1.9116C35.9545 1.91138 35.9497 1.91401 35.9414 1.91746L35.5562 0.994649C35.4973 1.0192 35.4489 1.04845 35.4325 1.05809L35.9387 1.92047ZM35.8964 1.94336L35.9181 1.93196L35.4532 1.04661L35.4314 1.05801L35.8964 1.94336ZM35.8347 1.97717C35.8468 1.96957 35.8609 1.96191 35.8958 1.94363L35.432 1.05773C35.402 1.07342 35.354 1.09827 35.3041 1.12955L35.8347 1.97717ZM35.8485 1.96765C35.8536 1.96289 35.8479 1.9689 35.8347 1.97715L35.304 1.12957C35.2454 1.1663 35.1993 1.20553 35.1639 1.23875L35.8485 1.96765ZM35.7693 2.03674C35.7809 2.02491 35.7947 2.01262 35.8173 1.99466L35.1951 1.21174C35.152 1.24599 35.1051 1.28592 35.0561 1.33579L35.7693 2.03674ZM35.6957 2.10115C35.6961 2.10088 35.7124 2.08897 35.7298 2.07413C35.7495 2.05734 35.7762 2.03234 35.8034 1.99829L35.022 1.37423C35.0448 1.34572 35.0666 1.32545 35.0812 1.31305C35.0934 1.3026 35.1043 1.29474 35.0991 1.29865L35.6957 2.10115ZM35.7272 2.07448C35.7166 2.0844 35.7076 2.09184 35.7018 2.09643C35.6968 2.10038 35.6927 2.10336 35.6956 2.10125L35.0992 1.29855C35.0971 1.30014 35.0707 1.31916 35.0426 1.34552L35.7272 2.07448ZM30.2637 36.6641C24.5163 14.7964 35.3209 2.52671 35.7559 2.04518L35.0139 1.37481C34.4584 1.98972 23.4298 14.5964 29.2966 36.9183L30.2637 36.6641ZM20.1129 40.0235C21.8947 38.9162 24.5312 37.7911 29.8273 37.289L29.733 36.2935C24.315 36.8071 21.5229 37.9699 19.5851 39.1741L20.1129 40.0235ZM19.0055 38.7118C19.1921 38.9183 19.3072 39.2076 19.3515 39.6488L20.3465 39.5488C20.2897 38.9837 20.1269 38.4614 19.7475 38.0414L19.0055 38.7118ZM18.2309 38.3661C18.5482 38.3762 18.8181 38.5029 19.0042 38.7104L19.7487 38.0428C19.3687 37.619 18.8351 37.3849 18.2629 37.3666L18.2309 38.3661ZM11.7321 43.6677C12.4808 42.5391 13.4994 41.1754 14.6558 40.1091C15.8263 39.0297 17.0553 38.3316 18.2323 38.3661L18.2616 37.3665C16.6842 37.3203 15.2055 38.242 13.9779 39.3739C12.7363 40.5188 11.6663 41.958 10.8988 43.1149L11.7321 43.6677ZM11.1728 37.9772C10.663 38.7103 10.4943 39.6787 10.4851 40.6317C10.4757 41.5958 10.6293 42.6124 10.8274 43.5002L11.8034 43.2824C11.6149 42.4376 11.4767 41.5023 11.485 40.6414C11.4935 39.7693 11.652 39.0397 11.9938 38.5482L11.1728 37.9772ZM13.6172 36.774C12.5474 36.8396 11.7078 37.21 11.1732 37.9767L11.9934 38.5487C12.3028 38.1051 12.8125 37.8252 13.6784 37.7721L13.6172 36.774ZM17.0794 35.1865C16.8368 35.7353 16.0924 36.6225 13.6172 36.774L13.6783 37.7721C16.3986 37.6056 17.5545 36.5848 17.994 35.5909L17.0794 35.1865ZM16.4899 32.9494C17.2199 33.7273 17.3682 34.5321 17.0793 35.1868L17.9942 35.5905C18.4886 34.4701 18.1416 33.2481 17.219 32.2651L16.4899 32.9494ZM10.5793 31.5516C13.176 30.8924 15.4255 31.8122 16.4894 32.9489L17.2195 32.2656C15.8979 30.8534 13.2705 29.8367 10.3332 30.5824L10.5793 31.5516ZM2.8779 39.9927C3.37737 38.2796 4.4253 36.3818 5.80255 34.7994C7.18293 33.2134 8.85448 31.9891 10.5792 31.5516L10.3333 30.5823C8.34345 31.0871 6.50754 32.4662 5.04824 34.1429C3.58581 35.8231 2.46185 37.8471 1.91787 39.7128L2.8779 39.9927ZM3.95009 46.1447C2.54202 44.7887 2.10502 42.6414 2.87787 39.9928L1.91791 39.7127C1.07857 42.5891 1.49568 45.1693 3.25641 46.865L3.95009 46.1447ZM4.69703 46.154C4.48891 46.3433 4.15106 46.3383 3.95015 46.1448L3.25634 46.8649C3.8388 47.4261 4.77446 47.4354 5.36992 46.8937L4.69703 46.154ZM4.70562 45.5396C4.88727 45.7157 4.88368 45.9831 4.69586 46.155L5.37108 46.8927C5.98178 46.3336 5.9984 45.4002 5.40176 44.8217L4.70562 45.5396ZM3.86859 40.2138C3.68517 40.8446 3.48747 41.7647 3.53175 42.7242C3.57618 43.6872 3.86764 44.7318 4.70668 45.5406L5.40069 44.8206C4.8044 44.2458 4.56773 43.4809 4.53069 42.6781C4.49349 41.872 4.66096 41.0703 4.82881 40.493L3.86859 40.2138ZM10.8615 32.4142C9.40078 32.7851 7.91144 33.8671 6.67338 35.2579C5.42893 36.6559 4.39368 38.4151 3.86873 40.2133L4.82867 40.4936C5.30692 38.8553 6.26163 37.2244 7.42031 35.9228C8.58538 34.614 9.91237 33.6869 11.1076 33.3834L10.8615 32.4142ZM15.701 33.5182C14.8108 32.5672 12.9346 31.885 10.8609 32.4143L11.1082 33.3832C12.8653 32.9348 14.355 33.5436 14.9709 34.2016L15.701 33.5182ZM16.1252 34.8622C16.2444 34.5893 16.1801 34.3083 16.1003 34.1144C16.0143 33.9053 15.8726 33.7009 15.7005 33.5177L14.9715 34.2022C15.0824 34.3203 15.1466 34.4245 15.1755 34.4949C15.1898 34.5294 15.1911 34.5453 15.191 34.5434C15.1908 34.5413 15.1883 34.5088 15.2088 34.4619L16.1252 34.8622ZM13.5472 35.8755C14.2766 35.8307 14.8372 35.715 15.247 35.5584C15.6262 35.4134 15.9807 35.1929 16.1252 34.8622L15.2088 34.4619C15.232 34.4089 15.2074 34.5029 14.8899 34.6243C14.6028 34.7341 14.1489 34.8367 13.486 34.8774L13.5472 35.8755ZM10.2982 37.5085C10.9675 36.5471 12.066 35.9655 13.5469 35.8755L13.4863 34.8774C11.763 34.982 10.3547 35.6771 9.47753 36.9372L10.2982 37.5085ZM10.5086 45.988C10.3979 45.7009 9.85781 44.2465 9.59809 42.5094C9.33453 40.7465 9.38108 38.8285 10.2985 37.5081L9.47727 36.9375C8.33019 38.5885 8.33757 40.8413 8.60909 42.6573C8.88445 44.499 9.45364 46.0315 9.57547 46.3476L10.5086 45.988ZM10.958 46.2903C10.7378 46.2786 10.5692 46.1463 10.5089 45.9889L9.57515 46.3468C9.78772 46.9013 10.3217 47.2579 10.905 47.2889L10.958 46.2903ZM10.9922 46.292C10.9868 46.292 10.9836 46.292 10.9807 46.2919C10.978 46.2919 10.9768 46.2919 10.9765 46.2919C10.9758 46.2919 10.9811 46.292 10.9898 46.293L10.8732 47.2862C10.9273 47.2925 10.9767 47.292 10.9922 47.292V46.292ZM11.4529 46.0349C11.3746 46.182 11.201 46.292 10.9922 46.292V47.292C11.5414 47.292 12.0703 47.0032 12.3356 46.5048L11.4529 46.0349ZM17.76 39.2943C17.1718 39.4022 16.5744 39.7458 16.0101 40.1884C15.438 40.6371 14.8593 41.22 14.3065 41.8626C13.201 43.1476 12.164 44.7125 11.4539 46.033L12.3346 46.5067C13.0143 45.2427 14.0114 43.7389 15.0646 42.5147C15.5912 41.9027 16.1229 41.3709 16.6273 40.9752C17.1396 40.5735 17.5849 40.3431 17.9404 40.2779L17.76 39.2943ZM18.1355 42.2626C18.1872 41.8957 18.254 41.4217 18.3011 40.97C18.347 40.5302 18.3794 40.0672 18.348 39.7385L17.3525 39.8336C17.3733 40.0514 17.3527 40.4235 17.3065 40.8663C17.2616 41.2972 17.1974 41.7534 17.1453 42.1231L18.1355 42.2626ZM18.1305 42.2979L18.1355 42.2626L17.1453 42.1231L17.1403 42.1584L18.1305 42.2979ZM18.2737 45.964C18.0408 45.7147 17.9134 45.3488 17.8984 44.7351C17.8832 44.114 17.9838 43.3262 18.1304 42.2988L17.1404 42.1575C16.9965 43.1663 16.881 44.0398 16.8987 44.7596C16.9165 45.4868 17.0708 46.1413 17.543 46.6467L18.2737 45.964ZM19.0632 46.2918C18.7404 46.2918 18.4646 46.1698 18.2749 45.9653L17.5418 46.6454C17.9333 47.0674 18.4812 47.2918 19.0632 47.2918V46.2918ZM21.3247 44.9386C20.8085 45.5897 20.232 46.2918 19.0632 46.2918V47.2918C20.7497 47.2918 21.5934 46.2093 22.1083 45.5598L21.3247 44.9386ZM22.75 43.9684C22.4649 43.9684 22.2189 44.043 21.9737 44.2336C21.7664 44.3948 21.5628 44.6385 21.3248 44.9384L22.1082 45.56C22.3579 45.2452 22.4904 45.0986 22.5875 45.023C22.6469 44.9769 22.6738 44.9684 22.75 44.9684V43.9684ZM24.1754 44.9362C23.9387 44.6375 23.7355 44.394 23.5277 44.2329C23.282 44.0423 23.0354 43.9684 22.75 43.9684V44.9684C22.8285 44.9684 22.8561 44.9775 22.9149 45.0231C23.0116 45.0981 23.1432 45.2438 23.3917 45.5573L24.1754 44.9362ZM24.1783 44.9398L24.1747 44.9352L23.3925 45.5583L23.3961 45.5629L24.1783 44.9398ZM26.4369 46.2894C25.2709 46.2894 24.6971 45.5911 24.1783 44.9398L23.3962 45.5629C23.9127 46.2114 24.754 47.2894 26.4369 47.2894V46.2894ZM28.6984 44.9362C28.1822 45.5872 27.6058 46.2894 26.4369 46.2894V47.2894C28.1235 47.2894 28.9671 46.2068 29.482 45.5574L28.6984 44.9362ZM30.1237 43.966C29.8386 43.966 29.5926 44.0405 29.3474 44.2311C29.1401 44.3924 28.9365 44.6361 28.6985 44.936L29.4819 45.5576C29.7316 45.2428 29.8641 45.0961 29.9612 45.0206C30.0206 44.9745 30.0475 44.966 30.1237 44.966V43.966ZM31.5491 44.9338C31.3124 44.6351 31.1092 44.3916 30.9014 44.2304C30.6557 44.0399 30.4091 43.966 30.1237 43.966V44.966C30.2022 44.966 30.2298 44.9751 30.2886 45.0207C30.3853 45.0956 30.5169 45.2413 30.7654 45.5549L31.5491 44.9338ZM31.552 44.9374L31.5484 44.9328L30.7662 45.5559L30.7698 45.5605L31.552 44.9374ZM33.8106 46.287C32.6446 46.287 32.0708 45.5887 31.552 44.9374L30.7699 45.5605C31.2864 46.209 32.1277 47.287 33.8106 47.287V46.287ZM36.0721 44.9337C35.5557 45.5851 34.9818 46.287 33.8106 46.287V47.287C35.4998 47.287 36.3411 46.2041 36.8557 45.555L36.0721 44.9337ZM37.4974 43.966C37.2117 43.966 36.9656 44.0401 36.7203 44.2307C36.5134 44.3915 36.3102 44.6348 36.0728 44.9328L36.855 45.5559C37.1053 45.2417 37.2369 45.0957 37.3339 45.0204C37.3925 44.9748 37.4193 44.966 37.4974 44.966V43.966ZM38.9229 44.9338C38.6861 44.6351 38.4829 44.3916 38.2751 44.2304C38.0294 44.0399 37.7828 43.966 37.4974 43.966V44.966C37.576 44.966 37.6035 44.9751 37.6623 45.0207C37.759 45.0956 37.8906 45.2413 38.1391 45.5549L38.9229 44.9338ZM38.9256 44.9372L38.922 44.9327L38.14 45.556L38.1436 45.5606L38.9256 44.9372ZM41.1868 46.287C40.0182 46.287 39.4443 45.5884 38.9257 44.9374L38.1435 45.5605C38.6603 46.2092 39.5016 47.287 41.1868 47.287V46.287ZM43.4483 44.9337C42.9321 45.5848 42.3557 46.287 41.1868 46.287V47.287C42.8733 47.287 43.7171 46.2044 44.2319 45.555L43.4483 44.9337ZM44.8737 43.9635C44.5886 43.9635 44.3425 44.0381 44.0974 44.2287C43.89 44.3899 43.6864 44.6337 43.4484 44.9336L44.2318 45.5551C44.4815 45.2404 44.614 45.0937 44.7112 45.0182C44.7705 44.972 44.7974 44.9635 44.8737 44.9635V43.9635ZM46.2991 44.9314C46.0624 44.6327 45.8592 44.3892 45.6513 44.228C45.4057 44.0375 45.159 43.9635 44.8737 43.9635V44.9635C44.9522 44.9635 44.9797 44.9726 45.0385 45.0182C45.1352 45.0932 45.2668 45.2389 45.5153 45.5525L46.2991 44.9314ZM46.3019 44.9349L46.2982 44.9303L45.5162 45.5535L45.5198 45.5581L46.3019 44.9349ZM48.5605 46.2846C47.3945 46.2846 46.8207 45.5862 46.3019 44.935L45.5198 45.558C46.0364 46.2065 46.8777 47.2846 48.5605 47.2846V46.2846ZM50.8217 44.9349C50.303 45.5859 49.7291 46.2846 48.5605 46.2846V47.2846C50.2457 47.2846 51.087 46.2067 51.6038 45.558L50.8217 44.9349ZM50.8253 44.9304L50.8217 44.9349L51.6038 45.558L51.6074 45.5535L50.8253 44.9304ZM52.2499 43.9635C51.9642 43.9635 51.7181 44.0377 51.4728 44.2283C51.2658 44.3891 51.0627 44.6323 50.8252 44.9304L51.6074 45.5534C51.8577 45.2392 51.9894 45.0933 52.0863 45.0179C52.1449 44.9724 52.1717 44.9635 52.2499 44.9635V43.9635ZM53.6759 44.9346C53.4391 44.6346 53.236 44.3903 53.0281 44.2287C52.7822 44.0375 52.5353 43.9635 52.2499 43.9635V44.9635C52.3283 44.9635 52.3556 44.9726 52.4143 45.0182C52.5109 45.0933 52.6425 45.2394 52.891 45.5541L53.6759 44.9346ZM53.6782 44.9375L53.6746 44.9329L52.8923 45.5558L52.8959 45.5604L53.6782 44.9375ZM55.9367 46.287C54.7708 46.287 54.197 45.5886 53.6782 44.9374L52.896 45.5605C53.4126 46.2089 54.2539 47.287 55.9367 47.287V46.287ZM57.7365 44.802C57.6366 45.1027 57.5099 45.4682 57.2486 45.766C57.0077 46.0405 56.6254 46.287 55.9367 46.287V47.287C56.9133 47.287 57.5696 46.9164 58.0002 46.4255C58.4105 45.958 58.5883 45.4099 58.6855 45.1172L57.7365 44.802ZM57.7418 44.786L57.7366 44.8014L58.6853 45.1178L58.6904 45.1024L57.7418 44.786ZM58.0324 44.1418C57.9605 44.22 57.9182 44.3144 57.9051 44.3431C57.8826 44.392 57.8613 44.446 57.8427 44.4955C57.8053 44.5953 57.7679 44.7076 57.7418 44.786L58.6904 45.1024C58.7178 45.0204 58.7493 44.926 58.7791 44.8465C58.7941 44.8064 58.806 44.7776 58.8141 44.7599C58.8182 44.751 58.8188 44.7503 58.8161 44.7552C58.8146 44.7578 58.8107 44.7645 58.8044 44.7737C58.7986 44.7822 58.7868 44.7988 58.7685 44.8186L58.0324 44.1418ZM58.5546 43.9636C58.4737 43.9636 58.4067 43.9695 58.3508 43.979C58.3227 43.9838 58.2971 43.9896 58.2739 43.9961C58.2622 43.9993 58.2511 44.0028 58.2406 44.0064C58.2353 44.0082 58.2302 44.0101 58.2251 44.0119C58.2226 44.0129 58.2201 44.0138 58.2177 44.0148C58.2165 44.0153 58.2153 44.0158 58.2141 44.0163C58.2135 44.0165 58.2128 44.0167 58.2123 44.017C58.212 44.0171 58.2117 44.0172 58.2114 44.0173C58.2112 44.0174 58.211 44.0175 58.2109 44.0175C58.2107 44.0176 58.2105 44.0177 58.4005 44.4802C58.5905 44.9427 58.5903 44.9428 58.5901 44.9429C58.59 44.9429 58.5898 44.943 58.5896 44.943C58.5893 44.9432 58.589 44.9433 58.5887 44.9434C58.5881 44.9436 58.5876 44.9439 58.587 44.9441C58.5858 44.9446 58.5847 44.945 58.5835 44.9455C58.5812 44.9464 58.579 44.9473 58.5768 44.9481C58.5724 44.9497 58.5683 44.9512 58.5643 44.9526C58.5564 44.9553 58.5494 44.9574 58.5433 44.9591C58.5311 44.9625 58.5228 44.9641 58.5191 44.9648C58.5118 44.966 58.5218 44.9636 58.5546 44.9636V43.9636ZM58.6794 43.9468C58.6311 43.9585 58.5904 43.9636 58.5546 43.9636V44.9636C58.6856 44.9636 58.8066 44.9449 58.915 44.9187L58.6794 43.9468ZM58.7108 43.9436C58.7406 43.9366 58.7664 43.9337 58.7855 43.9324C58.7946 43.9319 58.8019 43.9317 58.8061 43.9316C58.8099 43.9315 58.8129 43.9315 58.8111 43.9315C58.8107 43.9315 58.8054 43.9315 58.7995 43.9316C58.793 43.9317 58.7835 43.932 58.7721 43.9327C58.7484 43.9343 58.7179 43.9378 58.683 43.946L58.9115 44.9195C58.8816 44.9265 58.8558 44.9294 58.8367 44.9306C58.8276 44.9312 58.8203 44.9314 58.8161 44.9315C58.8124 44.9316 58.8093 44.9315 58.8111 44.9315C58.8116 44.9315 58.8168 44.9316 58.8227 44.9315C58.8292 44.9313 58.8387 44.9311 58.8501 44.9304C58.8738 44.9288 58.9044 44.9253 58.9393 44.9171L58.7108 43.9436ZM58.6769 43.9538C58.6688 43.9571 58.6735 43.9551 58.6802 43.9527C58.6887 43.9497 58.7036 43.9449 58.7229 43.9409L58.9271 44.9198C58.9932 44.906 59.046 44.8832 59.0551 44.8795L58.6769 43.9538ZM58.7196 43.9374C58.6995 43.9445 58.6818 43.9518 58.6771 43.9537L59.0549 44.8796C59.0586 44.8781 59.059 44.8779 59.0589 44.878C59.0584 44.8782 59.0557 44.8792 59.0517 44.8806L58.7196 43.9374ZM58.7749 43.9182C58.7715 43.9195 58.7669 43.9211 58.7561 43.9247C58.7471 43.9278 58.7317 43.933 58.7158 43.9387L59.0555 44.8793C59.0606 44.8774 59.0661 44.8756 59.0779 44.8715C59.0879 44.8681 59.1039 44.8627 59.1208 44.8565L58.7749 43.9182ZM58.774 43.9187C58.7763 43.9176 58.7769 43.9175 58.7749 43.9182L59.1208 44.8565C59.1346 44.8514 59.151 44.8451 59.1687 44.8374L58.774 43.9187ZM58.7691 43.9209C58.7712 43.9199 58.7729 43.9191 58.7741 43.9186L59.1686 44.8375C59.1767 44.834 59.1853 44.8302 59.1943 44.8259L58.7691 43.9209ZM58.8038 43.904C58.7946 43.9087 58.7902 43.911 58.7862 43.913C58.7828 43.9147 58.782 43.915 58.7828 43.9146L59.1805 44.8322C59.2183 44.8158 59.2508 44.7986 59.266 44.7907L58.8038 43.904ZM58.8113 43.9001L58.8113 43.9001L59.2585 44.7946L59.2585 44.7945L58.8113 43.9001ZM58.8601 43.8757C58.8363 43.8869 58.8148 43.8982 58.8038 43.904L59.2661 44.7907C59.28 44.7834 59.2833 44.7818 59.2852 44.7809L58.8601 43.8757ZM58.8831 43.8594C58.8664 43.8699 58.8452 43.8825 58.8272 43.8927L59.3181 44.7639C59.3506 44.7456 59.385 44.725 59.4138 44.707L58.8831 43.8594ZM58.887 43.8547C58.8852 43.8563 58.879 43.8618 58.8664 43.8703L59.4305 44.6961C59.4735 44.6667 59.5229 44.6294 59.5716 44.5836L58.887 43.8547ZM58.9502 43.7977C58.9288 43.8179 58.9188 43.8271 58.9089 43.8353L59.5497 44.603C59.5854 44.5732 59.6158 44.5445 59.6348 44.5267L58.9502 43.7977ZM58.9776 43.7644C58.9591 43.786 58.9439 43.8033 58.9315 43.8162L59.6535 44.5081C59.6865 44.4736 59.7168 44.4386 59.7388 44.4128L58.9776 43.7644ZM58.9796 43.7605C58.9742 43.7676 58.9659 43.7783 58.9573 43.7899L59.7591 44.3874C59.7621 44.3833 59.7655 44.379 59.7716 44.371L58.9796 43.7605ZM58.9827 43.7565L58.9825 43.7568L59.7688 44.3746L59.769 44.3743L58.9827 43.7565ZM58.9973 43.737C58.9967 43.7379 58.9954 43.7398 58.9927 43.7434C58.9896 43.7475 58.9862 43.752 58.9799 43.7601L59.7718 44.3707C59.7827 44.3567 59.8036 44.3298 59.8252 44.2979L58.9973 43.737ZM59.0306 43.7088C59.0181 43.7323 59.0546 43.6508 59.1459 43.5936L59.6766 44.4412C59.8286 44.346 59.8954 44.2123 59.9132 44.1789L59.0306 43.7088ZM59.7754 44.3412L59.7759 44.3409L59.1679 43.5468L59.1675 43.5472L59.7754 44.3412ZM37.171 40.0466H39.7838V39.0466H37.171V40.0466ZM36.671 5.22961V39.5466H37.671V5.22961H36.671ZM40.2593 39.7013C46.0699 21.8545 40.6068 9.78713 37.595 4.96476L36.7469 5.49447C39.6431 10.1319 45.0059 21.8925 39.3084 39.3918L40.2593 39.7013ZM55.8182 44.2464L55.8131 44.2618L56.7617 44.5782L56.7669 44.5628L55.8182 44.2464ZM56.3523 44.901L56.3531 44.9009L56.232 43.9083L56.2311 43.9084L56.3523 44.901ZM56.7923 42.6685C56.1727 43.1795 55.9354 43.8929 55.8174 44.2464L56.766 44.5629C56.8856 44.2044 57.0525 43.7502 57.4286 43.44L56.7923 42.6685ZM42.1902 38.9994C52.3643 39.4919 55.7336 42.1955 56.728 43.3763L57.4929 42.7322C56.249 41.255 52.5581 38.5001 42.2385 38.0006L42.1902 38.9994ZM41.9626 40.9486C42.2277 40.1681 42.4698 39.3999 42.6939 38.6417L41.7349 38.3583C41.5142 39.1048 41.2762 39.8602 41.0157 40.627L41.9626 40.9486ZM40.5264 41.9499C41.1646 41.9499 41.7547 41.5598 41.9625 40.9488L41.0158 40.6268C40.9556 40.8037 40.7675 40.9499 40.5264 40.9499V41.9499ZM31.9401 41.9499H40.5264V40.9499H31.9401V41.9499ZM30.5039 40.9487C30.7117 41.5599 31.302 41.9499 31.9401 41.9499V40.9499C31.6989 40.9499 31.5108 40.8037 31.4507 40.6269L30.5039 40.9487ZM29.8237 38.8001C30.0346 39.5043 30.2587 40.2193 30.5034 40.9472L31.4513 40.6284C31.2108 39.9133 30.9901 39.2092 30.7816 38.5131L29.8237 38.8001ZM19.9985 42.4572C20.8721 41.8223 21.8561 41.1461 23.4115 40.5531C24.973 39.9578 27.131 39.4389 30.3467 39.1547L30.2586 38.1586C26.9774 38.4486 24.7245 38.9823 23.0553 39.6187C21.38 40.2574 20.3134 40.9921 19.4106 41.6483L19.9985 42.4572ZM20.177 42.2865C20.1846 42.2306 20.1919 42.1769 20.1996 42.123L19.2095 41.9825C19.2014 42.0397 19.1937 42.0964 19.1861 42.1519L20.177 42.2865ZM20.1384 42.5611C20.1528 42.4646 20.1652 42.3731 20.177 42.2866L19.1861 42.1519C19.1742 42.2393 19.1627 42.3242 19.1494 42.413L20.1384 42.5611ZM19.9233 44.7909C19.8963 44.2827 20.0368 43.2755 20.1389 42.5574L19.1489 42.4166C19.0539 43.0845 18.8912 44.2132 18.9248 44.8441L19.9233 44.7909ZM19.7062 43.8125C19.3883 44.2156 19.2621 44.3357 19.1821 44.38L19.666 45.2551C19.955 45.0953 20.2028 44.7977 20.4914 44.4318L19.7062 43.8125ZM19.7113 43.8061L19.7077 43.8107L20.4899 44.4337L20.4935 44.4292L19.7113 43.8061ZM22.7546 42.0796C21.0694 42.0796 20.2281 43.1574 19.7113 43.8061L20.4935 44.4292C21.0121 43.7782 21.586 43.0796 22.7546 43.0796V42.0796ZM25.7953 43.8061C25.2787 43.1576 24.4374 42.0796 22.7546 42.0796V43.0796C23.9206 43.0796 24.4944 43.7779 25.0132 44.4291L25.7953 43.8061ZM25.799 43.8107L25.7953 43.8061L25.0132 44.4291L25.0168 44.4337L25.799 43.8107ZM26.4414 44.4006C26.3629 44.4006 26.3354 44.3915 26.2766 44.3459C26.1799 44.2709 26.0483 44.1252 25.7998 43.8116L25.016 44.4327C25.2527 44.7314 25.4559 44.9749 25.6638 45.1361C25.9094 45.3266 26.1561 45.4006 26.4414 45.4006V44.4006ZM27.0839 43.8107C26.8336 44.1249 26.7019 44.2708 26.605 44.3462C26.5464 44.3917 26.5196 44.4006 26.4414 44.4006V45.4006C26.7272 45.4006 26.9733 45.3264 27.2186 45.1358C27.4255 44.975 27.6287 44.7318 27.8661 44.4337L27.0839 43.8107ZM27.0875 43.8061L27.0839 43.8107L27.8661 44.4337L27.8697 44.4292L27.0875 43.8061ZM30.1308 42.0796C28.4456 42.0796 27.6043 43.1574 27.0875 43.8061L27.8697 44.4292C28.3883 43.7782 28.9622 43.0796 30.1308 43.0796V42.0796ZM33.1716 43.8061C32.655 43.1576 31.8137 42.0796 30.1308 42.0796V43.0796C31.2968 43.0796 31.8706 43.7779 32.3894 44.4291L33.1716 43.8061ZM33.1752 43.8107L33.1716 43.8061L32.3894 44.4291L32.393 44.4337L33.1752 43.8107ZM33.8177 44.4006C33.7413 44.4006 33.7142 44.392 33.6547 44.3459C33.5575 44.2705 33.425 44.1242 33.1752 43.8107L32.393 44.4337C32.631 44.7324 32.8346 44.9754 33.0419 45.1361C33.2869 45.3261 33.5327 45.4006 33.8177 45.4006V44.4006ZM34.4601 43.8107C34.2098 44.1249 34.0782 44.2708 33.9812 44.3462C33.9226 44.3917 33.8958 44.4006 33.8177 44.4006V45.4006C34.1034 45.4006 34.3495 45.3264 34.5948 45.1358C34.8017 44.975 35.0049 44.7318 35.2423 44.4337L34.4601 43.8107ZM37.5045 42.0796C35.8153 42.0796 34.9741 43.1624 34.4594 43.8116L35.243 44.4328C35.7594 43.7814 36.3333 43.0796 37.5045 43.0796V42.0796ZM40.5453 43.8061C40.0287 43.1576 39.1874 42.0796 37.5045 42.0796V43.0796C38.6705 43.0796 39.2443 43.7779 39.7631 44.4291L40.5453 43.8061ZM40.549 43.8108L40.5453 43.8062L39.763 44.429L39.7667 44.4336L40.549 43.8108ZM41.1939 44.403C41.1156 44.403 41.088 44.394 41.0288 44.3481C40.9316 44.2727 40.7993 44.1263 40.5495 43.8114L39.7661 44.433C40.0041 44.7328 40.2078 44.9768 40.4158 45.1382C40.6617 45.3289 40.9084 45.403 41.1939 45.403V44.403ZM41.8364 43.8131C41.5861 44.1273 41.4544 44.2733 41.3575 44.3486C41.2989 44.3941 41.2721 44.403 41.1939 44.403V45.403C41.4796 45.403 41.7257 45.3288 41.971 45.1382C42.178 44.9774 42.3811 44.7342 42.6185 44.4361L41.8364 43.8131ZM41.84 43.8086L41.8364 43.8131L42.6185 44.4362L42.6221 44.4316L41.84 43.8086ZM44.8833 42.082C43.1981 42.082 42.3568 43.1598 41.84 43.8085L42.6221 44.4316C43.1407 43.7806 43.7146 43.082 44.8833 43.082V42.082ZM47.924 43.8085C47.4074 43.16 46.5661 42.082 44.8833 42.082V43.082C46.0492 43.082 46.623 43.7803 47.1419 44.4316L47.924 43.8085ZM47.9277 43.8131L47.9241 43.8086L47.1418 44.4315L47.1455 44.4361L47.9277 43.8131ZM48.5701 44.403C48.4916 44.403 48.4641 44.3939 48.4052 44.3483C48.3086 44.2733 48.1769 44.1276 47.9285 43.8141L47.1447 44.4352C47.3814 44.7339 47.5846 44.9774 47.7924 45.1385C48.0381 45.329 48.2848 45.403 48.5701 45.403V44.403ZM49.2145 43.8114C48.9647 44.1262 48.8324 44.2727 48.7352 44.3481C48.676 44.394 48.6485 44.403 48.5701 44.403V45.403C48.8557 45.403 49.1023 45.3289 49.3482 45.1381C49.5562 44.9768 49.76 44.7328 49.9979 44.433L49.2145 43.8114ZM52.2595 42.0796C50.573 42.0796 49.7292 43.1621 49.2144 43.8116L49.998 44.4328C50.5142 43.7817 51.0906 43.0796 52.2595 43.0796V42.0796ZM55.3028 43.8061C54.786 43.1573 53.9447 42.0796 52.2595 42.0796V43.0796C53.4282 43.0796 54.002 43.7782 54.5206 44.4291L55.3028 43.8061ZM55.3064 43.8106L55.3028 43.8061L54.5206 44.4292L54.5243 44.4337L55.3064 43.8106ZM55.9489 44.4006C55.8725 44.4006 55.8454 44.392 55.7859 44.3459C55.6887 44.2705 55.5562 44.1242 55.3064 43.8107L54.5242 44.4337C54.7622 44.7324 54.9658 44.9754 55.1731 45.1361C55.4181 45.3261 55.6639 45.4006 55.9489 45.4006V44.4006ZM56.103 44.884C55.913 44.4215 55.9132 44.4214 55.9134 44.4213C55.9135 44.4213 55.9137 44.4212 55.9139 44.4211C55.9142 44.421 55.9145 44.4209 55.9147 44.4208C55.9153 44.4205 55.9159 44.4203 55.9165 44.4201C55.9177 44.4196 55.9188 44.4191 55.92 44.4187C55.9223 44.4178 55.9245 44.4169 55.9267 44.4161C55.9311 44.4145 55.9352 44.413 55.9392 44.4116C55.9471 44.4089 55.9541 44.4068 55.9602 44.4051C55.9723 44.4017 55.9807 44.4001 55.9844 44.3994C55.9917 44.3982 55.9817 44.4006 55.9489 44.4006V45.4006C56.0298 45.4006 56.0968 45.3947 56.1528 45.3851C56.1808 45.3803 56.2064 45.3746 56.2296 45.3681C56.2413 45.3648 56.2524 45.3614 56.2629 45.3578C56.2682 45.3559 56.2734 45.3541 56.2784 45.3522C56.2809 45.3513 56.2834 45.3503 56.2858 45.3494C56.287 45.3489 56.2883 45.3484 56.2895 45.3479C56.2901 45.3477 56.2907 45.3474 56.2913 45.3472C56.2916 45.3471 56.2919 45.3469 56.2922 45.3468C56.2923 45.3467 56.2925 45.3467 56.2926 45.3466C56.2928 45.3465 56.2931 45.3464 56.103 44.884ZM55.8131 44.2618C55.7857 44.3437 55.7542 44.4381 55.7244 44.5176C55.7094 44.5577 55.6976 44.5866 55.6894 44.6043C55.6853 44.6132 55.6847 44.6138 55.6874 44.609C55.6889 44.6064 55.6928 44.5997 55.6991 44.5905C55.7049 44.582 55.7167 44.5654 55.735 44.5455L56.4711 45.2224C56.543 45.1442 56.5853 45.0498 56.5984 45.0211C56.6209 44.9721 56.6422 44.9182 56.6608 44.8686C56.6982 44.7689 56.7356 44.6566 56.7617 44.5782L55.8131 44.2618Z" fill="#222532"/>
<path d="M7.23933 31.1358C7.11947 30.991 6.029 29.7308 4.63301 29.7308C3.98672 29.7308 3.06308 29.999 2.3369 31.2735L1.52606 32.6974H8.54123L7.23933 31.1358Z" fill="white" stroke="#222532"/>
<path fill-rule="evenodd" clip-rule="evenodd" d="M5.41605 34.5745L6.38199 34.6766L6.25982 35.6496C5.90491 38.2791 3.15991 41.0535 3.04241 41.1721L1.77095 42.4442L1.45603 40.6643C1.08235 38.5711 1.34791 36.962 2.24334 35.8822C3.49596 34.3704 5.41605 34.5745 5.41605 34.5745ZM3.68841 37.0997C3.52165 37.2991 3.39718 37.553 3.31028 37.8521L3.31029 37.8521C3.50992 37.5507 3.7025 37.235 3.86691 36.917C3.80584 36.9716 3.74478 37.0309 3.68841 37.0997Z" fill="white"/>
<path d="M6.38199 34.6766L6.87809 34.7389L6.94162 34.2329L6.43452 34.1794L6.38199 34.6766ZM5.41605 34.5745L5.36319 35.0717L5.36351 35.0718L5.41605 34.5745ZM6.25982 35.6496L6.75534 35.7165L6.75592 35.7119L6.25982 35.6496ZM3.04241 41.1721L3.39605 41.5256L3.39768 41.5239L3.04241 41.1721ZM1.77095 42.4442L1.2786 42.5313L1.44587 43.4767L2.12459 42.7977L1.77095 42.4442ZM1.45603 40.6643L1.94838 40.5772L1.94825 40.5764L1.45603 40.6643ZM2.24334 35.8822L2.62822 36.2013L2.62834 36.2012L2.24334 35.8822ZM3.31028 37.8521L2.83014 37.7125L2.77614 37.8984L2.86132 38.0721L3.31028 37.8521ZM3.68841 37.0997L4.07195 37.4205L4.07523 37.4165L3.68841 37.0997ZM3.31029 37.8521L2.86133 38.0722L3.24536 38.8556L3.72714 38.1282L3.31029 37.8521ZM3.86691 36.917L4.31107 37.1466L3.53371 36.5442L3.86691 36.917ZM6.43452 34.1794L5.46858 34.0773L5.36351 35.0718L6.32945 35.1738L6.43452 34.1794ZM6.75592 35.7119L6.87809 34.7389L5.88588 34.6143L5.76371 35.5873L6.75592 35.7119ZM3.39768 41.5239C3.46472 41.4562 4.20089 40.7118 4.96811 39.6442C5.72592 38.5897 6.56097 37.1564 6.75532 35.7165L5.76431 35.5827C5.60375 36.7723 4.88885 38.041 4.15605 39.0607C3.43268 40.0672 2.7376 40.7693 2.68713 40.8203L3.39768 41.5239ZM2.12459 42.7977L3.39605 41.5256L2.68876 40.8187L1.41731 42.0907L2.12459 42.7977ZM0.963674 40.7514L1.2786 42.5313L2.2633 42.3571L1.94838 40.5772L0.963674 40.7514ZM1.85846 35.563C0.829318 36.804 0.577706 38.5894 0.963809 40.7521L1.94825 40.5764C1.58699 38.5528 1.86651 37.1199 2.62822 36.2013L1.85846 35.563ZM5.41605 34.5745C5.4689 34.0773 5.46868 34.0773 5.46846 34.0773C5.46838 34.0773 5.46815 34.0773 5.46798 34.0772C5.46765 34.0772 5.46729 34.0772 5.46689 34.0771C5.4661 34.077 5.4652 34.077 5.46417 34.0769C5.46212 34.0766 5.4596 34.0764 5.45661 34.0761C5.45065 34.0756 5.44282 34.0749 5.43323 34.0741C5.41405 34.0726 5.38775 34.0709 5.35498 34.0693C5.2895 34.0662 5.19784 34.0639 5.08522 34.0664C4.86064 34.0714 4.549 34.0958 4.19354 34.1728C3.48333 34.3267 2.57637 34.6966 1.85833 35.5632L2.62834 36.2012C3.16293 35.556 3.84232 35.2721 4.40531 35.1501C4.68645 35.0892 4.93312 35.0701 5.1077 35.0661C5.19466 35.0642 5.26279 35.066 5.30721 35.0681C5.32939 35.0692 5.34556 35.0703 5.35512 35.0711C5.3599 35.0715 5.36301 35.0717 5.36439 35.0719C5.36507 35.0719 5.36532 35.072 5.36513 35.0719C5.36503 35.0719 5.36482 35.0719 5.3645 35.0719C5.36434 35.0719 5.36415 35.0718 5.36393 35.0718C5.36382 35.0718 5.36364 35.0718 5.36358 35.0718C5.36339 35.0718 5.36319 35.0717 5.41605 34.5745ZM3.79042 37.9916C3.86335 37.7406 3.96042 37.5539 4.07193 37.4205L3.30489 36.7789C3.08289 37.0443 2.93101 37.3654 2.83014 37.7125L3.79042 37.9916ZM3.75925 37.632L3.75924 37.632L2.86132 38.0721L2.86133 38.0722L3.75925 37.632ZM3.42275 36.6874C3.26904 36.9847 3.08657 37.2844 2.89343 37.576L3.72714 38.1282C3.93327 37.817 4.13597 37.4853 4.31107 37.1466L3.42275 36.6874ZM4.07523 37.4165C4.109 37.3753 4.14932 37.3352 4.20011 37.2898L3.53371 36.5442C3.46236 36.608 3.38055 36.6865 3.30159 36.7829L4.07523 37.4165Z" fill="#222532"/>
<path fill-rule="evenodd" clip-rule="evenodd" d="M12.654 29.2913C12.654 30.2833 11.8526 31.0902 10.8702 31.0902C9.88785 31.0902 9.08881 30.2833 9.08881 29.2913C9.08881 28.2993 9.88785 27.4924 10.8702 27.4924C11.8549 27.4924 12.654 28.2993 12.654 29.2913ZM10.9688 29.2913C10.9688 29.2367 10.9242 29.1917 10.8702 29.1917C10.8161 29.1917 10.7739 29.2367 10.7739 29.2913C10.7739 29.4005 10.9688 29.4005 10.9688 29.2913Z" fill="white"/>
<path d="M10.8702 31.5902C12.1325 31.5902 13.154 30.5557 13.154 29.2913H12.154C12.154 30.011 11.5727 30.5902 10.8702 30.5902V31.5902ZM8.58881 29.2913C8.58881 30.5549 9.60711 31.5902 10.8702 31.5902V30.5902C10.1686 30.5902 9.58881 30.0118 9.58881 29.2913H8.58881ZM10.8702 26.9924C9.60711 26.9924 8.58881 28.0278 8.58881 29.2913H9.58881C9.58881 28.5708 10.1686 27.9924 10.8702 27.9924V26.9924ZM13.154 29.2913C13.154 28.0274 12.1352 26.9924 10.8702 26.9924V27.9924C11.5746 27.9924 12.154 28.5713 12.154 29.2913H13.154ZM10.8702 29.6917C10.6431 29.6917 10.4688 29.508 10.4688 29.2913H11.4688C11.4688 28.9655 11.2052 28.6917 10.8702 28.6917V29.6917ZM11.2739 29.2913C11.2739 29.4921 11.1127 29.6917 10.8702 29.6917V28.6917C10.5196 28.6917 10.2739 28.9814 10.2739 29.2913H11.2739ZM10.4688 29.2913C10.4688 29.1495 10.5404 29.0258 10.6392 28.9521C10.7237 28.889 10.8102 28.8732 10.8713 28.8732C10.9324 28.8732 11.019 28.889 11.1035 28.9521C11.2022 29.0258 11.2739 29.1495 11.2739 29.2913H10.2739C10.2739 29.4877 10.3699 29.6523 10.5052 29.7534C10.6262 29.8437 10.7615 29.8732 10.8713 29.8732C10.9812 29.8732 11.1165 29.8437 11.2375 29.7534C11.3728 29.6523 11.4688 29.4877 11.4688 29.2913H10.4688Z" fill="#222532"/>
</svg>
