<svg width="51" height="33" viewBox="0 0 51 33" fill="none" xmlns="http://www.w3.org/2000/svg">
<path fill-rule="evenodd" clip-rule="evenodd" d="M48.967 22.0805V24.8117L48.9666 24.8118C49.5379 24.9271 49.9684 25.4249 49.9684 26.0169V26.999C49.9684 27.5948 49.5379 28.0907 48.9666 28.206V28.231H42.3904C42.0264 30.4585 40.064 32.1672 37.6965 32.1672C35.329 32.1672 33.3665 30.4585 33.0045 28.231H15.5926C15.2286 30.4585 13.2662 32.1672 10.8987 32.1672C8.53115 32.1672 6.56673 30.4566 6.20476 28.231H2.38351L1.63413 28.2329C0.941493 28.2329 0.379944 27.6794 0.379944 27.0009V26.0188C0.379944 25.3384 0.943447 24.7868 1.63413 24.7868H2.38351V13.7182C2.38351 10.3259 5.19326 7.56589 8.64665 7.56589L14.4264 7.56204V5.5997C8.33009 5.0289 3.16445 3.96219 1.60112 2.42652C1.36828 2.19975 1.31349 1.84993 1.46611 1.56356C1.61873 1.2791 1.93963 1.1215 2.26443 1.17916C7.2498 2.05557 15.0021 2.17281 21.9244 2.17281C23.3958 2.17281 24.8418 2.16897 26.2309 2.1632C26.5845 2.16215 26.9344 2.16095 27.2802 2.15976C28.1955 2.15663 29.0822 2.15359 29.9328 2.15359L36.3818 2.15551H36.3837C40.749 2.15551 43.4373 2.12668 46.924 1.95947C47.2684 1.94599 47.5873 2.1651 47.6832 2.49376C47.779 2.82243 47.6323 3.17416 47.329 3.34137C46.8262 3.61814 46.2 3.87567 45.4585 4.114V5.6074C45.4585 6.27242 45.0984 6.84707 44.4939 7.1469C44.2376 7.27375 43.9676 7.33718 43.6995 7.33718C43.3356 7.33718 42.9736 7.22185 42.6605 6.99314L40.2363 5.22687C37.1488 5.66893 33.3257 5.94954 28.9312 6.04948V7.56783L34.1886 7.56591C37.5385 7.56591 40.628 8.66721 43.1089 10.5181L43.3144 10.6757C45.3903 12.2804 47.0182 14.4195 47.9828 16.8816L47.9887 16.8931L48.0024 16.9258C48.016 16.9639 48.0308 17.0009 48.0455 17.0376L48.0455 17.0377L48.0455 17.0378L48.0456 17.038L48.0456 17.0381C48.0583 17.0698 48.0709 17.1014 48.0826 17.1334L48.382 17.8964H48.339C48.7459 19.2226 48.967 20.6275 48.967 22.0805ZM35.1926 16.4222H46.1436H46.1439C45.3025 14.7175 44.0894 13.2048 42.5848 11.994H35.1926C35.0576 11.994 34.9422 12.1074 34.9422 12.24V16.1762C34.9422 16.3088 35.0576 16.4222 35.1926 16.4222ZM43.9581 5.60741C43.9581 5.70927 43.9131 5.78231 43.8192 5.82844C43.7253 5.87456 43.6411 5.86688 43.557 5.80537L42.2969 4.88858C42.8878 4.77711 43.4416 4.65794 43.9581 4.53301L43.9581 5.60741ZM25.2656 3.64413L25.2654 3.64413C24.177 3.64746 23.0601 3.65087 21.9269 3.65087L21.9273 3.65083C17.4799 3.65083 12.69 3.60086 8.48141 3.3337C12.5236 4.0833 18.3369 4.61376 25.1751 4.61376C31.4593 4.61376 36.9557 4.25246 40.9452 3.61627C39.5853 3.63165 38.1159 3.63741 36.3863 3.63741H36.3843L29.9333 3.63165C28.7633 3.63165 27.5247 3.63549 26.2373 3.64126L25.2656 3.64413ZM15.9297 5.73233C18.9448 5.96873 22.1262 6.08981 25.1747 6.08981C25.9397 6.08981 26.691 6.08405 27.4287 6.07444V7.56587H15.9297V5.73233ZM7.64349 27.4933C7.64349 29.2576 9.10314 30.6914 10.8993 30.6914C12.6954 30.6914 14.1551 29.2576 14.1551 27.4933C14.1551 25.7289 12.6954 24.2951 10.8993 24.2951C9.10314 24.2951 7.64349 25.7289 7.64349 27.4933ZM37.697 30.6914C35.9008 30.6914 34.4412 29.2576 34.4412 27.4933C34.4412 25.7289 35.9008 24.2951 37.697 24.2951C39.4931 24.2951 40.9528 25.7289 40.9528 27.4933C40.9528 29.2576 39.4931 30.6914 37.697 30.6914ZM37.696 22.8189C40.0635 22.8189 42.0279 24.5276 42.3899 26.7551H48.4651V26.2631H43.9571V24.787H47.4633V22.0828C47.4633 20.6183 47.2129 19.2133 46.759 17.8987H35.1914C34.2248 17.8987 33.4383 17.1261 33.4383 16.1766V12.2404C33.4383 11.2909 34.2248 10.5183 35.1914 10.5183H40.312C38.4784 9.57842 36.3946 9.04221 34.1876 9.04221H8.64615C6.02038 9.04221 3.88573 11.141 3.88573 13.7184V16.4226H11.4342V17.8987H3.88573V24.787H4.88751V26.2631H1.88216V26.7551H6.2043C6.56825 24.5276 8.53069 22.8189 10.8982 22.8189C13.2657 22.8189 15.2301 24.5276 15.5921 26.7551H33.0021C33.366 24.5276 35.3285 22.8189 37.696 22.8189Z" fill="white"/>
<path d="M48.967 24.8117L49.0357 25.0521L49.217 25.0002V24.8117H48.967ZM48.9666 24.8118L48.8979 24.5714L48.9171 25.0569L48.9666 24.8118ZM48.9666 28.206L48.9171 27.9609L48.7166 28.0014V28.206H48.9666ZM48.9666 28.231V28.481H49.2166V28.231H48.9666ZM42.3904 28.231V27.981H42.1779L42.1437 28.1907L42.3904 28.231ZM33.0045 28.231L33.2513 28.1909L33.2172 27.981H33.0045V28.231ZM15.5926 28.231V27.981H15.3801L15.3458 28.1907L15.5926 28.231ZM6.20476 28.231L6.45152 28.1908L6.41738 27.981H6.20476V28.231ZM2.38351 28.231L2.38351 27.981L2.38287 27.981L2.38351 28.231ZM1.63413 28.2329L1.63413 28.4829L1.63477 28.4829L1.63413 28.2329ZM2.38351 24.7868V25.0368H2.63351V24.7868H2.38351ZM8.64665 7.56589L8.64665 7.81589L8.64682 7.81589L8.64665 7.56589ZM14.4264 7.56204L14.4266 7.81204L14.6764 7.81188V7.56204H14.4264ZM14.4264 5.5997H14.6764V5.37201L14.4497 5.35079L14.4264 5.5997ZM1.60112 2.42652L1.77631 2.24817L1.77555 2.24743L1.60112 2.42652ZM1.46611 1.56356L1.24582 1.44536L1.24549 1.44598L1.46611 1.56356ZM2.26443 1.17916L2.22073 1.42532L2.22115 1.42539L2.26443 1.17916ZM26.2309 2.1632L26.2302 1.9132L26.2299 1.9132L26.2309 2.1632ZM27.2802 2.15976L27.281 2.40976L27.2802 2.15976ZM29.9328 2.15359L29.9329 1.90359H29.9328V2.15359ZM36.3818 2.15551L36.3817 2.40551H36.3818V2.15551ZM46.924 1.95947L46.9142 1.70965L46.912 1.70976L46.924 1.95947ZM47.6832 2.49376L47.9231 2.42375L47.9231 2.42375L47.6832 2.49376ZM47.329 3.34137L47.4496 3.56039L47.4497 3.5603L47.329 3.34137ZM45.4585 4.114L45.382 3.87599L45.2085 3.93175V4.114H45.4585ZM44.4939 7.1469L44.6048 7.37096L44.6049 7.37087L44.4939 7.1469ZM42.6605 6.99314L42.808 6.79128L42.8078 6.79108L42.6605 6.99314ZM40.2363 5.22687L40.3836 5.02481L40.3015 4.96499L40.2009 4.97939L40.2363 5.22687ZM28.9312 6.04948L28.9255 5.79955L28.6812 5.80511V6.04948H28.9312ZM28.9312 7.56783H28.6812V7.81792L28.9313 7.81783L28.9312 7.56783ZM34.1886 7.56591L34.1886 7.31591L34.1885 7.31591L34.1886 7.56591ZM43.1089 10.5181L43.2611 10.3197L43.2584 10.3177L43.1089 10.5181ZM43.3144 10.6757L43.4673 10.4779L43.4666 10.4773L43.3144 10.6757ZM47.9828 16.8816L47.7501 16.9728L47.7545 16.9841L47.7601 16.995L47.9828 16.8816ZM47.9887 16.8931L48.2193 16.7965L48.2157 16.7879L48.2115 16.7797L47.9887 16.8931ZM48.0024 16.9258L48.2381 16.8415L48.233 16.8292L48.0024 16.9258ZM48.0455 17.0376L48.2826 16.9586L48.2803 16.9517L48.2777 16.945L48.0455 17.0376ZM48.0455 17.0377L47.8082 17.1168L47.8112 17.1249L48.0455 17.0377ZM48.0455 17.0378L47.8112 17.125L47.8124 17.1281L48.0455 17.0378ZM48.0456 17.038L48.2799 16.9508L48.2787 16.9477L48.0456 17.038ZM48.0456 17.0381L47.8113 17.1253L47.8134 17.1307L48.0456 17.0381ZM48.0826 17.1334L47.8479 17.2196L47.8499 17.2247L48.0826 17.1334ZM48.382 17.8964V18.1464H48.7486L48.6147 17.8051L48.382 17.8964ZM48.339 17.8964V17.6464H48.0007L48.1 17.9697L48.339 17.8964ZM46.1439 16.4222V16.6722H46.546L46.3681 16.3116L46.1439 16.4222ZM42.5848 11.994L42.7415 11.7992L42.6729 11.744H42.5848V11.994ZM43.9581 5.60741L43.7081 5.60741V5.60741H43.9581ZM43.557 5.80537L43.7045 5.60355L43.7041 5.60322L43.557 5.80537ZM42.2969 4.88858L42.2506 4.64291L41.6818 4.75021L42.1499 5.09073L42.2969 4.88858ZM43.9581 4.53301L44.2081 4.53302L44.2081 4.21534L43.8993 4.29002L43.9581 4.53301ZM25.2654 3.64413L25.2661 3.89413L25.2662 3.89413L25.2654 3.64413ZM25.2656 3.64413L25.2648 3.39413L25.2647 3.39413L25.2656 3.64413ZM21.9269 3.65087L21.9045 3.40187L21.9269 3.90087V3.65087ZM21.9273 3.65083L21.9497 3.89982L21.9273 3.40083V3.65083ZM8.48141 3.3337L8.49725 3.0842L8.43583 3.57951L8.48141 3.3337ZM40.9452 3.61627L40.9845 3.86315L40.9423 3.36629L40.9452 3.61627ZM36.3843 3.63741L36.3841 3.88741H36.3843V3.63741ZM29.9333 3.63165L29.9336 3.38165H29.9333V3.63165ZM26.2373 3.64126L26.238 3.89126L26.2384 3.89125L26.2373 3.64126ZM15.9297 5.73233L15.9493 5.48309L15.6797 5.46196V5.73233H15.9297ZM27.4287 6.07444H27.6787V5.82116L27.4254 5.82446L27.4287 6.07444ZM27.4287 7.56587V7.81587H27.6787V7.56587H27.4287ZM15.9297 7.56587H15.6797V7.81587H15.9297V7.56587ZM42.3899 26.7551L42.1431 26.7952L42.1772 27.0051H42.3899V26.7551ZM48.4651 26.7551V27.0051H48.7151V26.7551H48.4651ZM48.4651 26.2631H48.7151V26.0131H48.4651V26.2631ZM43.9571 26.2631H43.7071V26.5131H43.9571V26.2631ZM43.9571 24.787V24.537H43.7071V24.787H43.9571ZM47.4633 24.787V25.037H47.7133V24.787H47.4633ZM46.759 17.8987L46.9953 17.8171L46.9371 17.6487H46.759V17.8987ZM40.312 10.5183V10.7683L40.426 10.2958L40.312 10.5183ZM3.88573 16.4226H3.63573V16.6726H3.88573V16.4226ZM11.4342 16.4226H11.6842V16.1726H11.4342V16.4226ZM11.4342 17.8987V18.1487H11.6842V17.8987H11.4342ZM3.88573 17.8987V17.6487H3.63573V17.8987H3.88573ZM3.88573 24.787H3.63573V25.037H3.88573V24.787ZM4.88751 24.787H5.13751V24.537H4.88751V24.787ZM4.88751 26.2631V26.5131H5.13751V26.2631H4.88751ZM1.88216 26.2631V26.0131H1.63216V26.2631H1.88216ZM1.88216 26.7551H1.63216V27.0051H1.88216V26.7551ZM6.2043 26.7551V27.0051H6.41677L6.45103 26.7955L6.2043 26.7551ZM15.5921 26.7551L15.3453 26.7952L15.3795 27.0051H15.5921V26.7551ZM33.0021 26.7551V27.0051H33.2146L33.2488 26.7955L33.0021 26.7551ZM49.217 24.8117V22.0805H48.717V24.8117H49.217ZM49.0353 25.0522L49.0357 25.0521L48.8983 24.5713L48.8979 24.5714L49.0353 25.0522ZM50.2184 26.0169C50.2184 25.3001 49.6983 24.7045 49.0161 24.5667L48.9171 25.0569C49.3775 25.1498 49.7184 25.5497 49.7184 26.0169H50.2184ZM50.2184 26.999V26.0169H49.7184V26.999H50.2184ZM49.0161 28.451C49.6983 28.3133 50.2184 27.7196 50.2184 26.999H49.7184C49.7184 27.47 49.3775 27.868 48.9171 27.9609L49.0161 28.451ZM49.2166 28.231V28.206H48.7166V28.231H49.2166ZM42.3904 28.481H48.9666V27.981H42.3904V28.481ZM37.6965 32.4172C40.1861 32.4172 42.2533 30.6202 42.6371 28.2713L42.1437 28.1907C41.7995 30.2968 39.942 31.9172 37.6965 31.9172V32.4172ZM32.7578 28.2711C33.1395 30.6202 35.207 32.4172 37.6965 32.4172V31.9172C35.451 31.9172 33.5935 30.2968 33.2513 28.1909L32.7578 28.2711ZM15.5926 28.481H33.0045V27.981H15.5926V28.481ZM10.8987 32.4172C13.3882 32.4172 15.4555 30.6202 15.8393 28.2713L15.3458 28.1907C15.0017 30.2968 13.1441 31.9172 10.8987 31.9172V32.4172ZM5.958 28.2711C6.33975 30.6183 8.40918 32.4172 10.8987 32.4172V31.9172C8.65311 31.9172 6.79371 30.2949 6.45152 28.1908L5.958 28.2711ZM2.38351 28.481H6.20476V27.981H2.38351V28.481ZM1.63477 28.4829L2.38415 28.481L2.38287 27.981L1.63348 27.9829L1.63477 28.4829ZM0.129944 27.0009C0.129944 27.8214 0.807394 28.4829 1.63413 28.4829V27.9829C1.07559 27.9829 0.629944 27.5374 0.629944 27.0009H0.129944ZM0.129944 26.0188V27.0009H0.629944V26.0188H0.129944ZM1.63413 24.5368C0.809859 24.5368 0.129944 25.1959 0.129944 26.0188H0.629944C0.629944 25.4809 1.07703 25.0368 1.63413 25.0368V24.5368ZM2.38351 24.5368H1.63413V25.0368H2.38351V24.5368ZM2.13351 13.7182V24.7868H2.63351V13.7182H2.13351ZM8.64665 7.31589C5.05942 7.31589 2.13351 10.1836 2.13351 13.7182H2.63351C2.63351 10.4681 5.3271 7.81589 8.64665 7.81589V7.31589ZM14.4263 7.31204L8.64649 7.31589L8.64682 7.81589L14.4266 7.81204L14.4263 7.31204ZM14.1764 5.5997V7.56204H14.6764V5.5997H14.1764ZM1.42593 2.60487C1.85092 3.02234 2.50192 3.39182 3.31318 3.72152C4.12847 4.05287 5.12459 4.3515 6.25655 4.61827C8.52071 5.15186 11.3486 5.56261 14.4031 5.84861L14.4497 5.35079C11.4079 5.06598 8.60482 4.65798 6.37124 4.1316C5.25433 3.86838 4.28489 3.57672 3.50143 3.25832C2.71393 2.93827 2.13298 2.59854 1.77631 2.24818L1.42593 2.60487ZM1.24549 1.44598C1.04041 1.83079 1.1144 2.30146 1.42669 2.60562L1.77555 2.24743C1.62216 2.09804 1.58658 1.86907 1.68674 1.68114L1.24549 1.44598ZM2.30813 0.933013C1.87707 0.856487 1.4496 1.06556 1.24582 1.44536L1.68641 1.68176C1.78787 1.49265 2.0022 1.38652 2.22073 1.42532L2.30813 0.933013ZM21.9244 1.92281C14.9969 1.92281 7.26756 1.80486 2.30772 0.93294L2.22115 1.42539C7.23204 2.30628 15.0073 2.42281 21.9244 2.42281V1.92281ZM26.2299 1.9132C24.841 1.91897 23.3954 1.92281 21.9244 1.92281V2.42281C23.3962 2.42281 24.8425 2.41897 26.232 2.4132L26.2299 1.9132ZM27.2793 1.90976C26.9335 1.91095 26.5837 1.91215 26.2302 1.9132L26.2317 2.4132C26.5853 2.41215 26.9352 2.41095 27.281 2.40976L27.2793 1.90976ZM29.9328 1.90359C29.0817 1.90359 28.1945 1.90663 27.2793 1.90976L27.281 2.40976C28.1964 2.40663 29.0827 2.40359 29.9328 2.40359V1.90359ZM36.3819 1.90551L29.9329 1.90359L29.9327 2.40359L36.3817 2.40551L36.3819 1.90551ZM36.3837 1.90551H36.3818V2.40551H36.3837V1.90551ZM46.912 1.70976C43.4313 1.87668 40.7477 1.90551 36.3837 1.90551V2.40551C40.7504 2.40551 43.4434 2.37668 46.936 2.20918L46.912 1.70976ZM47.9231 2.42375C47.7935 1.97932 47.3673 1.69192 46.9142 1.70966L46.9338 2.20928C47.1694 2.20005 47.381 2.35088 47.4432 2.56377L47.9231 2.42375ZM47.4497 3.5603C47.854 3.33742 48.0523 2.86645 47.9231 2.42375L47.4432 2.56377C47.5058 2.77841 47.4106 3.01091 47.2083 3.12244L47.4497 3.5603ZM45.535 4.35201C46.2864 4.11052 46.9284 3.84722 47.4496 3.56039L47.2085 3.12236C46.7239 3.38906 46.1137 3.64083 45.382 3.87599L45.535 4.35201ZM45.7085 5.6074V4.114H45.2085V5.6074H45.7085ZM44.6049 7.37087C45.293 7.02963 45.7085 6.36918 45.7085 5.6074H45.2085C45.2085 6.17567 44.9039 6.66451 44.3828 6.92293L44.6049 7.37087ZM43.6995 7.58718C44.0075 7.58718 44.3153 7.51423 44.6048 7.37096L44.383 6.92284C44.1598 7.03327 43.9277 7.08718 43.6995 7.08718V7.58718ZM42.5131 7.19501C42.8686 7.45472 43.2821 7.58718 43.6995 7.58718V7.08718C43.3891 7.08718 43.0787 6.98899 42.808 6.79128L42.5131 7.19501ZM40.0891 5.42892L42.5133 7.1952L42.8078 6.79108L40.3836 5.02481L40.0891 5.42892ZM28.9369 6.29942C33.3379 6.19933 37.1715 5.91824 40.2718 5.47434L40.2009 4.97939C37.1262 5.41962 33.3136 5.69976 28.9255 5.79955L28.9369 6.29942ZM29.1812 7.56783V6.04948H28.6812V7.56783H29.1812ZM34.1885 7.31591L28.9311 7.31783L28.9313 7.81783L34.1887 7.81591L34.1885 7.31591ZM43.2584 10.3177C40.7357 8.43568 37.5942 7.31591 34.1886 7.31591V7.81591C37.4829 7.81591 40.5202 8.89874 42.9595 10.7184L43.2584 10.3177ZM43.4666 10.4773L43.2611 10.3197L42.9568 10.7164L43.1622 10.874L43.4666 10.4773ZM48.2156 16.7904C47.2341 14.2852 45.5781 12.1095 43.4673 10.4779L43.1615 10.8735C45.2026 12.4512 46.8024 14.5539 47.7501 16.9728L48.2156 16.7904ZM48.2115 16.7797L48.2056 16.7682L47.7601 16.995L47.7659 17.0065L48.2115 16.7797ZM48.233 16.8292L48.2193 16.7965L47.7582 16.9898L47.7718 17.0224L48.233 16.8292ZM48.2777 16.945C48.2627 16.9076 48.2497 16.8747 48.2378 16.8416L47.767 17.01C47.7824 17.053 47.7988 17.0941 47.8133 17.1303L48.2777 16.945ZM48.2827 16.9586L48.2826 16.9586L47.8083 17.1167L47.8083 17.1167L48.2827 16.9586ZM48.2798 16.9506L48.2798 16.9505L47.8112 17.1249L47.8112 17.125L48.2798 16.9506ZM48.2787 16.9477L48.2787 16.9476L47.8124 17.1281L47.8125 17.1282L48.2787 16.9477ZM48.2799 16.9509L48.2799 16.9508L47.8113 17.1252L47.8113 17.1253L48.2799 16.9509ZM48.3173 17.0471C48.3042 17.0114 48.2903 16.9767 48.2778 16.9455L47.8134 17.1307C47.8263 17.163 47.8376 17.1914 47.848 17.2196L48.3173 17.0471ZM48.6147 17.8051L48.3154 17.0421L47.8499 17.2247L48.1493 17.9877L48.6147 17.8051ZM48.339 18.1464H48.382V17.6464H48.339V18.1464ZM49.217 22.0805C49.217 20.602 48.992 19.1724 48.578 17.8231L48.1 17.9697C48.4998 19.2727 48.717 20.653 48.717 22.0805H49.217ZM46.1436 16.1722H35.1926V16.6722H46.1436V16.1722ZM46.1439 16.1722H46.1436V16.6722H46.1439V16.1722ZM42.4281 12.1888C43.9046 13.377 45.0946 14.861 45.9197 16.5329L46.3681 16.3116C45.5105 14.5739 44.2742 13.0327 42.7415 11.7992L42.4281 12.1888ZM35.1926 12.244H42.5848V11.744H35.1926V12.244ZM35.1922 12.24C35.1922 12.2474 35.1892 12.2484 35.192 12.2456C35.1948 12.2429 35.1958 12.244 35.1926 12.244V11.744C34.9238 11.744 34.6922 11.9651 34.6922 12.24H35.1922ZM35.1922 16.1762V12.24H34.6922V16.1762H35.1922ZM35.1926 16.1722C35.1958 16.1722 35.1948 16.1734 35.192 16.1706C35.1892 16.1678 35.1922 16.1688 35.1922 16.1762H34.6922C34.6922 16.4511 34.9238 16.6722 35.1926 16.6722V16.1722ZM43.9294 6.05283C44.0097 6.01338 44.0836 5.95492 44.1358 5.87139C44.1881 5.78777 44.2081 5.69605 44.2081 5.60741H43.7081C43.7081 5.6145 43.7073 5.61678 43.7076 5.61558C43.708 5.61409 43.7092 5.61052 43.7119 5.60626C43.7145 5.602 43.7171 5.59956 43.7179 5.59889C43.7184 5.59842 43.7161 5.60052 43.709 5.60404L43.9294 6.05283ZM43.4094 6.0072C43.4801 6.05887 43.5646 6.09761 43.6623 6.10629C43.76 6.11497 43.8503 6.09169 43.9294 6.05283L43.709 5.60404C43.7011 5.60788 43.6976 5.60857 43.698 5.6085C43.6987 5.60835 43.7019 5.60783 43.7065 5.60825C43.7112 5.60866 43.7142 5.60972 43.7147 5.60995C43.715 5.61005 43.7116 5.60871 43.7045 5.60355L43.4094 6.0072ZM42.1499 5.09073L43.4099 6.00753L43.7041 5.60322L42.444 4.68643L42.1499 5.09073ZM43.8993 4.29002C43.3872 4.4139 42.8376 4.53218 42.2506 4.64291L42.3433 5.13425C42.9381 5.02204 43.496 4.90199 44.0169 4.77601L43.8993 4.29002ZM44.2081 5.60741L44.2081 4.53302L43.7081 4.53301L43.7081 5.60741L44.2081 5.60741ZM25.2662 3.89413L25.2664 3.89413L25.2647 3.39413L25.2645 3.39413L25.2662 3.89413ZM21.9269 3.90087C23.0605 3.90087 24.1779 3.89745 25.2661 3.89413L25.2646 3.39413C24.1762 3.39746 23.0596 3.40087 21.9269 3.40087V3.90087ZM21.905 3.40183L21.9045 3.40187L21.9492 3.89986L21.9497 3.89982L21.905 3.40183ZM8.46557 3.5832C12.6826 3.85089 17.4792 3.90083 21.9273 3.90083V3.40083C17.4806 3.40083 12.6975 3.35082 8.49725 3.0842L8.46557 3.5832ZM25.1751 4.36376C18.3482 4.36376 12.5506 3.83405 8.52699 3.08789L8.43583 3.57951C12.4966 4.33255 18.3257 4.86376 25.1751 4.86376V4.36376ZM40.9058 3.36939C36.9339 4.00278 31.4517 4.36376 25.1751 4.36376V4.86376C31.4669 4.86376 36.9775 4.50214 40.9845 3.86315L40.9058 3.36939ZM36.3863 3.88741C38.1164 3.88741 39.5868 3.88165 40.948 3.86626L40.9423 3.36629C39.5838 3.38165 38.1154 3.38741 36.3863 3.38741V3.88741ZM36.3843 3.88741H36.3863V3.38741H36.3843V3.88741ZM29.9331 3.88165L36.3841 3.88741L36.3845 3.38741L29.9336 3.38165L29.9331 3.88165ZM26.2384 3.89125C27.5257 3.88549 28.7638 3.88165 29.9333 3.88165V3.38165C28.7628 3.38165 27.5238 3.38549 26.2362 3.39126L26.2384 3.89125ZM25.2663 3.89413L26.238 3.89126L26.2366 3.39126L25.2648 3.39413L25.2663 3.89413ZM25.1747 5.83981C22.1325 5.83981 18.9577 5.71897 15.9493 5.48309L15.9102 5.98156C18.932 6.21849 22.1199 6.33981 25.1747 6.33981V5.83981ZM27.4254 5.82446C26.6887 5.83406 25.9384 5.83981 25.1747 5.83981V6.33981C25.9409 6.33981 26.6934 6.33404 27.4319 6.32442L27.4254 5.82446ZM27.6787 7.56587V6.07444H27.1787V7.56587H27.6787ZM15.9297 7.81587H27.4287V7.31587H15.9297V7.81587ZM15.6797 5.73233V7.56587H16.1797V5.73233H15.6797ZM10.8993 30.4414C9.23698 30.4414 7.89349 29.1154 7.89349 27.4933H7.39349C7.39349 29.3999 8.96929 30.9414 10.8993 30.9414V30.4414ZM13.9051 27.4933C13.9051 29.1154 12.5616 30.4414 10.8993 30.4414V30.9414C12.8293 30.9414 14.4051 29.3999 14.4051 27.4933H13.9051ZM10.8993 24.5451C12.5616 24.5451 13.9051 25.8712 13.9051 27.4933H14.4051C14.4051 25.5866 12.8293 24.0451 10.8993 24.0451V24.5451ZM7.89349 27.4933C7.89349 25.8712 9.23698 24.5451 10.8993 24.5451V24.0451C8.96929 24.0451 7.39349 25.5866 7.39349 27.4933H7.89349ZM34.1912 27.4933C34.1912 29.3999 35.767 30.9414 37.697 30.9414V30.4414C36.0347 30.4414 34.6912 29.1154 34.6912 27.4933H34.1912ZM37.697 24.0451C35.767 24.0451 34.1912 25.5866 34.1912 27.4933H34.6912C34.6912 25.8712 36.0347 24.5451 37.697 24.5451V24.0451ZM41.2028 27.4933C41.2028 25.5866 39.627 24.0451 37.697 24.0451V24.5451C39.3593 24.5451 40.7028 25.8712 40.7028 27.4933H41.2028ZM37.697 30.9414C39.627 30.9414 41.2028 29.3999 41.2028 27.4933H40.7028C40.7028 29.1154 39.3593 30.4414 37.697 30.4414V30.9414ZM42.6367 26.715C42.2549 24.3658 40.1854 22.5689 37.696 22.5689V23.0689C39.9416 23.0689 41.8009 24.6894 42.1431 26.7952L42.6367 26.715ZM48.4651 26.5051H42.3899V27.0051H48.4651V26.5051ZM48.2151 26.2631V26.7551H48.7151V26.2631H48.2151ZM43.9571 26.5131H48.4651V26.0131H43.9571V26.5131ZM43.7071 24.787V26.2631H44.2071V24.787H43.7071ZM47.4633 24.537H43.9571V25.037H47.4633V24.537ZM47.2133 22.0828V24.787H47.7133V22.0828H47.2133ZM46.5227 17.9803C46.9679 19.2696 47.2133 20.647 47.2133 22.0828H47.7133C47.7133 20.5895 47.4579 19.157 46.9953 17.8171L46.5227 17.9803ZM35.1914 18.1487H46.759V17.6487H35.1914V18.1487ZM33.1883 16.1766C33.1883 17.2683 34.091 18.1487 35.1914 18.1487V17.6487C34.3587 17.6487 33.6883 16.9838 33.6883 16.1766H33.1883ZM33.1883 12.2404V16.1766H33.6883V12.2404H33.1883ZM35.1914 10.2683C34.091 10.2683 33.1883 11.1487 33.1883 12.2404H33.6883C33.6883 11.4332 34.3587 10.7683 35.1914 10.7683V10.2683ZM40.312 10.2683H35.1914V10.7683H40.312V10.2683ZM34.1876 9.29221C36.3538 9.29221 38.3986 9.81842 40.198 10.7408L40.426 10.2958C38.5583 9.33842 36.4355 8.79221 34.1876 8.79221V9.29221ZM8.64615 9.29221H34.1876V8.79221H8.64615V9.29221ZM4.13573 13.7184C4.13573 11.2832 6.15429 9.29221 8.64615 9.29221V8.79221C5.88646 8.79221 3.63573 10.9988 3.63573 13.7184H4.13573ZM4.13573 16.4226V13.7184H3.63573V16.4226H4.13573ZM11.4342 16.1726H3.88573V16.6726H11.4342V16.1726ZM11.6842 17.8987V16.4226H11.1842V17.8987H11.6842ZM3.88573 18.1487H11.4342V17.6487H3.88573V18.1487ZM4.13573 24.787V17.8987H3.63573V24.787H4.13573ZM4.88751 24.537H3.88573V25.037H4.88751V24.537ZM5.13751 26.2631V24.787H4.63751V26.2631H5.13751ZM1.88216 26.5131H4.88751V26.0131H1.88216V26.5131ZM2.13216 26.7551V26.2631H1.63216V26.7551H2.13216ZM6.2043 26.5051H1.88216V27.0051H6.2043V26.5051ZM10.8982 22.5689C8.40865 22.5689 6.34135 24.3659 5.95757 26.7148L6.45103 26.7955C6.79515 24.6893 8.65274 23.0689 10.8982 23.0689V22.5689ZM15.8389 26.715C15.4571 24.3658 13.3876 22.5689 10.8982 22.5689V23.0689C13.1438 23.0689 15.0031 24.6894 15.3453 26.7952L15.8389 26.715ZM33.0021 26.5051H15.5921V27.0051H33.0021V26.5051ZM37.696 22.5689C35.2064 22.5689 33.1391 24.3659 32.7554 26.7148L33.2488 26.7955C33.5929 24.6893 35.4505 23.0689 37.696 23.0689V22.5689Z" fill="#222532"/>
<path fill-rule="evenodd" clip-rule="evenodd" d="M22.9207 12.24V16.1762C22.9207 17.1257 22.1341 17.8983 21.1675 17.8983H16.1586C15.1921 17.8983 14.4055 17.1257 14.4055 16.1762V12.24C14.4055 11.2906 15.1921 10.5179 16.1586 10.5179H21.1675C22.1341 10.5179 22.9207 11.2906 22.9207 12.24ZM15.9072 12.24V16.1762C15.9072 16.3108 16.0226 16.4222 16.1576 16.4222H21.1666C21.3016 16.4222 21.417 16.3088 21.417 16.1762V12.24C21.417 12.1074 21.3016 11.994 21.1666 11.994H16.1576C16.0226 11.994 15.9072 12.1074 15.9072 12.24Z" fill="white"/>
<path d="M23.1707 16.1762V12.24H22.6707V16.1762H23.1707ZM21.1675 18.1483C22.268 18.1483 23.1707 17.268 23.1707 16.1762H22.6707C22.6707 16.9834 22.0003 17.6483 21.1675 17.6483V18.1483ZM16.1586 18.1483H21.1675V17.6483H16.1586V18.1483ZM14.1555 16.1762C14.1555 17.268 15.0582 18.1483 16.1586 18.1483V17.6483C15.3259 17.6483 14.6555 16.9834 14.6555 16.1762H14.1555ZM14.1555 12.24V16.1762H14.6555V12.24H14.1555ZM16.1586 10.2679C15.0582 10.2679 14.1555 11.1483 14.1555 12.24H14.6555C14.6555 11.4328 15.3259 10.7679 16.1586 10.7679V10.2679ZM21.1675 10.2679H16.1586V10.7679H21.1675V10.2679ZM23.1707 12.24C23.1707 11.1483 22.268 10.2679 21.1675 10.2679V10.7679C22.0003 10.7679 22.6707 11.4328 22.6707 12.24H23.1707ZM16.1572 16.1762V12.24H15.6572V16.1762H16.1572ZM16.1576 16.1722C16.1596 16.1722 16.1586 16.1729 16.1565 16.1709C16.1546 16.169 16.1572 16.1704 16.1572 16.1762H15.6572C15.6572 16.4543 15.8901 16.6722 16.1576 16.6722V16.1722ZM21.1666 16.1722H16.1576V16.6722H21.1666V16.1722ZM21.167 16.1762C21.167 16.1688 21.17 16.1678 21.1672 16.1706C21.1644 16.1734 21.1634 16.1722 21.1666 16.1722V16.6722C21.4354 16.6722 21.667 16.4511 21.667 16.1762H21.167ZM21.167 12.24V16.1762H21.667V12.24H21.167ZM21.1666 12.244C21.1634 12.244 21.1644 12.2429 21.1672 12.2456C21.17 12.2484 21.167 12.2474 21.167 12.24H21.667C21.667 11.9651 21.4354 11.744 21.1666 11.744V12.244ZM16.1576 12.244H21.1666V11.744H16.1576V12.244ZM16.1572 12.24C16.1572 12.2474 16.1542 12.2484 16.157 12.2456C16.1598 12.2429 16.1608 12.244 16.1576 12.244V11.744C15.8888 11.744 15.6572 11.9651 15.6572 12.24H16.1572Z" fill="#222532"/>
<path fill-rule="evenodd" clip-rule="evenodd" d="M25.6756 10.5179H30.6845C31.6511 10.5179 32.4376 11.2906 32.4376 12.24V16.1762C32.4376 17.1257 31.6511 17.8983 30.6845 17.8983H25.6756C24.709 17.8983 23.9225 17.1257 23.9225 16.1762V12.24C23.9225 11.2906 24.709 10.5179 25.6756 10.5179ZM30.6835 16.4222C30.8185 16.4222 30.9339 16.3088 30.9339 16.1762V12.24C30.9339 12.1074 30.8185 11.994 30.6835 11.994H25.6746C25.5396 11.994 25.4241 12.1074 25.4241 12.24V16.1762C25.4241 16.3088 25.5396 16.4222 25.6746 16.4222H30.6835Z" fill="white"/>
<path d="M30.6845 10.2679H25.6756V10.7679H30.6845V10.2679ZM32.6876 12.24C32.6876 11.1483 31.7849 10.2679 30.6845 10.2679V10.7679C31.5172 10.7679 32.1876 11.4328 32.1876 12.24H32.6876ZM32.6876 16.1762V12.24H32.1876V16.1762H32.6876ZM30.6845 18.1483C31.7849 18.1483 32.6876 17.268 32.6876 16.1762H32.1876C32.1876 16.9834 31.5172 17.6483 30.6845 17.6483V18.1483ZM25.6756 18.1483H30.6845V17.6483H25.6756V18.1483ZM23.6725 16.1762C23.6725 17.268 24.5752 18.1483 25.6756 18.1483V17.6483C24.8428 17.6483 24.1725 16.9834 24.1725 16.1762H23.6725ZM23.6725 12.24V16.1762H24.1725V12.24H23.6725ZM25.6756 10.2679C24.5752 10.2679 23.6725 11.1483 23.6725 12.24H24.1725C24.1725 11.4328 24.8428 10.7679 25.6756 10.7679V10.2679ZM30.6839 16.1762C30.6839 16.1688 30.687 16.1678 30.6842 16.1706C30.6813 16.1734 30.6803 16.1722 30.6835 16.1722V16.6722C30.9523 16.6722 31.1839 16.4511 31.1839 16.1762H30.6839ZM30.6839 12.24V16.1762H31.1839V12.24H30.6839ZM30.6835 12.244C30.6803 12.244 30.6813 12.2429 30.6842 12.2456C30.687 12.2484 30.6839 12.2474 30.6839 12.24H31.1839C31.1839 11.9651 30.9523 11.744 30.6835 11.744V12.244ZM25.6746 12.244H30.6835V11.744H25.6746V12.244ZM25.6741 12.24C25.6741 12.2474 25.6711 12.2484 25.6739 12.2456C25.6767 12.2429 25.6778 12.244 25.6746 12.244V11.744C25.4057 11.744 25.1741 11.9651 25.1741 12.24H25.6741ZM25.6741 16.1762V12.24H25.1741V16.1762H25.6741ZM25.6746 16.1722C25.6778 16.1722 25.6767 16.1734 25.6739 16.1706C25.6711 16.1678 25.6741 16.1688 25.6741 16.1762H25.1741C25.1741 16.4511 25.4057 16.6722 25.6746 16.6722V16.1722ZM30.6835 16.1722H25.6746V16.6722H30.6835V16.1722Z" fill="#222532"/>
<path fill-rule="evenodd" clip-rule="evenodd" d="M35.6934 27.4929C35.6934 26.407 36.5915 25.5248 37.697 25.5248C38.8025 25.5248 39.7006 26.4089 39.7006 27.4929C39.7006 28.5788 38.8025 29.461 37.697 29.461C36.5915 29.461 35.6934 28.5788 35.6934 27.4929ZM37.1951 27.4929C37.1951 27.7639 37.4199 27.9849 37.6956 27.9849C37.9713 27.9849 38.1962 27.7639 38.1962 27.4929C38.1962 27.2219 37.9713 27.0008 37.6956 27.0008C37.4199 27.0008 37.1951 27.2219 37.1951 27.4929Z" fill="white"/>
<path d="M37.697 25.2748C36.4577 25.2748 35.4434 26.2647 35.4434 27.4929H35.9434C35.9434 26.5492 36.7254 25.7748 37.697 25.7748V25.2748ZM39.9506 27.4929C39.9506 26.2668 38.9365 25.2748 37.697 25.2748V25.7748C38.6684 25.7748 39.4506 26.551 39.4506 27.4929H39.9506ZM37.697 29.711C38.9363 29.711 39.9506 28.721 39.9506 27.4929H39.4506C39.4506 28.4365 38.6686 29.211 37.697 29.211V29.711ZM35.4434 27.4929C35.4434 28.721 36.4577 29.711 37.697 29.711V29.211C36.7254 29.211 35.9434 28.4365 35.9434 27.4929H35.4434ZM37.6956 27.7349C37.5539 27.7349 37.4451 27.6218 37.4451 27.4929H36.9451C36.9451 27.906 37.2859 28.2349 37.6956 28.2349V27.7349ZM37.9462 27.4929C37.9462 27.6218 37.8373 27.7349 37.6956 27.7349V28.2349C38.1053 28.2349 38.4462 27.906 38.4462 27.4929H37.9462ZM37.6956 27.2508C37.8373 27.2508 37.9462 27.364 37.9462 27.4929H38.4462C38.4462 27.0798 38.1053 26.7508 37.6956 26.7508V27.2508ZM37.4451 27.4929C37.4451 27.364 37.5539 27.2508 37.6956 27.2508V26.7508C37.2859 26.7508 36.9451 27.0798 36.9451 27.4929H37.4451Z" fill="#222532"/>
<path fill-rule="evenodd" clip-rule="evenodd" d="M8.89572 27.4929C8.89572 26.407 9.79382 25.5248 10.8993 25.5248C12.0048 25.5248 12.9029 26.4089 12.9029 27.4929C12.9029 28.5788 12.0048 29.461 10.8993 29.461C9.79382 29.461 8.89572 28.5769 8.89572 27.4929ZM10.3974 27.4929C10.3974 27.7639 10.6223 27.9849 10.898 27.9849C11.1737 27.9849 11.3985 27.7639 11.3985 27.4929C11.3985 27.2219 11.1737 27.0008 10.898 27.0008C10.6223 27.0008 10.3974 27.2219 10.3974 27.4929Z" fill="white"/>
<path d="M10.8993 25.2748C9.65998 25.2748 8.64572 26.2647 8.64572 27.4929H9.14572C9.14572 26.5492 9.92766 25.7748 10.8993 25.7748V25.2748ZM13.1529 27.4929C13.1529 26.2668 12.1388 25.2748 10.8993 25.2748V25.7748C11.8708 25.7748 12.6529 26.551 12.6529 27.4929H13.1529ZM10.8993 29.711C12.1386 29.711 13.1529 28.721 13.1529 27.4929H12.6529C12.6529 28.4365 11.8709 29.211 10.8993 29.211V29.711ZM8.64572 27.4929C8.64572 28.719 9.65982 29.711 10.8993 29.711V29.211C9.92782 29.211 9.14572 28.4348 9.14572 27.4929H8.64572ZM10.898 27.7349C10.7563 27.7349 10.6474 27.6218 10.6474 27.4929H10.1474C10.1474 27.906 10.4883 28.2349 10.898 28.2349V27.7349ZM11.1485 27.4929C11.1485 27.6218 11.0397 27.7349 10.898 27.7349V28.2349C11.3077 28.2349 11.6485 27.906 11.6485 27.4929H11.1485ZM10.898 27.2508C11.0397 27.2508 11.1485 27.364 11.1485 27.4929H11.6485C11.6485 27.0798 11.3077 26.7508 10.898 26.7508V27.2508ZM10.6474 27.4929C10.6474 27.364 10.7563 27.2508 10.898 27.2508V26.7508C10.4883 26.7508 10.1474 27.0798 10.1474 27.4929H10.6474Z" fill="#222532"/>
<path d="M16.4091 24.7867H31.9367V26.2628H16.4091V24.7867Z" fill="white" stroke="#222532" stroke-width="0.5"/>
</svg>
