<svg width="48" height="48" viewBox="0 0 48 48" fill="none" xmlns="http://www.w3.org/2000/svg">
<g filter="url(#filter0_d)">
<path d="M43.2438 32.4341H34.9423C34.6766 32.4341 34.46 32.6509 34.46 32.9167C34.46 33.1825 34.6766 33.3993 34.9423 33.3993H43.2438C43.5095 33.3993 43.7262 33.1825 43.7262 32.9167C43.7262 32.6509 43.5095 32.4341 43.2438 32.4341Z" fill="white" stroke="#222532" stroke-width="0.3"/>
<path d="M43.2439 38.5516H33.9362C33.6705 38.5516 33.4538 38.7684 33.4538 39.0342C33.4538 39.3 33.6705 39.5168 33.9362 39.5168H43.2439C43.5095 39.5168 43.7262 39.3 43.7262 39.0342C43.7262 38.7684 43.5095 38.5516 43.2439 38.5516Z" fill="white" stroke="#222532" stroke-width="0.3"/>
<path d="M5.62138 35.918H13.1275C13.3932 35.918 13.6099 35.7012 13.6099 35.4354C13.6099 35.1696 13.3932 34.9528 13.1275 34.9528H5.62138C5.35571 34.9528 5.13904 35.1696 5.13904 35.4354C5.13904 35.7031 5.35571 35.918 5.62138 35.918Z" fill="white" stroke="#222532" stroke-width="0.3"/>
<path fill-rule="evenodd" clip-rule="evenodd" d="M8.8905 0.957516C9.07701 0.865146 9.29934 0.902847 9.4463 1.04989L9.44654 1.05012C9.59162 1.19714 9.6293 1.42147 9.53509 1.6081C9.23552 2.20759 9.08479 2.84666 9.08479 3.50835C9.08479 5.87234 11.0179 7.79711 13.3919 7.79711C14.057 7.79711 14.6995 7.64441 15.3024 7.34655C15.4889 7.25418 15.7113 7.29188 15.8582 7.43893C16.0052 7.58595 16.041 7.81029 15.9487 7.99503C15.0499 9.79915 13.2412 10.9189 11.2289 10.9189C8.32148 10.9189 5.95691 8.5604 5.95691 5.6629C5.95691 3.65517 7.08173 1.85299 8.8905 0.957516ZM14.2823 8.68655C13.9883 8.73745 13.6925 8.76196 13.391 8.76196L13.3912 8.76213C10.4838 8.76213 8.11923 6.40553 8.12112 3.50803C8.12112 3.2064 8.14561 2.9104 8.19648 2.6182C7.39009 3.40808 6.92093 4.49394 6.92093 5.66275C6.92093 8.02862 8.85406 9.95339 11.2281 9.95339C12.4019 9.95339 13.4891 9.48777 14.2823 8.68655Z" fill="white"/>
<path d="M9.4463 1.04989L9.34015 1.15598L9.34356 1.15918L9.4463 1.04989ZM8.8905 0.957516L8.95705 1.09194L8.95707 1.09193L8.8905 0.957516ZM9.44654 1.05012L9.55338 0.944685L9.54928 0.940829L9.44654 1.05012ZM9.53509 1.6081L9.40118 1.54051L9.40091 1.54105L9.53509 1.6081ZM15.3024 7.34655L15.3689 7.48104L15.369 7.48097L15.3024 7.34655ZM15.8582 7.43893L15.7521 7.54496L15.7521 7.54497L15.8582 7.43893ZM15.9487 7.99503L15.8145 7.92798L15.8144 7.92815L15.9487 7.99503ZM13.391 8.76196V8.61196H13.0995L13.269 8.84918L13.391 8.76196ZM14.2823 8.68655L14.3889 8.79209L14.7189 8.45871L14.2567 8.53875L14.2823 8.68655ZM13.3912 8.76213V8.91213H13.6827L13.5132 8.67491L13.3912 8.76213ZM8.12112 3.50803L8.27112 3.50812V3.50803H8.12112ZM8.19648 2.6182L8.34426 2.64393L8.42411 2.18526L8.09152 2.51105L8.19648 2.6182ZM9.55239 0.943854C9.3604 0.751756 9.06872 0.701862 8.82393 0.823098L8.95707 1.09193C9.0853 1.02843 9.23827 1.05394 9.3402 1.15593L9.55239 0.943854ZM9.54928 0.940829L9.54904 0.940602L9.34356 1.15918L9.3438 1.15941L9.54928 0.940829ZM9.669 1.6757C9.79271 1.43062 9.74288 1.13686 9.55331 0.944759L9.33977 1.15548C9.44036 1.25741 9.46589 1.41233 9.40119 1.54051L9.669 1.6757ZM9.23479 3.50835C9.23479 2.87008 9.38004 2.25395 9.66927 1.67516L9.40091 1.54105C9.091 2.16123 8.93479 2.82324 8.93479 3.50835H9.23479ZM13.3919 7.64711C11.1001 7.64711 9.23479 5.78889 9.23479 3.50835H8.93479C8.93479 5.95579 10.9357 7.94711 13.3919 7.94711V7.64711ZM15.236 7.21207C14.6532 7.49996 14.0335 7.64711 13.3919 7.64711V7.94711C14.0806 7.94711 14.7458 7.78886 15.3689 7.48104L15.236 7.21207ZM15.9643 7.33289C15.7723 7.14079 15.4807 7.0909 15.2359 7.21213L15.369 7.48097C15.4972 7.41746 15.6502 7.44297 15.7521 7.54496L15.9643 7.33289ZM16.0829 8.06208C16.204 7.81972 16.157 7.52564 15.9643 7.33288L15.7521 7.54497C15.8534 7.64625 15.878 7.80085 15.8145 7.92798L16.0829 8.06208ZM11.2289 11.0689C13.2981 11.0689 15.1588 9.91691 16.0829 8.06192L15.8144 7.92815C14.941 9.68139 13.1842 10.7689 11.2289 10.7689V11.0689ZM5.80691 5.6629C5.80691 8.64365 8.23905 11.0689 11.2289 11.0689V10.7689C8.40392 10.7689 6.10691 8.47715 6.10691 5.6629H5.80691ZM8.82395 0.823088C6.9645 1.74364 5.80691 3.59765 5.80691 5.6629H6.10691C6.10691 3.71269 7.19895 1.96233 8.95705 1.09194L8.82395 0.823088ZM13.391 8.91196C13.7007 8.91196 14.0051 8.88678 14.3079 8.83435L14.2567 8.53875C13.9715 8.58813 13.6843 8.61196 13.391 8.61196V8.91196ZM13.5132 8.67491L13.5131 8.67474L13.269 8.84918L13.2691 8.84935L13.5132 8.67491ZM7.97112 3.50793C7.96918 6.48885 10.4015 8.91213 13.3912 8.91213V8.61213C10.5662 8.61213 8.26929 6.32221 8.27112 3.50812L7.97112 3.50793ZM8.04871 2.59248C7.99628 2.8936 7.97112 3.19822 7.97112 3.50803H8.27112C8.27112 3.21458 8.29494 2.92721 8.34426 2.64393L8.04871 2.59248ZM7.07093 5.66275C7.07093 4.53465 7.52358 3.4873 8.30145 2.72536L8.09152 2.51105C7.2566 3.32886 6.77093 4.45323 6.77093 5.66275H7.07093ZM11.2281 9.80339C8.93633 9.80339 7.07093 7.94521 7.07093 5.66275H6.77093C6.77093 8.11203 8.77178 10.1034 11.2281 10.1034V9.80339ZM14.1757 8.58102C13.4105 9.35394 12.3616 9.80339 11.2281 9.80339V10.1034C12.4422 10.1034 13.5676 9.62161 14.3889 8.79209L14.1757 8.58102Z" fill="#222532"/>
<path fill-rule="evenodd" clip-rule="evenodd" d="M43.2454 24.699H43.2435C42.9779 24.699 42.7631 24.914 42.7612 25.1798L42.7499 27.7568L24.8508 1.34389C24.6718 1.07808 24.2328 1.07808 24.0519 1.34389L6.16578 27.7379L6.17709 25.0025C6.17897 24.7367 5.9623 24.5181 5.69663 24.5181H5.69475C5.42909 24.5181 5.2143 24.733 5.21241 24.9988L5.19545 29.3158C5.19357 29.5288 5.333 29.7155 5.5346 29.7796C5.5817 29.7946 5.6288 29.8003 5.67779 29.8003C5.83418 29.8003 5.98491 29.723 6.07723 29.5892L8.89211 25.4361V29.3196C8.89211 29.5854 9.10879 29.8022 9.37445 29.8022H20.1176C20.6659 31.5818 22.3296 32.8788 24.2928 32.8788C24.3013 32.8788 24.3089 32.878 24.3168 32.8775C24.3212 32.8771 24.3257 32.8769 24.3305 32.8769C24.3362 32.8769 24.3437 32.8788 24.3494 32.8788C24.3588 32.8788 24.3682 32.8774 24.3776 32.8759C24.387 32.8745 24.3965 32.8731 24.4059 32.8731C26.3183 32.8241 27.9292 31.546 28.4662 29.8022H39.5301C39.7958 29.8022 40.0125 29.5854 40.0125 29.3196V25.4361L42.8274 29.5892C42.946 29.7645 43.1646 29.8418 43.3662 29.7796C43.5678 29.7173 43.7073 29.5307 43.7073 29.3196L43.7261 25.1835C43.728 24.9158 43.5132 24.7009 43.2456 24.699L43.2454 24.699ZM24.4061 31.9086L24.4008 31.9089C24.3764 31.9107 24.3536 31.9123 24.3308 31.9123C23.4942 31.901 22.8159 31.2224 22.8159 30.3891C22.8159 29.8406 23.6223 28.5775 24.3496 27.6255C25.0769 28.5775 25.8833 29.8405 25.8833 30.3891C25.8833 31.2092 25.2257 31.8784 24.4061 31.9086L24.4061 31.9086ZM26.8461 30.3873C26.8461 30.5305 26.8272 30.6663 26.8046 30.802L26.8046 30.8021C27.3566 30.1988 27.6958 29.4013 27.692 28.5247C27.692 27.0788 25.4989 24.0022 24.2893 22.4714C23.0815 24.0022 20.8865 27.0807 20.8865 28.5247C20.8865 29.4748 21.284 30.3345 21.919 30.9509C21.8775 30.7681 21.8493 30.5814 21.8493 30.3873C21.8493 29.1656 23.6223 26.9694 23.9765 26.5415C24.1593 26.3209 24.5361 26.3209 24.7189 26.5415C25.075 26.9695 26.8461 29.1657 26.8461 30.3873ZM24.6642 21.3969C24.4815 21.1764 24.1046 21.1764 23.9219 21.3969C23.513 21.889 19.9256 26.2775 19.9256 28.525C19.9256 28.6007 19.9304 28.6754 19.9353 28.7498V28.7498C19.9365 28.7683 19.9377 28.7868 19.9388 28.8053C19.9394 28.8162 19.9401 28.8271 19.9407 28.8379H15.0835V25.6557C15.7128 25.1467 17.7985 23.3822 19.9108 20.7636C21.6253 18.639 23.583 15.6359 24.4704 12.2123C25.3578 15.6377 27.3154 18.6387 29.03 20.7636C31.1421 23.3821 33.2278 25.1466 33.8572 25.6557V28.8379H28.6436C28.6512 28.7342 28.6587 28.6306 28.6587 28.525C28.6606 26.2779 25.0732 21.8892 24.6643 21.3969H24.6642ZM34.8196 28.8377H39.0476L39.0501 24.0136L24.4535 2.47545L9.85696 24.0136V28.8377H14.117V25.4218C14.117 25.271 14.1867 25.1296 14.3054 25.0391L14.3057 25.0388C14.4224 24.9473 23.986 17.4472 23.986 8.57026C23.986 8.30445 24.2026 8.08766 24.4683 8.08766C24.734 8.08766 24.9506 8.30445 24.9506 8.57026C24.9506 17.4442 34.5078 24.9423 34.6307 25.0387L34.6312 25.0391C34.7499 25.1315 34.8196 25.2729 34.8196 25.4218V28.8377Z" fill="white"/>
<path d="M43.2454 24.699V24.8492L43.2522 24.8489L43.2454 24.699ZM42.7612 25.1798L42.6112 25.1787L42.6112 25.1791L42.7612 25.1798ZM42.7499 27.7568L42.6257 27.8409L42.8978 28.2424L42.8999 27.7574L42.7499 27.7568ZM24.8508 1.34389L24.7263 1.42767L24.7266 1.42804L24.8508 1.34389ZM24.0519 1.34389L23.9279 1.2595L23.9277 1.25974L24.0519 1.34389ZM6.16578 27.7379L6.01578 27.7373L6.01375 28.2297L6.28996 27.8221L6.16578 27.7379ZM6.17709 25.0025L6.02709 25.0015L6.02709 25.0019L6.17709 25.0025ZM5.21241 24.9988L5.06241 24.9977L5.06241 24.9982L5.21241 24.9988ZM5.19545 29.3158L5.34545 29.3171L5.34545 29.3164L5.19545 29.3158ZM5.5346 29.7796L5.58034 29.6367L5.58005 29.6366L5.5346 29.7796ZM6.07723 29.5892L6.20071 29.6743L6.20139 29.6733L6.07723 29.5892ZM8.89211 25.4361H9.04211V24.9475L8.76795 25.352L8.89211 25.4361ZM20.1176 29.8022L20.261 29.758L20.2284 29.6522H20.1176V29.8022ZM24.3168 32.8775L24.3273 33.0271L24.3273 33.0271L24.3168 32.8775ZM24.3776 32.8759L24.3554 32.7276L24.3553 32.7276L24.3776 32.8759ZM24.4059 32.8731V33.0232L24.4097 33.0231L24.4059 32.8731ZM28.4662 29.8022V29.6522H28.3555L28.3229 29.758L28.4662 29.8022ZM40.0125 25.4361L40.1366 25.352L39.8625 24.9474V25.4361H40.0125ZM42.8274 29.5892L42.9516 29.5051L42.9515 29.505L42.8274 29.5892ZM43.3662 29.7796L43.4105 29.9229L43.4105 29.9229L43.3662 29.7796ZM43.7073 29.3196L43.5573 29.3189V29.3196H43.7073ZM43.7261 25.1835L43.5761 25.1825L43.5761 25.1828L43.7261 25.1835ZM43.2456 24.699L43.2467 24.5488L43.2388 24.5492L43.2456 24.699ZM24.4008 31.9089L24.39 31.7593L24.39 31.7593L24.4008 31.9089ZM24.4061 31.9086L24.4425 31.763L24.4193 31.7572L24.3954 31.7589L24.4061 31.9086ZM24.3308 31.9123L24.3287 32.0623H24.3308V31.9123ZM24.3496 27.6255L24.4688 27.5344L24.3496 27.3784L24.2304 27.5344L24.3496 27.6255ZM24.4061 31.9086L24.3698 32.0541L24.3904 32.0592L24.4117 32.0585L24.4061 31.9086ZM26.8046 30.802L26.9504 30.8396L26.9526 30.8266L26.8046 30.802ZM26.8046 30.8021L26.6594 30.7646L26.9153 30.9033L26.8046 30.8021ZM27.692 28.5247L27.542 28.5247L27.542 28.5254L27.692 28.5247ZM24.2893 22.4714L24.407 22.3784L24.2892 22.2294L24.1715 22.3785L24.2893 22.4714ZM21.919 30.9509L21.8145 31.0586L22.1769 31.4104L22.0653 30.9178L21.919 30.9509ZM23.9765 26.5415L23.861 26.4458L23.8609 26.4458L23.9765 26.5415ZM24.7189 26.5415L24.6034 26.6372L24.6036 26.6374L24.7189 26.5415ZM23.9219 21.3969L24.0372 21.4928L24.0374 21.4926L23.9219 21.3969ZM24.6642 21.3969L24.5487 21.4926L24.5937 21.5469H24.6642V21.3969ZM19.9353 28.7498H20.0856L20.0849 28.7401L19.9353 28.7498ZM19.9353 28.7498H19.7849L19.7856 28.7595L19.9353 28.7498ZM19.9388 28.8053L20.0885 28.7962L20.0885 28.7962L19.9388 28.8053ZM19.9407 28.8379V28.9879H20.0991L20.0904 28.8298L19.9407 28.8379ZM15.0835 28.8379H14.9335V28.9879H15.0835V28.8379ZM15.0835 25.6557L14.9892 25.5391L14.9335 25.5841V25.6557H15.0835ZM19.9108 20.7636L19.794 20.6694L19.794 20.6694L19.9108 20.7636ZM24.4704 12.2123L24.6156 12.1747L24.4704 11.6144L24.3252 12.1747L24.4704 12.2123ZM29.03 20.7636L29.1467 20.6694L29.1467 20.6694L29.03 20.7636ZM33.8572 25.6557H34.0072V25.5841L33.9516 25.5391L33.8572 25.6557ZM33.8572 28.8379V28.9879H34.0072V28.8379H33.8572ZM28.6436 28.8379L28.494 28.8271L28.4823 28.9879H28.6436V28.8379ZM28.6587 28.525L28.5087 28.5249V28.525H28.6587ZM24.6643 21.3969L24.7797 21.3011L24.7347 21.2469H24.6643V21.3969ZM39.0476 28.8377V28.9877H39.1975L39.1976 28.8378L39.0476 28.8377ZM34.8196 28.8377H34.6696V28.9877H34.8196V28.8377ZM39.0501 24.0136L39.2001 24.0136L39.2001 23.9675L39.1743 23.9294L39.0501 24.0136ZM24.4535 2.47545L24.5777 2.3913L24.4535 2.20808L24.3294 2.3913L24.4535 2.47545ZM9.85696 24.0136L9.73278 23.9294L9.70696 23.9675V24.0136H9.85696ZM9.85696 28.8377H9.70696V28.9877H9.85696V28.8377ZM14.117 28.8377V28.9877H14.267V28.8377H14.117ZM14.3054 25.0391L14.3963 25.1584L14.3982 25.157L14.3054 25.0391ZM14.3057 25.0388L14.2132 24.9208L14.213 24.9209L14.3057 25.0388ZM34.6307 25.0387L34.5381 25.1567L34.5384 25.157L34.6307 25.0387ZM34.6312 25.0391L34.5389 25.1573L34.5391 25.1575L34.6312 25.0391ZM43.2435 24.849H43.2454V24.549H43.2435V24.849ZM42.9112 25.1808C42.9125 24.9967 43.061 24.849 43.2435 24.849V24.549C42.8948 24.549 42.6137 24.8312 42.6112 25.1787L42.9112 25.1808ZM42.8999 27.7574L42.9112 25.1804L42.6112 25.1791L42.5999 27.7561L42.8999 27.7574ZM24.7266 1.42804L42.6257 27.8409L42.8741 27.6726L24.9749 1.25974L24.7266 1.42804ZM24.1759 1.42827C24.2335 1.34363 24.3375 1.29453 24.452 1.29453C24.5665 1.29453 24.6697 1.3436 24.7263 1.42767L24.9752 1.2601C24.8528 1.07837 24.647 0.994531 24.452 0.994531C24.2571 0.994531 24.0512 1.07834 23.9279 1.2595L24.1759 1.42827ZM6.28996 27.8221L24.1761 1.42803L23.9277 1.25974L6.04161 27.6538L6.28996 27.8221ZM6.02709 25.0019L6.01578 27.7373L6.31578 27.7386L6.32709 25.0032L6.02709 25.0019ZM5.69663 24.6681C5.87882 24.6681 6.02839 24.8187 6.02709 25.0015L6.32708 25.0036C6.32956 24.6548 6.04577 24.3681 5.69663 24.3681V24.6681ZM5.69475 24.6681H5.69663V24.3681H5.69475V24.6681ZM5.36241 24.9998C5.36371 24.8158 5.51221 24.6681 5.69475 24.6681V24.3681C5.34597 24.3681 5.06488 24.6502 5.06241 24.9977L5.36241 24.9998ZM5.34545 29.3164L5.36241 24.9994L5.06241 24.9982L5.04545 29.3152L5.34545 29.3164ZM5.58005 29.6366C5.43943 29.5919 5.34416 29.4625 5.34545 29.3171L5.04546 29.3145C5.04298 29.5951 5.22656 29.839 5.48914 29.9225L5.58005 29.6366ZM5.67779 29.6503C5.64067 29.6503 5.60953 29.6461 5.58033 29.6367L5.48886 29.9224C5.55387 29.9432 5.61693 29.9503 5.67779 29.9503V29.6503ZM5.95375 29.504C5.88951 29.5971 5.785 29.6503 5.67779 29.6503V29.9503C5.88335 29.9503 6.08031 29.8489 6.2007 29.6743L5.95375 29.504ZM8.76795 25.352L5.95306 29.505L6.20139 29.6733L9.01628 25.5203L8.76795 25.352ZM9.04211 29.3196V25.4361H8.74211V29.3196H9.04211ZM9.37445 29.6522C9.19171 29.6522 9.04211 29.5026 9.04211 29.3196H8.74211C8.74211 29.6682 9.02587 29.9522 9.37445 29.9522V29.6522ZM20.1176 29.6522H9.37445V29.9522H20.1176V29.6522ZM24.2928 32.7288C22.3971 32.7288 20.7904 31.4764 20.261 29.758L19.9743 29.8463C20.5414 31.6872 22.262 33.0288 24.2928 33.0288V32.7288ZM24.3062 32.7278C24.3036 32.728 24.3011 32.7282 24.2994 32.7283C24.2975 32.7285 24.2962 32.7286 24.2951 32.7287C24.2929 32.7288 24.2925 32.7288 24.2928 32.7288V33.0288C24.3082 33.0288 24.3248 33.0273 24.3273 33.0271L24.3062 32.7278ZM24.3305 32.7269C24.3207 32.7269 24.3122 32.7274 24.3062 32.7278L24.3273 33.0271C24.3303 33.0269 24.3308 33.0269 24.3305 33.0269V32.7269ZM24.3494 32.7288C24.3557 32.7288 24.3603 32.7293 24.3614 32.7294C24.3625 32.7295 24.3633 32.7296 24.3612 32.7293C24.36 32.7292 24.3559 32.7286 24.3516 32.7281C24.3473 32.7276 24.3397 32.7269 24.3305 32.7269V33.0269C24.3242 33.0269 24.3196 33.0264 24.3185 33.0263C24.3173 33.0261 24.3166 33.026 24.3187 33.0263C24.3199 33.0265 24.3239 33.0271 24.3283 33.0276C24.3326 33.028 24.3402 33.0288 24.3494 33.0288V32.7288ZM24.3553 32.7276C24.3502 32.7284 24.3482 32.7287 24.3467 32.7288C24.3455 32.729 24.3467 32.7288 24.3494 32.7288V33.0288C24.3719 33.0288 24.3924 33.0254 24.3999 33.0243L24.3553 32.7276ZM24.4059 32.7231C24.3834 32.7231 24.3628 32.7265 24.3554 32.7276L24.3999 33.0243C24.4051 33.0235 24.407 33.0232 24.4085 33.0231C24.4097 33.0229 24.4085 33.0231 24.4059 33.0231V32.7231ZM28.3229 29.758C27.8044 31.4415 26.2487 32.6758 24.402 32.7232L24.4097 33.0231C26.3878 32.9724 28.054 31.6504 28.6096 29.8463L28.3229 29.758ZM39.5301 29.6522H28.4662V29.9522H39.5301V29.6522ZM39.8625 29.3196C39.8625 29.5026 39.7129 29.6522 39.5301 29.6522V29.9522C39.8787 29.9522 40.1625 29.6681 40.1625 29.3196H39.8625ZM39.8625 25.4361V29.3196H40.1625V25.4361H39.8625ZM42.9515 29.505L40.1366 25.352L39.8883 25.5203L42.7032 29.6733L42.9515 29.505ZM43.322 29.6362C43.1838 29.6789 43.0335 29.626 42.9516 29.5051L42.7031 29.6732C42.8586 29.9029 43.1454 30.0047 43.4105 29.9229L43.322 29.6362ZM43.5573 29.3196C43.5573 29.4641 43.4615 29.5932 43.322 29.6362L43.4105 29.9229C43.6742 29.8415 43.8573 29.5973 43.8573 29.3196H43.5573ZM43.5761 25.1828L43.5573 29.3189L43.8573 29.3203L43.8761 25.1842L43.5761 25.1828ZM43.2446 24.849C43.4304 24.8503 43.5774 24.9988 43.5761 25.1825L43.8761 25.1846C43.8786 24.8329 43.5959 24.5515 43.2467 24.549L43.2446 24.849ZM43.2522 24.8489L43.2524 24.8489L43.2388 24.5492L43.2386 24.5492L43.2522 24.8489ZM24.4115 32.0586L24.4169 32.0582L24.3954 31.7589L24.39 31.7593L24.4115 32.0586ZM24.3308 32.0623C24.3599 32.0623 24.3881 32.0602 24.4115 32.0586L24.39 31.7593C24.3647 31.7611 24.3473 31.7623 24.3308 31.7623V32.0623ZM22.6659 30.3891C22.6659 31.3057 23.4115 32.0499 24.3287 32.0623L24.3328 31.7623C23.5769 31.7521 22.9659 31.139 22.9659 30.3891H22.6659ZM24.2304 27.5344C23.8641 28.0139 23.4769 28.573 23.1803 29.0832C23.0322 29.3382 22.9051 29.5836 22.8147 29.8025C22.7258 30.0175 22.6659 30.2216 22.6659 30.3891H22.9659C22.9659 30.2823 23.0069 30.1229 23.0919 29.9171C23.1754 29.715 23.2954 29.4823 23.4397 29.234C23.7282 28.7375 24.1078 28.1891 24.4688 27.7165L24.2304 27.5344ZM26.0333 30.3891C26.0333 30.2216 25.9734 30.0175 25.8846 29.8025C25.7941 29.5836 25.6671 29.3382 25.5189 29.0832C25.2224 28.573 24.8351 28.0139 24.4688 27.5344L24.2304 27.7165C24.5914 28.1891 24.971 28.7375 25.2595 29.2339C25.4038 29.4823 25.5238 29.715 25.6073 29.917C25.6924 30.1228 25.7333 30.2823 25.7333 30.3891H26.0333ZM24.4117 32.0585C25.3102 32.0254 26.0333 31.2915 26.0333 30.3891H25.7333C25.7333 31.1268 25.1412 31.7314 24.4006 31.7587L24.4117 32.0585ZM24.3697 32.0541L24.3698 32.0541L24.4425 31.763L24.4425 31.763L24.3697 32.0541ZM26.9526 30.8266C26.9755 30.6889 26.9961 30.5433 26.9961 30.3873H26.6961C26.6961 30.5178 26.6789 30.6437 26.6567 30.7773L26.9526 30.8266ZM26.9499 30.8395L26.9499 30.8395L26.6594 30.7645L26.6594 30.7646L26.9499 30.8395ZM27.542 28.5254C27.5456 29.3619 27.2222 30.1236 26.694 30.7008L26.9153 30.9033C27.4911 30.274 27.846 29.4408 27.842 28.5241L27.542 28.5254ZM24.1716 22.5644C24.7741 23.327 25.621 24.4738 26.3164 25.6083C26.6641 26.1757 26.9722 26.7371 27.1929 27.2441C27.4153 27.7548 27.542 28.195 27.542 28.5247H27.842C27.842 28.1315 27.6946 27.645 27.468 27.1243C27.2397 26.5999 26.9239 26.0254 26.5721 25.4515C25.8685 24.3036 25.014 23.1467 24.407 22.3784L24.1716 22.5644ZM21.0365 28.5247C21.0365 28.1955 21.1634 27.7555 21.3859 27.2449C21.6067 26.738 21.915 26.1765 22.2629 25.609C22.9585 24.4742 23.8054 23.327 24.407 22.5644L24.1715 22.3785C23.5654 23.1467 22.7109 24.304 22.0071 25.4522C21.6552 26.0262 21.3393 26.6007 21.1108 27.1251C20.884 27.6456 20.7365 28.132 20.7365 28.5247H21.0365ZM22.0235 30.8433C21.416 30.2535 21.0365 29.4321 21.0365 28.5247H20.7365C20.7365 29.5176 21.1521 30.4155 21.8145 31.0586L22.0235 30.8433ZM21.6993 30.3873C21.6993 30.596 21.7297 30.7942 21.7727 30.9841L22.0653 30.9178C22.0254 30.7419 21.9993 30.5669 21.9993 30.3873H21.6993ZM23.8609 26.4458C23.6824 26.6616 23.1463 27.3228 22.654 28.0854C22.408 28.4666 22.1709 28.8761 21.9949 29.27C21.8202 29.6609 21.6993 30.0503 21.6993 30.3873H21.9993C21.9993 30.1134 22.1 29.7702 22.2688 29.3924C22.4363 29.0175 22.6646 28.6221 22.9061 28.2481C23.3889 27.5001 23.9164 26.8493 24.092 26.6371L23.8609 26.4458ZM24.8344 26.4458C24.7101 26.2958 24.5249 26.2261 24.3477 26.2261C24.1704 26.2261 23.9852 26.2958 23.861 26.4458L24.092 26.6372C24.1505 26.5666 24.2451 26.5261 24.3477 26.5261C24.4502 26.5261 24.5448 26.5666 24.6034 26.6372L24.8344 26.4458ZM26.9961 30.3873C26.9961 30.0503 26.8753 29.661 26.7008 29.27C26.5249 28.8761 26.288 28.4666 26.0421 28.0854C25.5501 27.3229 25.0139 26.6616 24.8342 26.4455L24.6036 26.6374C24.7799 26.8494 25.3074 27.5001 25.79 28.2481C26.0313 28.6221 26.2595 29.0175 26.4268 29.3923C26.5955 29.7701 26.6961 30.1134 26.6961 30.3873H26.9961ZM24.0374 21.4926C24.0959 21.422 24.1905 21.3815 24.2931 21.3815C24.3956 21.3815 24.4902 21.422 24.5487 21.4926L24.7797 21.3012C24.6555 21.1513 24.4703 21.0815 24.2931 21.0815C24.1158 21.0815 23.9306 21.1513 23.8064 21.3012L24.0374 21.4926ZM20.0756 28.525C20.0756 27.9968 20.2882 27.3255 20.6285 26.5956C20.9669 25.8696 21.4238 25.1017 21.8957 24.3852C22.8392 22.9523 23.8343 21.737 24.0372 21.4928L23.8065 21.3011C23.6006 21.5489 22.5975 22.7739 21.6451 24.2202C21.169 24.9432 20.7035 25.7246 20.3566 26.4689C20.0114 27.2093 19.7756 27.9294 19.7756 28.525H20.0756ZM20.0849 28.7401C20.0801 28.6649 20.0756 28.595 20.0756 28.525H19.7756C19.7756 28.6063 19.7808 28.6858 19.7856 28.7595L20.0849 28.7401ZM20.0853 28.7498V28.7498H19.7853V28.7498H20.0853ZM20.0885 28.7962C20.0874 28.7774 20.0861 28.7586 20.0849 28.7401L19.7856 28.7595C19.7868 28.7781 19.788 28.7963 19.7891 28.8144L20.0885 28.7962ZM20.0904 28.8298C20.0898 28.8185 20.0892 28.8073 20.0885 28.7962L19.7891 28.8144C19.7897 28.8251 19.7903 28.8356 19.7909 28.8461L20.0904 28.8298ZM15.0835 28.9879H19.9407V28.6879H15.0835V28.9879ZM14.9335 25.6557V28.8379H15.2335V25.6557H14.9335ZM19.794 20.6694C17.6907 23.277 15.6136 25.0341 14.9892 25.5391L15.1778 25.7724C15.812 25.2594 17.9064 23.4875 20.0275 20.8578L19.794 20.6694ZM24.3252 12.1747C23.4453 15.5693 21.5019 18.5531 19.794 20.6694L20.0275 20.8578C21.7487 18.725 23.7206 15.7026 24.6156 12.25L24.3252 12.1747ZM29.1467 20.6694C27.4388 18.5527 25.4955 15.5711 24.6156 12.1747L24.3252 12.25C25.2201 15.7044 27.192 18.7246 28.9132 20.8578L29.1467 20.6694ZM33.9516 25.5391C33.3271 25.0339 31.2499 23.2769 29.1467 20.6694L28.9132 20.8578C31.0342 23.4873 33.1286 25.2593 33.7629 25.7724L33.9516 25.5391ZM34.0072 28.8379V25.6557H33.7072V28.8379H34.0072ZM28.6436 28.9879H33.8572V28.6879H28.6436V28.9879ZM28.5087 28.525C28.5087 28.6242 28.5016 28.7225 28.494 28.8271L28.7932 28.8488C28.8007 28.746 28.8087 28.6369 28.8087 28.525H28.5087ZM24.5489 21.4928C24.7519 21.7372 25.747 22.9525 26.6902 24.3854C27.162 25.1019 27.6187 25.8698 27.9569 26.5958C28.2969 27.3257 28.5091 27.9968 28.5087 28.5249L28.8087 28.5251C28.8092 27.9296 28.5737 27.2095 28.2288 26.4691C27.8821 25.7248 27.4168 24.9435 26.9408 24.2204C25.9887 22.7741 24.9856 21.549 24.7797 21.3011L24.5489 21.4928ZM24.6642 21.5469H24.6643V21.2469H24.6642V21.5469ZM39.0476 28.6877H34.8196V28.9877H39.0476V28.6877ZM38.9001 24.0135L38.8976 28.8376L39.1976 28.8378L39.2001 24.0136L38.9001 24.0135ZM24.3294 2.5596L38.9259 24.0977L39.1743 23.9294L24.5777 2.3913L24.3294 2.5596ZM9.98113 24.0977L24.5777 2.5596L24.3294 2.3913L9.73278 23.9294L9.98113 24.0977ZM10.007 28.8377V24.0136H9.70696V28.8377H10.007ZM14.117 28.6877H9.85696V28.9877H14.117V28.6877ZM13.967 25.4218V28.8377H14.267V25.4218H13.967ZM14.2145 24.9198C14.0582 25.039 13.967 25.2246 13.967 25.4218H14.267C14.267 25.3173 14.3152 25.2202 14.3963 25.1584L14.2145 24.9198ZM14.213 24.9209L14.2126 24.9212L14.3982 25.157L14.3985 25.1567L14.213 24.9209ZM23.836 8.57026C23.836 12.9575 21.4707 17.0183 19.0726 20.0052C16.6774 22.9885 14.2673 24.8783 14.2132 24.9208L14.3983 25.1569C14.4608 25.1078 16.8909 23.2018 19.3066 20.193C21.7195 17.1876 24.136 13.0599 24.136 8.57026H23.836ZM24.4683 7.93766C24.1197 7.93766 23.836 8.22169 23.836 8.57026H24.136C24.136 8.38722 24.2855 8.23766 24.4683 8.23766V7.93766ZM25.1006 8.57026C25.1006 8.22169 24.8169 7.93766 24.4683 7.93766V8.23766C24.651 8.23766 24.8006 8.38722 24.8006 8.57026H25.1006ZM34.7233 24.9207C34.666 24.8758 32.256 22.9853 29.8615 20.0022C27.4643 17.0156 25.1006 12.956 25.1006 8.57026H24.8006C24.8006 13.0585 27.2155 17.1849 29.6276 20.19C32.0425 23.1985 34.4725 25.1052 34.5381 25.1567L34.7233 24.9207ZM34.7235 24.9209L34.723 24.9205L34.5384 25.157L34.5389 25.1573L34.7235 24.9209ZM34.9696 25.4218C34.9696 25.2259 34.878 25.0411 34.7233 24.9207L34.5391 25.1575C34.6218 25.2218 34.6696 25.3198 34.6696 25.4218H34.9696ZM34.9696 28.8377V25.4218H34.6696V28.8377H34.9696Z" fill="#222532"/>
<path fill-rule="evenodd" clip-rule="evenodd" d="M31.7825 34.6665C31.8258 34.7871 31.8164 34.9228 31.7599 35.0378L31.7602 35.0378C31.7018 35.1547 31.6019 35.2433 31.4776 35.2848L29.6933 35.8749L31.4079 36.3594C31.5322 36.3952 31.6377 36.4781 31.6999 36.5912C31.7621 36.7043 31.7753 36.8363 31.7395 36.9607L31.1234 39.0382C31.0612 39.2474 30.8709 39.3832 30.6618 39.3832C30.6184 39.3832 30.5732 39.3756 30.5299 39.3643L24.3911 37.6281L18.7574 39.4925C18.7084 39.5095 18.6576 39.517 18.6067 39.517C18.407 39.517 18.2204 39.3926 18.1545 39.1928L17.4441 37.1436C17.4008 37.0229 17.4102 36.8872 17.4668 36.7722C17.5233 36.6553 17.625 36.5686 17.7475 36.5271L19.2359 36.0351L17.4479 35.5299C17.3236 35.4941 17.218 35.4111 17.1559 35.298C17.0937 35.1849 17.0805 35.0529 17.1163 34.9285L17.7324 32.8511C17.8078 32.5965 18.0716 32.4514 18.3259 32.523L24.538 34.28L30.4654 32.3175C30.716 32.2346 30.9855 32.3684 31.0721 32.6173L31.7825 34.6665ZM18.5213 33.5806L18.1784 34.7325L20.8689 35.4941L22.9038 34.8211L18.5213 33.5806ZM30.6746 37.1548L30.3317 38.3066L26.0245 37.0869L28.0594 36.414L30.6746 37.1548ZM18.5118 37.2906L18.9055 38.4273L30.7098 34.5212L30.3161 33.3845L18.5118 37.2906Z" fill="white"/>
<path d="M31.7599 35.0378L31.6252 34.9717L31.5209 35.184L31.7574 35.1878L31.7599 35.0378ZM31.7825 34.6665L31.6407 34.7156L31.6413 34.7172L31.7825 34.6665ZM31.7602 35.0378L31.8944 35.1049L32.0009 34.8917L31.7626 34.8879L31.7602 35.0378ZM31.4776 35.2848L31.5247 35.4272L31.525 35.4271L31.4776 35.2848ZM29.6933 35.8749L29.6462 35.7325L29.1815 35.8861L29.6525 36.0192L29.6933 35.8749ZM31.4079 36.3594L31.4494 36.2152L31.4487 36.215L31.4079 36.3594ZM31.6999 36.5912L31.8314 36.519L31.8314 36.519L31.6999 36.5912ZM31.7395 36.9607L31.8833 37.0034L31.8836 37.0022L31.7395 36.9607ZM31.1234 39.0382L31.2672 39.0809L31.2672 39.0808L31.1234 39.0382ZM30.5299 39.3643L30.489 39.5087L30.492 39.5095L30.5299 39.3643ZM24.3911 37.6281L24.432 37.4837L24.3877 37.4712L24.344 37.4857L24.3911 37.6281ZM18.7574 39.4925L18.7103 39.3501L18.7083 39.3508L18.7574 39.4925ZM18.1545 39.1928L18.2969 39.1457L18.2962 39.1436L18.1545 39.1928ZM17.4441 37.1436L17.5859 37.0944L17.5853 37.0929L17.4441 37.1436ZM17.4668 36.7722L17.6014 36.8384L17.6018 36.8375L17.4668 36.7722ZM17.7475 36.5271L17.7004 36.3847L17.6994 36.3851L17.7475 36.5271ZM19.2359 36.0351L19.283 36.1775L19.7478 36.0239L19.2767 35.8908L19.2359 36.0351ZM17.4479 35.5299L17.4064 35.674L17.4071 35.6742L17.4479 35.5299ZM17.1559 35.298L17.2873 35.2257L17.2873 35.2257L17.1559 35.298ZM17.1163 34.9285L16.9725 34.8859L16.9721 34.887L17.1163 34.9285ZM17.7324 32.8511L17.8762 32.8937L17.8762 32.8937L17.7324 32.8511ZM18.3259 32.523L18.3667 32.3787L18.3666 32.3786L18.3259 32.523ZM24.538 34.28L24.4971 34.4243L24.5414 34.4369L24.5851 34.4224L24.538 34.28ZM30.4654 32.3175L30.4183 32.1751L30.4183 32.1751L30.4654 32.3175ZM31.0721 32.6173L31.2139 32.5681L31.2138 32.5679L31.0721 32.6173ZM18.1784 34.7325L18.0346 34.6897L17.9912 34.8354L18.1375 34.8768L18.1784 34.7325ZM18.5213 33.5806L18.5622 33.4363L18.4198 33.396L18.3775 33.5378L18.5213 33.5806ZM20.8689 35.4941L20.828 35.6384L20.8723 35.6509L20.916 35.6365L20.8689 35.4941ZM22.9038 34.8211L22.9509 34.9635L23.4152 34.8099L22.9446 34.6767L22.9038 34.8211ZM30.3317 38.3066L30.2908 38.4509L30.4332 38.4913L30.4754 38.3494L30.3317 38.3066ZM30.6746 37.1548L30.8183 37.1976L30.8617 37.0519L30.7155 37.0105L30.6746 37.1548ZM26.0245 37.0869L25.9774 36.9445L25.5132 37.0981L25.9836 37.2313L26.0245 37.0869ZM28.0594 36.414L28.1003 36.2696L28.056 36.2571L28.0123 36.2715L28.0594 36.414ZM18.9055 38.4273L18.7638 38.4764L18.8122 38.6162L18.9527 38.5697L18.9055 38.4273ZM18.5118 37.2906L18.4646 37.1482L18.3202 37.1959L18.37 37.3397L18.5118 37.2906ZM30.7098 34.5212L30.757 34.6636L30.9014 34.6159L30.8516 34.4721L30.7098 34.5212ZM30.3161 33.3845L30.4578 33.3354L30.4094 33.1956L30.2689 33.2421L30.3161 33.3845ZM31.8945 35.104C31.9682 34.9539 31.9812 34.7761 31.9236 34.6158L31.6413 34.7172C31.6704 34.7981 31.6645 34.8917 31.6252 34.9717L31.8945 35.104ZM31.7626 34.8879L31.7623 34.8879L31.7574 35.1878L31.7578 35.1878L31.7626 34.8879ZM31.525 35.4271C31.6882 35.3727 31.8187 35.2563 31.8944 35.1049L31.626 34.9708C31.5848 35.0532 31.5156 35.114 31.4301 35.1425L31.525 35.4271ZM29.7404 36.0173L31.5247 35.4272L31.4305 35.1424L29.6462 35.7325L29.7404 36.0173ZM31.4487 36.215L29.7341 35.7305L29.6525 36.0192L31.3671 36.5037L31.4487 36.215ZM31.8314 36.519C31.7495 36.3701 31.6111 36.2618 31.4494 36.2152L31.3663 36.5035C31.4533 36.5286 31.526 36.5862 31.5685 36.6635L31.8314 36.519ZM31.8836 37.0022C31.93 36.841 31.9133 36.668 31.8314 36.519L31.5685 36.6635C31.6109 36.7407 31.6205 36.8316 31.5953 36.9193L31.8836 37.0022ZM31.2672 39.0808L31.8833 37.0034L31.5957 36.9181L30.9796 38.9955L31.2672 39.0808ZM30.6618 39.5332C30.9359 39.5332 31.1857 39.3551 31.2672 39.0809L30.9796 38.9955C30.9367 39.1397 30.8059 39.2332 30.6618 39.2332V39.5332ZM30.492 39.5095C30.5434 39.5229 30.6019 39.5332 30.6618 39.5332V39.2332C30.635 39.2332 30.603 39.2284 30.5678 39.2192L30.492 39.5095ZM24.3503 37.7724L30.4891 39.5087L30.5707 39.22L24.432 37.4837L24.3503 37.7724ZM18.8045 39.6349L24.4383 37.7705L24.344 37.4857L18.7103 39.3501L18.8045 39.6349ZM18.6067 39.667C18.6724 39.667 18.74 39.6573 18.8065 39.6342L18.7083 39.3508C18.6768 39.3617 18.6427 39.367 18.6067 39.367V39.667ZM18.012 39.2398C18.0993 39.5042 18.3456 39.667 18.6067 39.667V39.367C18.4683 39.367 18.3415 39.2809 18.2969 39.1458L18.012 39.2398ZM17.3024 37.1927L18.0128 39.2419L18.2962 39.1436L17.5859 37.0945L17.3024 37.1927ZM17.3321 36.706C17.2584 36.8561 17.2454 37.034 17.303 37.1943L17.5853 37.0929C17.5562 37.0119 17.5621 36.9183 17.6014 36.8384L17.3321 36.706ZM17.6994 36.3851C17.5407 36.4388 17.4066 36.5521 17.3317 36.7069L17.6018 36.8375C17.64 36.7586 17.7094 36.6984 17.7956 36.6692L17.6994 36.3851ZM19.1889 35.8927L17.7004 36.3847L17.7946 36.6696L19.283 36.1775L19.1889 35.8927ZM17.4071 35.6742L19.1952 36.1795L19.2767 35.8908L17.4887 35.3855L17.4071 35.6742ZM17.0244 35.3703C17.1063 35.5192 17.2446 35.6274 17.4064 35.674L17.4894 35.3857C17.4025 35.3607 17.3298 35.303 17.2873 35.2257L17.0244 35.3703ZM16.9721 34.887C16.9258 35.0482 16.9425 35.2212 17.0244 35.3703L17.2873 35.2257C17.2449 35.1486 17.2352 35.0577 17.2605 34.97L16.9721 34.887ZM17.5886 32.8084L16.9725 34.8859L17.2601 34.9712L17.8762 32.8937L17.5886 32.8084ZM18.3666 32.3786C18.0332 32.2847 17.6872 32.4753 17.5886 32.8084L17.8762 32.8937C17.9283 32.7178 18.1099 32.618 18.2852 32.6674L18.3666 32.3786ZM24.5788 34.1357L18.3667 32.3787L18.2851 32.6674L24.4971 34.4243L24.5788 34.1357ZM30.4183 32.1751L24.4908 34.1376L24.5851 34.4224L30.5126 32.4599L30.4183 32.1751ZM31.2138 32.5679C31.1003 32.2421 30.7471 32.0663 30.4183 32.1751L30.5126 32.4599C30.685 32.4029 30.8706 32.4947 30.9305 32.6666L31.2138 32.5679ZM31.9242 34.6173L31.2139 32.5681L30.9304 32.6664L31.6407 34.7156L31.9242 34.6173ZM18.3222 34.7753L18.6651 33.6234L18.3775 33.5378L18.0346 34.6897L18.3222 34.7753ZM20.9098 35.3497L18.2192 34.5881L18.1375 34.8768L20.828 35.6384L20.9098 35.3497ZM22.8567 34.6787L20.8218 35.3516L20.916 35.6365L22.9509 34.9635L22.8567 34.6787ZM18.4805 33.725L22.8629 34.9654L22.9446 34.6767L18.5622 33.4363L18.4805 33.725ZM30.4754 38.3494L30.8183 37.1976L30.5308 37.112L30.1879 38.2638L30.4754 38.3494ZM25.9836 37.2313L30.2908 38.4509L30.3725 38.1623L26.0654 36.9426L25.9836 37.2313ZM28.0123 36.2715L25.9774 36.9445L26.0716 37.2294L28.1065 36.5564L28.0123 36.2715ZM30.7155 37.0105L28.1003 36.2696L28.0185 36.5583L30.6337 37.2991L30.7155 37.0105ZM19.0473 38.3782L18.6535 37.2415L18.37 37.3397L18.7638 38.4764L19.0473 38.3782ZM30.6627 34.3788L18.8584 38.2849L18.9527 38.5697L30.757 34.6636L30.6627 34.3788ZM30.1743 33.4336L30.5681 34.5703L30.8516 34.4721L30.4578 33.3354L30.1743 33.4336ZM18.5589 37.433L30.3632 33.5269L30.2689 33.2421L18.4646 37.1482L18.5589 37.433Z" fill="#222532"/>
</g>
<defs>
<filter id="filter0_d" x="0.989044" y="0.757324" width="46.8872" height="46.9097" filterUnits="userSpaceOnUse" color-interpolation-filters="sRGB">
<feFlood flood-opacity="0" result="BackgroundImageFix"/>
<feColorMatrix in="SourceAlpha" type="matrix" values="0 0 0 0 0 0 0 0 0 0 0 0 0 0 0 0 0 0 127 0"/>
<feOffset dy="4"/>
<feGaussianBlur stdDeviation="2"/>
<feColorMatrix type="matrix" values="0 0 0 0 0 0 0 0 0 0 0 0 0 0 0 0 0 0 0.25 0"/>
<feBlend mode="normal" in2="BackgroundImageFix" result="effect1_dropShadow"/>
<feBlend mode="normal" in="SourceGraphic" in2="effect1_dropShadow" result="shape"/>
</filter>
</defs>
</svg>
