<svg width="48" height="48" viewBox="0 0 48 48" fill="none" xmlns="http://www.w3.org/2000/svg">
<g filter="url(#filter0_d)">
<path d="M42.9605 32.1881H34.6792C34.4141 32.1881 34.198 32.4061 34.198 32.6734C34.198 32.9407 34.4141 33.1587 34.6792 33.1587H42.9605C43.2255 33.1587 43.4416 32.9407 43.4416 32.6734C43.4416 32.4061 43.2255 32.1881 42.9605 32.1881Z" fill="white"/>
<path d="M42.9605 38.34H33.6755C33.4105 38.34 33.1943 38.558 33.1943 38.8253C33.1943 39.0926 33.4105 39.3106 33.6755 39.3106H42.9605C43.2255 39.3106 43.4417 39.0926 43.4417 38.8253C43.4417 38.558 43.2255 38.34 42.9605 38.34Z" fill="white"/>
<path d="M5.42971 35.6916H12.9176C13.1826 35.6916 13.3987 35.4736 13.3987 35.2063C13.3987 34.939 13.1826 34.7209 12.9176 34.7209H5.42971C5.1647 34.7209 4.94855 34.939 4.94855 35.2063C4.94855 35.4755 5.1647 35.6916 5.42971 35.6916Z" fill="white"/>
<path fill-rule="evenodd" clip-rule="evenodd" d="M8.69087 0.53458C8.87693 0.441691 9.09871 0.479604 9.24532 0.627475L9.24556 0.627703C9.39028 0.775549 9.42787 1.00114 9.3339 1.18883C9.03505 1.79168 8.88469 2.43434 8.88469 3.09976C8.88469 5.47703 10.8131 7.41262 13.1813 7.41262C13.8448 7.41262 14.4857 7.25906 15.0872 6.95953C15.2732 6.86664 15.495 6.90455 15.6416 7.05242C15.7882 7.20027 15.8239 7.42587 15.7318 7.61165C14.8353 9.42591 13.0309 10.552 11.0236 10.552C8.12324 10.552 5.76443 8.1802 5.76443 5.26641C5.76443 3.2474 6.88651 1.43508 8.69087 0.53458ZM14.0695 8.30705C13.7763 8.35824 13.4812 8.38288 13.1804 8.38288L13.1806 8.38305C10.2803 8.38305 7.92149 6.01321 7.92337 3.09942C7.92337 2.79609 7.9478 2.49843 7.99855 2.20459C7.19412 2.99891 6.72611 4.09087 6.72611 5.26625C6.72611 7.64542 8.65452 9.58101 11.0228 9.58101C12.1937 9.58101 13.2782 9.11277 14.0695 8.30705Z" fill="white"/>
<path fill-rule="evenodd" clip-rule="evenodd" d="M42.9624 24.4099H42.9605C42.6955 24.4099 42.4813 24.6261 42.4794 24.8934L42.4681 27.4848L24.6126 0.923499C24.434 0.656197 23.9961 0.656197 23.8157 0.923499L5.97317 27.4659L5.98445 24.7151C5.98633 24.4478 5.77018 24.2279 5.50517 24.2279H5.50329C5.23827 24.2279 5.024 24.4441 5.02212 24.7114L5.00521 29.0527C5.00333 29.2669 5.14242 29.4546 5.34352 29.519C5.39051 29.5342 5.4375 29.5399 5.48637 29.5399C5.64237 29.5399 5.79274 29.4621 5.88483 29.3275L8.69286 25.1512V29.0564C8.69286 29.3237 8.909 29.5418 9.17402 29.5418H19.891C20.4379 31.3314 22.0976 32.6357 24.056 32.6357C24.0626 32.6357 24.0687 32.6352 24.0748 32.6347L24.0846 32.634L24.0936 32.6338C24.0963 32.6338 24.0994 32.6342 24.1026 32.6346L24.103 32.6347C24.1063 32.6352 24.1096 32.6357 24.1124 32.6357C24.1218 32.6357 24.1312 32.6342 24.1406 32.6328C24.15 32.6314 24.1594 32.63 24.1688 32.63C26.0765 32.5807 27.6836 31.2953 28.2192 29.5418H39.2562C39.5212 29.5418 39.7373 29.3237 39.7373 29.0564V25.1511L42.5454 29.3275C42.6638 29.5038 42.8818 29.5816 43.0829 29.519C43.284 29.4564 43.4231 29.2688 43.4231 29.0564L43.4419 24.8971C43.4438 24.6279 43.2295 24.4118 42.9626 24.4099L42.9624 24.4099ZM24.1686 31.6596L24.1633 31.66C24.139 31.6617 24.1162 31.6634 24.0935 31.6634C23.2589 31.652 22.5823 30.9695 22.5823 30.1316C22.5823 29.58 23.3868 28.3098 24.1123 27.3524C24.8378 28.3098 25.6422 29.5799 25.6422 30.1316C25.6422 30.9563 24.9863 31.6293 24.1687 31.6596L24.1686 31.6596ZM26.6027 30.1297C26.6027 30.2738 26.5839 30.4103 26.5613 30.5468L26.5613 30.5469C27.112 29.9402 27.4503 29.1383 27.4466 28.2568C27.4466 26.8027 25.2588 23.7088 24.0521 22.1694C22.8473 23.7088 20.6576 26.8046 20.6576 28.2568C20.6576 29.2122 21.0542 30.0767 21.6876 30.6966C21.6463 30.5127 21.6181 30.325 21.6181 30.1297C21.6181 28.9013 23.3867 26.6927 23.7401 26.2623C23.9224 26.0405 24.2983 26.0405 24.4807 26.2623C24.8359 26.6927 26.6027 28.9013 26.6027 30.1297ZM24.4262 21.0889C24.2439 20.8671 23.8679 20.8671 23.6856 21.0889C23.2777 21.5837 19.6991 25.9969 19.6991 28.257C19.6991 28.3331 19.7039 28.4082 19.7087 28.4831V28.4831C19.7106 28.5127 19.7125 28.5422 19.7141 28.5717H14.8688V25.3716C15.4966 24.8598 17.5772 23.0854 19.6843 20.452C21.3947 18.3155 23.3475 15.2955 24.2328 11.8527C25.118 15.2973 27.0709 18.3151 28.7813 20.452C30.8882 23.0852 32.9689 24.8596 33.5967 25.3716V28.5717H28.3958L28.3959 28.5716C28.4034 28.4674 28.4109 28.3631 28.4109 28.257C28.4128 25.9973 24.8341 21.5839 24.4263 21.0889H24.4262ZM34.5568 28.5715H38.7745L38.7769 23.7202L24.216 2.06104L9.65498 23.7202V28.5715H13.9046V25.1364C13.9046 24.9847 13.9742 24.8425 14.0926 24.7515L14.0929 24.7512C14.209 24.6595 23.7495 17.1171 23.7495 8.19011C23.7495 7.9228 23.9657 7.70479 24.2307 7.70479C24.4957 7.70479 24.7119 7.9228 24.7119 8.19011C24.7119 17.114 34.2457 24.6542 34.3683 24.7511L34.3688 24.7515C34.4872 24.8444 34.5568 24.9866 34.5568 25.1364V28.5715Z" fill="white"/>
<path fill-rule="evenodd" clip-rule="evenodd" d="M31.527 34.433C31.5703 34.5543 31.5609 34.6908 31.5045 34.8064L31.5048 34.8064C31.4465 34.924 31.3469 35.0131 31.2229 35.0548L29.4429 35.6482L31.1533 36.1354C31.2774 36.1714 31.3826 36.2548 31.4447 36.3686C31.5067 36.4823 31.5199 36.615 31.4841 36.7401L30.8696 38.8293C30.8075 39.0397 30.6177 39.1762 30.4091 39.1762C30.3658 39.1762 30.3207 39.1686 30.2775 39.1572L24.1537 37.4112L18.5337 39.2861C18.4849 39.3032 18.4341 39.3108 18.3834 39.3108C18.1841 39.3108 17.9981 39.1857 17.9323 38.9847L17.2237 36.924C17.1804 36.8027 17.1898 36.6662 17.2462 36.5506C17.3026 36.433 17.4041 36.3458 17.5263 36.3041L19.0111 35.8093L17.2274 35.3012C17.1034 35.2652 16.9981 35.1818 16.9361 35.0681C16.8741 34.9543 16.8609 34.8216 16.8966 34.6965L17.5112 32.6074C17.5864 32.3514 17.8495 32.2055 18.1033 32.2775L24.3002 34.0443L30.2132 32.0708C30.4632 31.9874 30.732 32.122 30.8184 32.3723L31.527 34.433ZM18.2982 33.3411L17.9561 34.4994L20.6401 35.2652L22.67 34.5885L18.2982 33.3411ZM30.4219 36.9353L30.0798 38.0936L25.7831 36.8671L27.8131 36.1903L30.4219 36.9353ZM18.2887 37.0718L18.6815 38.215L30.457 34.287L30.0642 33.1438L18.2887 37.0718Z" fill="white"/>
</g>
<defs>
<filter id="filter0_d" x="0.948547" y="0.484131" width="46.4934" height="46.8267" filterUnits="userSpaceOnUse" color-interpolation-filters="sRGB">
<feFlood flood-opacity="0" result="BackgroundImageFix"/>
<feColorMatrix in="SourceAlpha" type="matrix" values="0 0 0 0 0 0 0 0 0 0 0 0 0 0 0 0 0 0 127 0"/>
<feOffset dy="4"/>
<feGaussianBlur stdDeviation="2"/>
<feColorMatrix type="matrix" values="0 0 0 0 0 0 0 0 0 0 0 0 0 0 0 0 0 0 0.25 0"/>
<feBlend mode="normal" in2="BackgroundImageFix" result="effect1_dropShadow"/>
<feBlend mode="normal" in="SourceGraphic" in2="effect1_dropShadow" result="shape"/>
</filter>
</defs>
</svg>
