<svg width="51" height="33" viewBox="0 0 51 33" fill="none" xmlns="http://www.w3.org/2000/svg">
<path fill-rule="evenodd" clip-rule="evenodd" d="M49.6697 22.2761V25.0226L49.6693 25.0227C50.2392 25.1387 50.6686 25.6393 50.6686 26.2346V27.2222C50.6686 27.8214 50.2392 28.32 49.6693 28.436V28.4611H43.1091C42.746 30.7012 40.7884 32.4194 38.4266 32.4194C36.0649 32.4194 34.1072 30.7012 33.7461 28.4611H16.3766C16.0135 30.7012 14.0559 32.4194 11.6941 32.4194C9.33238 32.4194 7.37276 30.6992 7.01166 28.4611H3.19973L2.45217 28.463C1.76123 28.463 1.20105 27.9064 1.20105 27.2241V26.2365C1.20105 25.5523 1.76318 24.9976 2.45217 24.9976H3.19973V13.8667C3.19973 10.4553 6.00263 7.67986 9.44761 7.67986L15.2133 7.67599V5.70261C9.13182 5.12861 3.97877 4.0559 2.41925 2.5116C2.18698 2.28355 2.13233 1.93177 2.28457 1.64379C2.43682 1.35774 2.75694 1.19925 3.08094 1.25723C8.05416 2.13857 15.7876 2.25646 22.693 2.25646C24.1608 2.25646 25.6032 2.2526 26.989 2.2468C27.3417 2.24574 27.6907 2.24454 28.0357 2.24334L28.0357 2.24334C28.9488 2.24019 29.8333 2.23714 30.6819 2.23714L37.1151 2.23907H37.1171C41.4717 2.23907 44.1535 2.21008 47.6316 2.04193C47.9752 2.02837 48.2933 2.24871 48.3889 2.57922C48.4846 2.90974 48.3382 3.26345 48.0357 3.4316C47.534 3.70992 46.9095 3.9689 46.1697 4.20857V5.71036C46.1697 6.37912 45.8105 6.957 45.2074 7.25851C44.9517 7.38608 44.6824 7.44986 44.415 7.44986C44.052 7.44986 43.6909 7.33389 43.3786 7.10389L40.9603 5.32769C37.8803 5.77224 34.0665 6.05443 29.6827 6.15493V7.68181L34.9273 7.67988C38.2691 7.67988 41.351 8.78737 43.8259 10.6486L44.0308 10.8071C46.1017 12.4208 47.7256 14.572 48.6879 17.0479L48.6938 17.0595L48.7074 17.0924C48.7211 17.1308 48.7359 17.1682 48.7505 17.2053C48.7632 17.2372 48.7757 17.269 48.7875 17.3011L49.0861 18.0684H49.0431C49.4491 19.402 49.6697 20.8149 49.6697 22.2761ZM35.9289 16.5859H46.8532H46.8534C46.0141 14.8716 44.804 13.3504 43.303 12.1328H35.9289C35.7942 12.1328 35.679 12.2468 35.679 12.3802V16.3385C35.679 16.4719 35.7942 16.5859 35.9289 16.5859ZM44.673 5.71032C44.673 5.81275 44.6281 5.8862 44.5344 5.93259C44.4407 5.97897 44.3568 5.97124 44.2729 5.90939L43.0159 4.98745C43.6053 4.87535 44.1577 4.75552 44.673 4.62988L44.673 5.71032ZM26.0261 3.736L26.0259 3.736C24.9402 3.73935 23.8259 3.74278 22.6955 3.74278L22.6959 3.74274C18.2593 3.74274 13.4812 3.69249 9.28277 3.42383C13.3151 4.17764 19.1143 4.71108 25.9358 4.71108C32.2046 4.71108 37.6876 4.34775 41.6674 3.70799C40.3108 3.72345 38.845 3.72925 37.1196 3.72925H37.1176L30.6824 3.72345C29.5152 3.72345 28.2797 3.72731 26.9954 3.73311L26.0261 3.736ZM16.7129 5.83594C19.7207 6.07367 22.8943 6.19543 25.9353 6.19543C26.6985 6.19543 27.448 6.18963 28.1839 6.17997V7.67978H16.7129V5.83594ZM8.4469 27.7192C8.4469 29.4935 9.90299 30.9353 11.6948 30.9353C13.4865 30.9353 14.9426 29.4935 14.9426 27.7192C14.9426 25.9449 13.4865 24.5031 11.6948 24.5031C9.90299 24.5031 8.4469 25.9449 8.4469 27.7192ZM38.4271 30.9353C36.6353 30.9353 35.1793 29.4935 35.1793 27.7192C35.1793 25.9449 36.6353 24.5031 38.4271 24.5031C40.2189 24.5031 41.675 25.9449 41.675 27.7192C41.675 29.4935 40.2189 30.9353 38.4271 30.9353ZM38.4261 23.0186C40.7879 23.0186 42.7475 24.7369 43.1086 26.9769H49.169V26.4821H44.6719V24.9978H48.1696V22.2783C48.1696 20.8055 47.9198 19.3927 47.467 18.0707H35.9276C34.9634 18.0707 34.1788 17.2937 34.1788 16.3389V12.3806C34.1788 11.4258 34.9634 10.6488 35.9276 10.6488H41.0357C39.2067 9.70365 37.1279 9.16443 34.9263 9.16443H9.4471C6.82773 9.16443 4.69828 11.275 4.69828 13.8669V16.5863H12.2283V18.0707H4.69828V24.9978H5.69762V26.4821H2.6996V26.9769H7.01121C7.37427 24.7369 9.33193 23.0186 11.6937 23.0186C14.0554 23.0186 16.015 24.7369 16.3761 26.9769H33.7437C34.1067 24.7369 36.0644 23.0186 38.4261 23.0186Z" fill="white"/>
<path d="M49.6697 25.0226L49.7533 25.3107L49.9697 25.2479V25.0226H49.6697ZM49.6693 25.0227L49.5857 24.7346L49.6094 25.3167L49.6693 25.0227ZM49.6693 28.436L49.6094 28.142L49.3693 28.1909V28.436H49.6693ZM49.6693 28.4611V28.7611H49.9693V28.4611H49.6693ZM43.1091 28.4611V28.1611H42.8538L42.813 28.4131L43.1091 28.4611ZM33.7461 28.4611L34.0423 28.4134L34.0016 28.1611H33.7461V28.4611ZM16.3766 28.4611V28.1611H16.1213L16.0804 28.4131L16.3766 28.4611ZM7.01166 28.4611L7.30783 28.4133L7.26714 28.1611H7.01166V28.4611ZM3.19973 28.4611V28.1611L3.19896 28.1611L3.19973 28.4611ZM2.45217 28.463V28.763L2.45295 28.763L2.45217 28.463ZM3.19973 24.9976V25.2976H3.49973V24.9976H3.19973ZM9.44761 7.67986V7.97986L9.44781 7.97986L9.44761 7.67986ZM15.2133 7.67599L15.2135 7.97599L15.5133 7.97579V7.67599H15.2133ZM15.2133 5.70261H15.5133V5.4296L15.2415 5.40394L15.2133 5.70261ZM2.41925 2.5116L2.63034 2.29843L2.62943 2.29754L2.41925 2.5116ZM2.28457 1.64379L2.01974 1.50284L2.01935 1.50358L2.28457 1.64379ZM3.08094 1.25723L3.0281 1.55254L3.02859 1.55263L3.08094 1.25723ZM26.989 2.2468L26.9881 1.9468L26.9878 1.9468L26.989 2.2468ZM28.0357 2.24334L28.0367 2.54334L28.0372 2.54334L28.0357 2.24334ZM28.0357 2.24334L28.0347 1.94335L28.0342 1.94335L28.0357 2.24334ZM30.6819 2.23714L30.682 1.93714H30.6819V2.23714ZM37.1151 2.23907L37.115 2.53907H37.1151V2.23907ZM47.6316 2.04193L47.6198 1.74215L47.6172 1.74228L47.6316 2.04193ZM48.3889 2.57922L48.6771 2.49583V2.49583L48.3889 2.57922ZM48.0357 3.4316L48.1812 3.69392L48.1814 3.69382L48.0357 3.4316ZM46.1697 4.20857L46.0772 3.92317L45.8697 3.99041V4.20857H46.1697ZM45.2074 7.25851L45.3414 7.52696L45.3416 7.52685L45.2074 7.25851ZM43.3786 7.10389L43.5565 6.86233L43.5562 6.8621L43.3786 7.10389ZM40.9603 5.32769L41.1379 5.0859L41.0389 5.01323L40.9174 5.03077L40.9603 5.32769ZM29.6827 6.15493L29.6758 5.85501L29.3827 5.86173V6.15493H29.6827ZM29.6827 7.68181H29.3827V7.98192L29.6828 7.98181L29.6827 7.68181ZM34.9273 7.67988V7.37988H34.9272L34.9273 7.67988ZM43.8259 10.6486L44.0094 10.4113L44.0062 10.4089L43.8259 10.6486ZM44.0308 10.8071L44.2152 10.5705L44.2144 10.5698L44.0308 10.8071ZM48.6879 17.0479L48.4083 17.1566L48.4136 17.1702L48.4201 17.1831L48.6879 17.0479ZM48.6938 17.0595L48.9708 16.9443L48.9665 16.9342L48.9616 16.9243L48.6938 17.0595ZM48.7074 17.0924L48.9902 16.9921L48.9875 16.9846L48.9844 16.9772L48.7074 17.0924ZM48.7505 17.2053L48.4716 17.3157L48.7505 17.2053ZM48.7875 17.3011L48.5056 17.4039L48.5079 17.4099L48.7875 17.3011ZM49.0861 18.0684V18.3684H49.5248L49.3657 17.9596L49.0861 18.0684ZM49.0431 18.0684V17.7684H48.6382L48.7562 18.1558L49.0431 18.0684ZM46.8534 16.5859V16.8859H47.3343L47.1229 16.454L46.8534 16.5859ZM43.303 12.1328L43.492 11.8998L43.4094 11.8328H43.303V12.1328ZM44.5344 5.93259L44.4013 5.66374L44.4013 5.66374L44.5344 5.93259ZM44.673 5.71032L44.373 5.71032V5.71032H44.673ZM44.2729 5.90939L44.4508 5.66788L44.4503 5.66749L44.2729 5.90939ZM43.0159 4.98745L42.9598 4.69273L42.2825 4.82155L42.8385 5.22936L43.0159 4.98745ZM44.673 4.62988L44.973 4.62988L44.973 4.24795L44.6019 4.33842L44.673 4.62988ZM26.0259 3.736L26.0268 4.036L26.027 4.036L26.0259 3.736ZM26.0261 3.736L26.0252 3.43601L26.025 3.43601L26.0261 3.736ZM22.6955 3.74278L22.6682 3.44402L22.6955 4.04278V3.74278ZM22.6959 3.74274L22.7232 4.0415L22.6959 3.44274V3.74274ZM9.28277 3.42383L9.30193 3.12444L9.22765 3.71872L9.28277 3.42383ZM41.6674 3.70799L41.715 4.00418L41.664 3.40801L41.6674 3.70799ZM37.1176 3.72925L37.1174 4.02925H37.1176V3.72925ZM30.6824 3.72345L30.6827 3.42345H30.6824V3.72345ZM26.9954 3.73311L26.9963 4.03311L26.9967 4.03311L26.9954 3.73311ZM16.7129 5.83594L16.7366 5.53687L16.4129 5.51129V5.83594H16.7129ZM28.1839 6.17997H28.4839V5.87601L28.1799 5.88L28.1839 6.17997ZM28.1839 7.67978V7.97978H28.4839V7.67978H28.1839ZM16.7129 7.67978H16.4129V7.97978H16.7129V7.67978ZM43.1086 26.9769L42.8124 27.0247L42.8531 27.2769H43.1086V26.9769ZM49.169 26.9769V27.2769H49.469V26.9769H49.169ZM49.169 26.4821H49.469V26.1821H49.169V26.4821ZM44.6719 26.4821H44.3719V26.7821H44.6719V26.4821ZM44.6719 24.9978V24.6978H44.3719V24.9978H44.6719ZM48.1696 24.9978V25.2978H48.4696V24.9978H48.1696ZM47.467 18.0707L47.7508 17.9735L47.6814 17.7707H47.467V18.0707ZM41.0357 10.6488V10.9488L41.1735 10.3823L41.0357 10.6488ZM4.69828 16.5863H4.39828V16.8863H4.69828V16.5863ZM12.2283 16.5863H12.5283V16.2863H12.2283V16.5863ZM12.2283 18.0707V18.3707H12.5283V18.0707H12.2283ZM4.69828 18.0707V17.7707H4.39828V18.0707H4.69828ZM4.69828 24.9978H4.39828V25.2978H4.69828V24.9978ZM5.69762 24.9978H5.99762V24.6978H5.69762V24.9978ZM5.69762 26.4821V26.7821H5.99762V26.4821H5.69762ZM2.6996 26.4821V26.1821H2.3996V26.4821H2.6996ZM2.6996 26.9769H2.3996V27.2769H2.6996V26.9769ZM7.01121 26.9769V27.2769H7.2665L7.30734 27.0249L7.01121 26.9769ZM16.3761 26.9769L16.0799 27.0247L16.1206 27.2769H16.3761V26.9769ZM33.7437 26.9769V27.2769H33.999L34.0398 27.0249L33.7437 26.9769ZM49.9697 25.0226V22.2761H49.3697V25.0226H49.9697ZM49.7529 25.3108L49.7533 25.3107L49.5861 24.7345L49.5857 24.7346L49.7529 25.3108ZM50.9686 26.2346C50.9686 25.4914 50.4335 24.8721 49.7291 24.7287L49.6094 25.3167C50.0449 25.4053 50.3686 25.7872 50.3686 26.2346H50.9686ZM50.9686 27.2222V26.2346H50.3686V27.2222H50.9686ZM49.7291 28.73C50.4335 28.5866 50.9686 27.9693 50.9686 27.2222H50.3686C50.3686 27.6734 50.0448 28.0534 49.6094 28.142L49.7291 28.73ZM49.9693 28.4611V28.436H49.3693V28.4611H49.9693ZM43.1091 28.7611H49.6693V28.1611H43.1091V28.7611ZM38.4266 32.7194C40.9367 32.7194 43.0188 30.8933 43.4052 28.5091L42.813 28.4131C42.4732 30.5091 40.64 32.1194 38.4266 32.1194V32.7194ZM33.4499 28.5088C33.8343 30.8933 35.9166 32.7194 38.4266 32.7194V32.1194C36.2132 32.1194 34.3801 30.5091 34.0423 28.4134L33.4499 28.5088ZM16.3766 28.7611H33.7461V28.1611H16.3766V28.7611ZM11.6941 32.7194C14.2042 32.7194 16.2863 30.8933 16.6727 28.5091L16.0804 28.4131C15.7407 30.5091 13.9075 32.1194 11.6941 32.1194V32.7194ZM6.71549 28.5089C7.09988 30.8914 9.18413 32.7194 11.6941 32.7194V32.1194C9.48064 32.1194 7.64564 30.5071 7.30783 28.4133L6.71549 28.5089ZM3.19973 28.7611H7.01166V28.1611H3.19973V28.7611ZM2.45295 28.763L3.20051 28.7611L3.19896 28.1611L2.4514 28.163L2.45295 28.763ZM0.90105 27.2241C0.90105 28.0745 1.59802 28.763 2.45217 28.763V28.163C1.92444 28.163 1.50105 27.7382 1.50105 27.2241H0.90105ZM0.90105 26.2365V27.2241H1.50105V26.2365H0.90105ZM2.45217 24.6976C1.60058 24.6976 0.90105 25.3835 0.90105 26.2365H1.50105C1.50105 25.721 1.92578 25.2976 2.45217 25.2976V24.6976ZM3.19973 24.6976H2.45217V25.2976H3.19973V24.6976ZM2.89973 13.8667V24.9976H3.49973V13.8667H2.89973ZM9.44761 7.37986C5.83973 7.37986 2.89973 10.2869 2.89973 13.8667H3.49973C3.49973 10.6238 6.16553 7.97986 9.44761 7.97986V7.37986ZM15.2131 7.37599L9.44741 7.37986L9.44781 7.97986L15.2135 7.97599L15.2131 7.37599ZM14.9133 5.70261V7.67599H15.5133V5.70261H14.9133ZM2.20816 2.72477C2.63894 3.15135 3.29546 3.52598 4.1073 3.85858C4.92392 4.19315 5.9204 4.4942 7.0512 4.76284C9.31306 5.3002 12.1367 5.71356 15.1851 6.00129L15.2415 5.40394C12.2084 5.11766 9.41479 4.70767 7.18988 4.17909C6.07728 3.91477 5.113 3.62221 4.33476 3.30337C3.55174 2.98257 2.97931 2.64401 2.63033 2.29843L2.20816 2.72477ZM2.01935 1.50358C1.80514 1.90879 1.8821 2.40465 2.20907 2.72567L2.62943 2.29754C2.49185 2.16246 2.45951 1.95476 2.54979 1.784L2.01935 1.50358ZM3.13379 0.961925C2.68072 0.880843 2.23274 1.10265 2.01974 1.50284L2.5494 1.78474C2.6409 1.61282 2.83315 1.51765 3.0281 1.55254L3.13379 0.961925ZM22.693 1.95646C15.7813 1.95646 8.07564 1.8377 3.13329 0.961836L3.02859 1.55263C8.03268 2.43943 15.7938 2.55646 22.693 2.55646V1.95646ZM26.9878 1.9468C25.6023 1.9526 24.1603 1.95646 22.693 1.95646V2.55646C24.1613 2.55646 25.6042 2.5526 26.9903 2.5468L26.9878 1.9468ZM28.0346 1.94335C27.6897 1.94454 27.3407 1.94574 26.9881 1.9468L26.9899 2.5468C27.3427 2.54574 27.6918 2.54453 28.0367 2.54334L28.0346 1.94335ZM28.0342 1.94335L28.0341 1.94335L28.0372 2.54334L28.0373 2.54334L28.0342 1.94335ZM30.6819 1.93714C29.8327 1.93714 28.9476 1.94019 28.0347 1.94335L28.0367 2.54334C28.9499 2.54019 29.8339 2.53714 30.6819 2.53714V1.93714ZM37.1152 1.93907L30.682 1.93714L30.6818 2.53714L37.115 2.53907L37.1152 1.93907ZM37.1171 1.93907H37.1151V2.53907H37.1171V1.93907ZM47.6172 1.74228C44.1462 1.91008 41.4701 1.93907 37.1171 1.93907V2.53907C41.4733 2.53907 44.1608 2.51007 47.6461 2.34158L47.6172 1.74228ZM48.6771 2.49583C48.5416 2.02741 48.0955 1.72338 47.6198 1.74216L47.6435 2.34169C47.8548 2.33335 48.045 2.47001 48.1008 2.66261L48.6771 2.49583ZM48.1814 3.69382C48.6053 3.45819 48.8119 2.96158 48.6771 2.49583L48.1008 2.66261C48.1573 2.85791 48.0711 3.0687 47.8899 3.16938L48.1814 3.69382ZM46.2622 4.49396C47.0138 4.25045 47.6576 3.98445 48.1812 3.69392L47.8901 3.16927C47.4105 3.43539 46.8051 3.68736 46.0772 3.92317L46.2622 4.49396ZM46.4697 5.71036V4.20857H45.8697V5.71036H46.4697ZM45.3416 7.52685C46.0453 7.17505 46.4697 6.49394 46.4697 5.71036H45.8697C45.8697 6.2643 45.5758 6.73895 45.0733 6.99018L45.3416 7.52685ZM44.415 7.74986C44.7307 7.74986 45.0457 7.67445 45.3414 7.52696L45.0735 6.99007C44.8578 7.0977 44.6341 7.14986 44.415 7.14986V7.74986ZM43.2007 7.34545C43.5639 7.61295 43.9872 7.74986 44.415 7.74986V7.14986C44.1168 7.14986 43.8179 7.05483 43.5565 6.86233L43.2007 7.34545ZM40.7827 5.56948L43.201 7.34568L43.5562 6.8621L41.1379 5.0859L40.7827 5.56948ZM29.6896 6.45485C34.0812 6.35417 37.9077 6.0714 41.0031 5.62461L40.9174 5.03077C37.8529 5.47308 34.0518 5.75469 29.6758 5.85501L29.6896 6.45485ZM29.9827 7.68181V6.15493H29.3827V7.68181H29.9827ZM34.9272 7.37988L29.6826 7.38181L29.6828 7.98181L34.9274 7.97988L34.9272 7.37988ZM44.0062 10.4089C41.4812 8.50993 38.3364 7.37988 34.9273 7.37988V7.97988C38.2017 7.97988 41.2208 9.06481 43.6456 10.8884L44.0062 10.4089ZM44.2144 10.5698L44.0094 10.4113L43.6424 10.8859L43.8473 11.0444L44.2144 10.5698ZM48.9675 16.9392C47.9852 14.4118 46.3279 12.2168 44.2152 10.5705L43.8464 11.0437C45.8755 12.6249 47.466 14.7322 48.4083 17.1566L48.9675 16.9392ZM48.9616 16.9243L48.9557 16.9127L48.4201 17.1831L48.426 17.1947L48.9616 16.9243ZM48.9844 16.9772L48.9708 16.9443L48.4168 17.1747L48.4304 17.2075L48.9844 16.9772ZM49.0295 17.0949C49.0145 17.057 49.0017 17.0246 48.9902 16.9921L48.4247 17.1927C48.4404 17.237 48.4572 17.2793 48.4716 17.3157L49.0295 17.0949ZM49.0693 17.1983C49.0559 17.1617 49.0419 17.1262 49.0295 17.0949L48.4716 17.3157C48.4845 17.3482 48.4955 17.3762 48.5056 17.4039L49.0693 17.1983ZM49.3657 17.9596L49.067 17.1923L48.5079 17.4099L48.8065 18.1772L49.3657 17.9596ZM49.0431 18.3684H49.0861V17.7684H49.0431V18.3684ZM49.9697 22.2761C49.9697 20.7846 49.7445 19.3423 49.3301 17.9811L48.7562 18.1558C49.1537 19.4618 49.3697 20.8453 49.3697 22.2761H49.9697ZM46.8532 16.2859H35.9289V16.8859H46.8532V16.2859ZM46.8534 16.2859H46.8532V16.8859H46.8534V16.2859ZM43.114 12.3658C44.5813 13.5561 45.7639 15.0428 46.584 16.7178L47.1229 16.454C46.2643 14.7003 45.0266 13.1448 43.492 11.8998L43.114 12.3658ZM35.9289 12.4328H43.303V11.8328H35.9289V12.4328ZM35.979 12.3802C35.979 12.4011 35.9702 12.414 35.9646 12.4197C35.9589 12.4253 35.9472 12.4328 35.9289 12.4328V11.8328C35.6313 11.8328 35.379 12.0784 35.379 12.3802H35.979ZM35.979 16.3385V12.3802H35.379V16.3385H35.979ZM35.9289 16.2859C35.9472 16.2859 35.9589 16.2934 35.9646 16.2991C35.9702 16.3047 35.979 16.3176 35.979 16.3385H35.379C35.379 16.6404 35.6313 16.8859 35.9289 16.8859V16.2859ZM44.6675 6.20144C44.7546 6.15832 44.836 6.0937 44.8937 6.00063C44.9515 5.90757 44.973 5.80635 44.973 5.71032H44.373C44.373 5.71406 44.3726 5.7124 44.374 5.70689C44.3755 5.70103 44.3785 5.69295 44.3839 5.68431C44.3893 5.67567 44.3951 5.66944 44.3995 5.66562C44.4037 5.66204 44.4051 5.66186 44.4013 5.66374L44.6675 6.20144ZM44.0949 6.1509C44.1711 6.2071 44.2642 6.25063 44.3732 6.26038C44.4823 6.27015 44.582 6.2438 44.6675 6.20144L44.4013 5.66374C44.3967 5.666 44.3973 5.66512 44.4024 5.664C44.408 5.6628 44.4165 5.66186 44.4267 5.66277C44.4369 5.66369 44.445 5.66611 44.4501 5.66821C44.4548 5.67014 44.4551 5.67101 44.4508 5.66788L44.0949 6.1509ZM42.8385 5.22936L44.0954 6.1513L44.4503 5.66749L43.1933 4.74554L42.8385 5.22936ZM44.6019 4.33842C44.0919 4.46277 43.5446 4.58153 42.9598 4.69273L43.0719 5.28217C43.6661 5.16917 44.2235 5.04826 44.744 4.92134L44.6019 4.33842ZM44.973 5.71032L44.973 4.62988L44.373 4.62988L44.373 5.71032L44.973 5.71032ZM26.027 4.036L26.0272 4.036L26.025 3.43601L26.0248 3.43601L26.027 4.036ZM22.6955 4.04278C23.8264 4.04278 24.9412 4.03935 26.0268 4.036L26.0249 3.43601C24.9392 3.43935 23.8254 3.44278 22.6955 3.44278V4.04278ZM22.6687 3.44398L22.6682 3.44402L22.7227 4.04154L22.7232 4.0415L22.6687 3.44398ZM9.26362 3.72322C13.4722 3.99252 18.2585 4.04274 22.6959 4.04274V3.44274C18.2602 3.44274 13.4901 3.39245 9.30193 3.12444L9.26362 3.72322ZM25.9358 4.41108C19.1279 4.41108 13.3478 3.87856 9.3379 3.12894L9.22765 3.71872C13.2824 4.47673 19.1007 5.01108 25.9358 5.01108V4.41108ZM41.6198 3.41179C37.6613 4.04814 32.1955 4.41108 25.9358 4.41108V5.01108C32.2138 5.01108 37.714 4.64737 41.715 4.00418L41.6198 3.41179ZM37.1196 4.02925C38.8456 4.02925 40.3127 4.02345 41.6708 4.00797L41.664 3.40801C40.309 3.42345 38.8444 3.42925 37.1196 3.42925V4.02925ZM37.1176 4.02925H37.1196V3.42925H37.1176V4.02925ZM30.6821 4.02345L37.1174 4.02925L37.1179 3.42925L30.6827 3.42345L30.6821 4.02345ZM26.9967 4.03311C28.2808 4.02731 29.5158 4.02345 30.6824 4.02345V3.42345C29.5146 3.42345 28.2786 3.42732 26.994 3.43312L26.9967 4.03311ZM26.0269 4.036L26.9963 4.03311L26.9945 3.43311L26.0252 3.43601L26.0269 4.036ZM25.9353 5.89543C22.902 5.89543 19.7362 5.77396 16.7366 5.53687L16.6893 6.135C19.7052 6.37338 22.8867 6.49543 25.9353 6.49543V5.89543ZM28.1799 5.88C27.4451 5.88965 26.697 5.89543 25.9353 5.89543V6.49543C26.7 6.49543 27.4508 6.48962 28.1878 6.47995L28.1799 5.88ZM28.4839 7.67978V6.17997H27.8839V7.67978H28.4839ZM16.7129 7.97978H28.1839V7.37978H16.7129V7.97978ZM16.4129 5.83594V7.67978H17.0129V5.83594H16.4129ZM11.6948 30.6353C10.0659 30.6353 8.7469 29.325 8.7469 27.7192H8.1469C8.1469 29.6619 9.74008 31.2353 11.6948 31.2353V30.6353ZM14.6426 27.7192C14.6426 29.325 13.3236 30.6353 11.6948 30.6353V31.2353C13.6494 31.2353 15.2426 29.6619 15.2426 27.7192H14.6426ZM11.6948 24.8031C13.3236 24.8031 14.6426 26.1134 14.6426 27.7192H15.2426C15.2426 25.7765 13.6494 24.2031 11.6948 24.2031V24.8031ZM8.7469 27.7192C8.7469 26.1134 10.0659 24.8031 11.6948 24.8031V24.2031C9.74008 24.2031 8.1469 25.7765 8.1469 27.7192H8.7469ZM34.8793 27.7192C34.8793 29.6619 36.4724 31.2353 38.4271 31.2353V30.6353C36.7982 30.6353 35.4793 29.325 35.4793 27.7192H34.8793ZM38.4271 24.2031C36.4724 24.2031 34.8793 25.7765 34.8793 27.7192H35.4793C35.4793 26.1134 36.7982 24.8031 38.4271 24.8031V24.2031ZM41.975 27.7192C41.975 25.7765 40.3818 24.2031 38.4271 24.2031V24.8031C40.056 24.8031 41.375 26.1134 41.375 27.7192H41.975ZM38.4271 31.2353C40.3818 31.2353 41.975 29.6619 41.975 27.7192H41.375C41.375 29.325 40.056 30.6353 38.4271 30.6353V31.2353ZM43.4048 26.9292C43.0204 24.5446 40.936 22.7186 38.4261 22.7186V23.3186C40.6397 23.3186 42.4746 24.9291 42.8124 27.0247L43.4048 26.9292ZM49.169 26.6769H43.1086V27.2769H49.169V26.6769ZM48.869 26.4821V26.9769H49.469V26.4821H48.869ZM44.6719 26.7821H49.169V26.1821H44.6719V26.7821ZM44.3719 24.9978V26.4821H44.9719V24.9978H44.3719ZM48.1696 24.6978H44.6719V25.2978H48.1696V24.6978ZM47.8696 22.2783V24.9978H48.4696V22.2783H47.8696ZM47.1832 18.1679C47.6257 19.4597 47.8696 20.8398 47.8696 22.2783H48.4696C48.4696 20.7713 48.214 19.3257 47.7508 17.9735L47.1832 18.1679ZM35.9276 18.3707H47.467V17.7707H35.9276V18.3707ZM33.8788 16.3389C33.8788 17.4622 34.8005 18.3707 35.9276 18.3707V17.7707C35.1263 17.7707 34.4788 17.1253 34.4788 16.3389H33.8788ZM33.8788 12.3806V16.3389H34.4788V12.3806H33.8788ZM35.9276 10.3488C34.8005 10.3488 33.8788 11.2573 33.8788 12.3806H34.4788C34.4788 11.5942 35.1263 10.9488 35.9276 10.9488V10.3488ZM41.0357 10.3488H35.9276V10.9488H41.0357V10.3488ZM34.9263 9.46443C37.0785 9.46443 39.1101 9.99145 40.898 10.9153L41.1735 10.3823C39.3032 9.41586 37.1774 8.86443 34.9263 8.86443V9.46443ZM9.4471 9.46443H34.9263V8.86443H9.4471V9.46443ZM4.99828 13.8669C4.99828 11.4434 6.99071 9.46443 9.4471 9.46443V8.86443C6.66474 8.86443 4.39828 11.1066 4.39828 13.8669H4.99828ZM4.99828 16.5863V13.8669H4.39828V16.5863H4.99828ZM12.2283 16.2863H4.69828V16.8863H12.2283V16.2863ZM12.5283 18.0707V16.5863H11.9283V18.0707H12.5283ZM4.69828 18.3707H12.2283V17.7707H4.69828V18.3707ZM4.99828 24.9978V18.0707H4.39828V24.9978H4.99828ZM5.69762 24.6978H4.69828V25.2978H5.69762V24.6978ZM5.99762 26.4821V24.9978H5.39762V26.4821H5.99762ZM2.6996 26.7821H5.69762V26.1821H2.6996V26.7821ZM2.9996 26.9769V26.4821H2.3996V26.9769H2.9996ZM7.01121 26.6769H2.6996V27.2769H7.01121V26.6769ZM11.6937 22.7186C9.18358 22.7186 7.10148 24.5448 6.71507 26.9289L7.30734 27.0249C7.64705 24.9289 9.48028 23.3186 11.6937 23.3186V22.7186ZM16.6723 26.9292C16.2879 24.5446 14.2036 22.7186 11.6937 22.7186V23.3186C13.9073 23.3186 15.7422 24.9291 16.0799 27.0247L16.6723 26.9292ZM33.7437 26.6769H16.3761V27.2769H33.7437V26.6769ZM38.4261 22.7186C35.916 22.7186 33.8339 24.5448 33.4475 26.9289L34.0398 27.0249C34.3795 24.9289 36.2127 23.3186 38.4261 23.3186V22.7186Z" fill="#222532"/>
<path fill-rule="evenodd" clip-rule="evenodd" d="M23.6868 12.3802V16.3385C23.6868 17.2933 22.9022 18.0703 21.938 18.0703H16.9413C15.9771 18.0703 15.1924 17.2933 15.1924 16.3385V12.3802C15.1924 11.4254 15.9771 10.6484 16.9413 10.6484H21.938C22.9022 10.6484 23.6868 11.4254 23.6868 12.3802ZM16.6905 12.3802V16.3385C16.6905 16.4738 16.8056 16.5859 16.9403 16.5859H21.937C22.0717 16.5859 22.1868 16.4719 22.1868 16.3385V12.3802C22.1868 12.2468 22.0717 12.1328 21.937 12.1328H16.9403C16.8056 12.1328 16.6905 12.2468 16.6905 12.3802Z" fill="white"/>
<path d="M23.9868 16.3385V12.3802H23.3868V16.3385H23.9868ZM21.938 18.3703C23.0651 18.3703 23.9868 17.4618 23.9868 16.3385H23.3868C23.3868 17.1249 22.7393 17.7703 21.938 17.7703V18.3703ZM16.9413 18.3703H21.938V17.7703H16.9413V18.3703ZM14.8924 16.3385C14.8924 17.4618 15.8142 18.3703 16.9413 18.3703V17.7703C16.14 17.7703 15.4924 17.1249 15.4924 16.3385H14.8924ZM14.8924 12.3802V16.3385H15.4924V12.3802H14.8924ZM16.9413 10.3484C15.8142 10.3484 14.8924 11.257 14.8924 12.3802H15.4924C15.4924 11.5939 16.14 10.9484 16.9413 10.9484V10.3484ZM21.938 10.3484H16.9413V10.9484H21.938V10.3484ZM23.9868 12.3802C23.9868 11.257 23.0651 10.3484 21.938 10.3484V10.9484C22.7393 10.9484 23.3868 11.5939 23.3868 12.3802H23.9868ZM16.9905 16.3385V12.3802H16.3905V16.3385H16.9905ZM16.9403 16.2859C16.9571 16.2859 16.9688 16.2928 16.9754 16.2992C16.9822 16.3059 16.9905 16.3193 16.9905 16.3385H16.3905C16.3905 16.6438 16.6443 16.8859 16.9403 16.8859V16.2859ZM21.937 16.2859H16.9403V16.8859H21.937V16.2859ZM21.8868 16.3385C21.8868 16.3176 21.8957 16.3047 21.9013 16.2991C21.907 16.2934 21.9187 16.2859 21.937 16.2859V16.8859C22.2346 16.8859 22.4868 16.6404 22.4868 16.3385H21.8868ZM21.8868 12.3802V16.3385H22.4868V12.3802H21.8868ZM21.937 12.4328C21.9187 12.4328 21.907 12.4253 21.9013 12.4197C21.8957 12.414 21.8868 12.4011 21.8868 12.3802H22.4868C22.4868 12.0784 22.2346 11.8328 21.937 11.8328V12.4328ZM16.9403 12.4328H21.937V11.8328H16.9403V12.4328ZM16.9905 12.3802C16.9905 12.4011 16.9817 12.414 16.976 12.4197C16.9703 12.4253 16.9586 12.4328 16.9403 12.4328V11.8328C16.6427 11.8328 16.3905 12.0784 16.3905 12.3802H16.9905Z" fill="#222532"/>
<path fill-rule="evenodd" clip-rule="evenodd" d="M26.435 10.6484H31.4317C32.3959 10.6484 33.1806 11.4254 33.1806 12.3802V16.3385C33.1806 17.2933 32.3959 18.0703 31.4317 18.0703H26.435C25.4708 18.0703 24.6862 17.2933 24.6862 16.3385V12.3802C24.6862 11.4254 25.4708 10.6484 26.435 10.6484ZM31.4307 16.5859C31.5654 16.5859 31.6806 16.4719 31.6806 16.3385V12.3802C31.6806 12.2468 31.5654 12.1328 31.4307 12.1328H26.434C26.2994 12.1328 26.1842 12.2468 26.1842 12.3802V16.3385C26.1842 16.4719 26.2994 16.5859 26.434 16.5859H31.4307Z" fill="white"/>
<path d="M31.4317 10.3484H26.435V10.9484H31.4317V10.3484ZM33.4806 12.3802C33.4806 11.257 32.5589 10.3484 31.4317 10.3484V10.9484C32.233 10.9484 32.8806 11.5939 32.8806 12.3802H33.4806ZM33.4806 16.3385V12.3802H32.8806V16.3385H33.4806ZM31.4317 18.3703C32.5589 18.3703 33.4806 17.4618 33.4806 16.3385H32.8806C32.8806 17.1249 32.233 17.7703 31.4317 17.7703V18.3703ZM26.435 18.3703H31.4317V17.7703H26.435V18.3703ZM24.3862 16.3385C24.3862 17.4618 25.3079 18.3703 26.435 18.3703V17.7703C25.6337 17.7703 24.9862 17.1249 24.9862 16.3385H24.3862ZM24.3862 12.3802V16.3385H24.9862V12.3802H24.3862ZM26.435 10.3484C25.3079 10.3484 24.3862 11.257 24.3862 12.3802H24.9862C24.9862 11.5939 25.6337 10.9484 26.435 10.9484V10.3484ZM31.3806 16.3385C31.3806 16.3176 31.3894 16.3047 31.3951 16.2991C31.4008 16.2934 31.4124 16.2859 31.4307 16.2859V16.8859C31.7283 16.8859 31.9806 16.6404 31.9806 16.3385H31.3806ZM31.3806 12.3802V16.3385H31.9806V12.3802H31.3806ZM31.4307 12.4328C31.4124 12.4328 31.4008 12.4253 31.3951 12.4197C31.3894 12.414 31.3806 12.4011 31.3806 12.3802H31.9806C31.9806 12.0784 31.7283 11.8328 31.4307 11.8328V12.4328ZM26.434 12.4328H31.4307V11.8328H26.434V12.4328ZM26.4842 12.3802C26.4842 12.4011 26.4754 12.414 26.4697 12.4197C26.464 12.4253 26.4523 12.4328 26.434 12.4328V11.8328C26.1365 11.8328 25.8842 12.0784 25.8842 12.3802H26.4842ZM26.4842 16.3385V12.3802H25.8842V16.3385H26.4842ZM26.434 16.2859C26.4523 16.2859 26.464 16.2934 26.4697 16.2991C26.4754 16.3047 26.4842 16.3176 26.4842 16.3385H25.8842C25.8842 16.6404 26.1365 16.8859 26.434 16.8859V16.2859ZM31.4307 16.2859H26.434V16.8859H31.4307V16.2859Z" fill="#222532"/>
<path fill-rule="evenodd" clip-rule="evenodd" d="M36.4284 27.7188C36.4284 26.6268 37.3243 25.7396 38.4271 25.7396C39.5299 25.7396 40.4258 26.6287 40.4258 27.7188C40.4258 28.8108 39.5299 29.698 38.4271 29.698C37.3243 29.698 36.4284 28.8108 36.4284 27.7188ZM37.9264 27.7188C37.9264 27.9913 38.1508 28.2136 38.4258 28.2136C38.7008 28.2136 38.9251 27.9913 38.9251 27.7188C38.9251 27.4463 38.7008 27.224 38.4258 27.224C38.1508 27.224 37.9264 27.4463 37.9264 27.7188Z" fill="white"/>
<path d="M38.4271 25.4396C37.1614 25.4396 36.1284 26.4583 36.1284 27.7188H36.7284C36.7284 26.7952 37.4872 26.0396 38.4271 26.0396V25.4396ZM40.7258 27.7188C40.7258 26.4605 39.693 25.4396 38.4271 25.4396V26.0396C39.3668 26.0396 40.1258 26.797 40.1258 27.7188H40.7258ZM38.4271 29.998C39.6928 29.998 40.7258 28.9792 40.7258 27.7188H40.1258C40.1258 28.6423 39.367 29.398 38.4271 29.398V29.998ZM36.1284 27.7188C36.1284 28.9792 37.1614 29.998 38.4271 29.998V29.398C37.4872 29.398 36.7284 28.6423 36.7284 27.7188H36.1284ZM38.4258 27.9136C38.3138 27.9136 38.2264 27.823 38.2264 27.7188H37.6264C37.6264 28.1596 37.9877 28.5136 38.4258 28.5136V27.9136ZM38.6251 27.7188C38.6251 27.823 38.5377 27.9136 38.4258 27.9136V28.5136C38.8639 28.5136 39.2251 28.1596 39.2251 27.7188H38.6251ZM38.4258 27.524C38.5377 27.524 38.6251 27.6145 38.6251 27.7188H39.2251C39.2251 27.278 38.8639 26.924 38.4258 26.924V27.524ZM38.2264 27.7188C38.2264 27.6145 38.3138 27.524 38.4258 27.524V26.924C37.9877 26.924 37.6264 27.278 37.6264 27.7188H38.2264Z" fill="#222532"/>
<path fill-rule="evenodd" clip-rule="evenodd" d="M9.69608 27.7188C9.69608 26.6268 10.592 25.7396 11.6948 25.7396C12.7975 25.7396 13.6934 26.6287 13.6934 27.7188C13.6934 28.8108 12.7975 29.698 11.6948 29.698C10.592 29.698 9.69608 28.8089 9.69608 27.7188ZM11.1941 27.7188C11.1941 27.9913 11.4184 28.2136 11.6934 28.2136C11.9685 28.2136 12.1928 27.9913 12.1928 27.7188C12.1928 27.4463 11.9685 27.224 11.6934 27.224C11.4184 27.224 11.1941 27.4463 11.1941 27.7188Z" fill="white"/>
<path d="M11.6948 25.4396C10.4291 25.4396 9.39608 26.4583 9.39608 27.7188H9.99608C9.99608 26.7952 10.7549 26.0396 11.6948 26.0396V25.4396ZM13.9934 27.7188C13.9934 26.4605 12.9606 25.4396 11.6948 25.4396V26.0396C12.6344 26.0396 13.3934 26.797 13.3934 27.7188H13.9934ZM11.6948 29.998C12.9604 29.998 13.9934 28.9792 13.9934 27.7188H13.3934C13.3934 28.6423 12.6346 29.398 11.6948 29.398V29.998ZM9.39608 27.7188C9.39608 28.9771 10.4289 29.998 11.6948 29.998V29.398C10.7551 29.398 9.99608 28.6406 9.99608 27.7188H9.39608ZM11.6934 27.9136C11.5815 27.9136 11.4941 27.823 11.4941 27.7188H10.8941C10.8941 28.1596 11.2553 28.5136 11.6934 28.5136V27.9136ZM11.8928 27.7188C11.8928 27.823 11.8054 27.9136 11.6934 27.9136V28.5136C12.1316 28.5136 12.4928 28.1596 12.4928 27.7188H11.8928ZM11.6934 27.524C11.8054 27.524 11.8928 27.6145 11.8928 27.7188H12.4928C12.4928 27.278 12.1316 26.924 11.6934 26.924V27.524ZM11.4941 27.7188C11.4941 27.6145 11.5815 27.524 11.6934 27.524V26.924C11.2553 26.924 10.8941 27.278 10.8941 27.7188H11.4941Z" fill="#222532"/>
<path d="M17.1911 24.9974H32.6809V26.4818H17.1911V24.9974Z" fill="white" stroke="#222532" stroke-width="0.6"/>
</svg>
