<svg width="60" height="47" viewBox="0 0 60 47" fill="none" xmlns="http://www.w3.org/2000/svg">
<path fill-rule="evenodd" clip-rule="evenodd" d="M58.7796 43.2033C58.7948 43.1774 58.8074 43.1491 58.8176 43.1207C58.8264 43.101 58.8327 43.0802 58.8392 43.059C58.842 43.0497 58.8449 43.0404 58.8479 43.0311C58.8555 43.0027 58.8631 42.9744 58.8682 42.9461C58.8756 42.9141 58.8782 42.88 58.8806 42.8479L58.8809 42.8446L58.8816 42.839C58.8839 42.8224 58.8859 42.8073 58.8859 42.7903C58.8859 42.7856 58.8853 42.7809 58.8847 42.7762C58.884 42.7715 58.8834 42.7667 58.8834 42.762C58.8834 42.729 58.8784 42.696 58.8733 42.6629L58.8733 42.6629L58.8581 42.5709C58.8568 42.5661 58.8562 42.5608 58.8555 42.5555C58.8549 42.5502 58.8543 42.5449 58.853 42.5402C58.7821 42.2971 56.9532 36.7393 42.003 35.9229C47.7202 14.0579 36.8304 1.75244 36.3339 1.20991C36.1414 0.997516 35.8602 0.877156 35.5613 0.877156L35.4118 0.872437C35.3384 0.872437 35.2675 0.879516 35.1991 0.893676C35.1932 0.895242 35.1873 0.897069 35.1814 0.898896L35.1813 0.89892C35.1695 0.902591 35.1577 0.906263 35.1459 0.907836C35.0952 0.919636 35.0471 0.933796 34.999 0.952676C34.9762 0.962116 34.9559 0.973915 34.9356 0.985716L34.9138 0.997074L34.9137 0.997142C34.8812 1.014 34.8502 1.03014 34.8191 1.04944C34.7963 1.0636 34.776 1.08012 34.7558 1.099C34.7228 1.12496 34.6924 1.15092 34.6621 1.1816C34.6576 1.1871 34.6523 1.191 34.6467 1.19516C34.6426 1.19814 34.6384 1.20126 34.6342 1.2052C34.1377 1.75035 23.1944 14.119 29.0157 36.0903C23.6456 36.5954 20.9247 37.7329 19.0603 38.8822C19.0097 38.3819 18.8703 37.9783 18.5866 37.6668C18.3029 37.3529 17.9001 37.1736 17.4543 37.1594C14.6932 37.0792 12.0259 40.3808 10.5059 42.6535C10.1183 40.9307 9.92075 38.7713 10.7744 37.5536C11.1974 36.9518 11.8738 36.6285 12.8439 36.5695C15.448 36.4114 16.4005 35.4627 16.7424 34.6956C17.135 33.813 16.8868 32.8053 16.0584 31.9297C14.8628 30.6624 12.4184 29.6996 9.64463 30.3981C5.92094 31.335 2.61255 35.5759 1.56656 39.1348C0.758489 41.8818 1.18659 44.2323 2.77486 45.7497C3.16749 46.1249 3.80581 46.132 4.20858 45.7686C4.60881 45.4051 4.61894 44.8081 4.22884 44.4328C2.79 43.057 3.17001 40.8339 3.52213 39.6326C4.52779 36.2154 7.51175 32.8903 10.1742 32.2196C12.0943 31.7335 13.7814 32.3754 14.5362 33.1754C14.82 33.4751 14.9491 33.789 14.8681 33.9731C14.7465 34.2492 14.1081 34.5985 12.7124 34.6834C11.1064 34.7802 9.84998 35.415 9.07486 36.5195C7.00531 39.4742 8.99633 44.8146 9.22937 45.4145C9.36616 45.7685 9.71827 46.0116 10.121 46.0328C10.1413 46.0352 10.1615 46.0352 10.1817 46.0352H10.1818C10.5618 46.0352 10.9139 45.8369 11.0861 45.516C12.4793 42.946 15.1645 39.4128 17.0566 39.0684C17.109 39.6119 16.9503 40.7292 16.8463 41.4618L16.8413 41.4968C16.55 43.5217 16.4082 44.8008 17.1149 45.5513C17.4062 45.8628 17.8191 46.0351 18.2726 46.0351C19.7038 46.0351 20.4156 45.1477 20.9324 44.501C21.4213 43.8898 21.6062 43.7246 21.9684 43.7246C22.3332 43.7246 22.5181 43.8898 23.0045 44.4986L23.0082 44.5032C23.5271 45.1494 24.2364 46.0326 25.6643 46.0326C27.0955 46.0326 27.8073 45.1452 28.3241 44.4986C28.813 43.8874 28.9979 43.7222 29.3602 43.7222C29.7249 43.7222 29.9098 43.8874 30.3962 44.4962L30.3999 44.5008C30.9188 45.147 31.6281 46.0302 33.056 46.0302C34.4897 46.0302 35.199 45.1428 35.7158 44.4962C36.2047 43.8873 36.3871 43.7222 36.7519 43.7222C37.1166 43.7222 37.3016 43.8874 37.7879 44.4962L37.7916 44.5008C38.3106 45.147 39.0198 46.0302 40.4503 46.0302C41.8815 46.0302 42.5933 45.1428 43.1101 44.4962C43.5989 43.885 43.7839 43.7197 44.1461 43.7197C44.5109 43.7197 44.6958 43.8849 45.1822 44.4938L45.1859 44.4983C45.7048 45.1446 46.4141 46.0278 47.842 46.0278C49.2724 46.0278 49.9817 45.1445 50.5007 44.4983L50.5043 44.4938C50.9932 43.8849 51.1756 43.7197 51.5404 43.7197C51.9052 43.7197 52.0901 43.8849 52.5765 44.4962L52.5801 44.5008C53.0991 45.147 53.8083 46.0302 55.2362 46.0302C56.9055 46.0302 57.3184 44.8031 57.516 44.213L57.5212 44.1977C57.5748 44.0382 57.6594 43.7866 57.706 43.7363C57.706 43.7363 57.7465 43.7198 57.8605 43.7198C57.9441 43.7198 58.0252 43.708 58.1037 43.6891C58.1138 43.6868 58.1214 43.6891 58.1316 43.6868C58.1468 43.6836 58.1597 43.6784 58.1727 43.6731C58.1791 43.6705 58.1856 43.6679 58.1924 43.6655C58.2022 43.662 58.212 43.6587 58.2217 43.6554C58.2447 43.6477 58.2673 43.6401 58.2886 43.6301C58.3076 43.622 58.3249 43.613 58.3419 43.6042C58.3545 43.5977 58.3669 43.5913 58.3798 43.5853C58.4051 43.5711 58.433 43.5546 58.4558 43.5404C58.4837 43.5216 58.5115 43.5003 58.5369 43.4767C58.5424 43.4721 58.5478 43.4676 58.553 43.463C58.5695 43.4487 58.5848 43.4344 58.6002 43.4201C58.623 43.3965 58.6458 43.3705 58.6661 43.3469C58.672 43.3391 58.6779 43.3314 58.6838 43.3238C58.6956 43.3086 58.7074 43.2934 58.7192 43.2761C58.7496 43.2572 58.7648 43.2313 58.78 43.203L58.7796 43.2033ZM39.0448 38.8302H36.4255V4.70513C39.3867 9.4086 44.8129 21.256 39.0448 38.8302ZM55.5887 43.6764L55.5938 43.6611L55.593 43.6612C55.7121 43.3072 55.9147 42.7266 56.4137 42.3184C55.2919 40.9968 51.7531 38.2828 41.4813 37.7895C41.2583 38.5377 41.0177 39.2952 40.7542 40.0646C40.6199 40.4563 40.2299 40.723 39.7891 40.723H31.1819C30.7411 40.723 30.351 40.4563 30.2168 40.0646C29.9736 39.3471 29.7507 38.6415 29.5404 37.9453C23.0276 38.5164 20.6972 40.0386 18.9164 41.3224C18.9085 41.3777 18.901 41.4327 18.8934 41.4881C18.8815 41.5746 18.8695 41.6622 18.8556 41.7543C18.7568 42.4434 18.6048 43.5054 18.6352 44.0718C18.8202 43.9703 19.0076 43.7626 19.3116 43.3803L19.3152 43.3758C19.8342 42.7296 20.5435 41.8463 21.9739 41.8463C23.4018 41.8463 24.1111 42.7295 24.6301 43.3758L24.6337 43.3803C25.1201 43.9891 25.305 44.1544 25.6698 44.1544C26.0346 44.1544 26.217 43.9892 26.7059 43.3803L26.7095 43.3758C27.2284 42.7296 27.9378 41.8463 29.3682 41.8463C30.7961 41.8463 31.5054 42.7295 32.0243 43.3758L32.028 43.3803C32.5169 43.9891 32.7018 44.1544 33.064 44.1544C33.4288 44.1544 33.6112 43.9892 34.1001 43.3803C34.6169 42.7337 35.3262 41.8463 36.7599 41.8463C38.1878 41.8463 38.8971 42.7295 39.416 43.3758L39.4197 43.3803C39.9086 43.9916 40.0935 44.1568 40.4583 44.1568C40.8231 44.1568 41.0055 43.9916 41.4944 43.3827L41.498 43.3782C42.017 42.732 42.7263 41.8487 44.1567 41.8487C45.5846 41.8487 46.2939 42.7319 46.8128 43.3782L46.8165 43.3827C47.3029 43.9916 47.4878 44.1568 47.8525 44.1568C48.2173 44.1568 48.4022 43.9915 48.8911 43.3803C49.4079 42.7337 50.1197 41.8463 51.5509 41.8463C52.9814 41.8463 53.6906 42.7295 54.2096 43.3758L54.2133 43.3803C54.7022 43.9891 54.8871 44.1544 55.2493 44.1544C55.3633 44.1544 55.4038 44.1378 55.4038 44.1378C55.4504 44.0875 55.5351 43.8359 55.5887 43.6764Z" fill="white"/>
<path d="M58.8176 43.1207L58.5893 43.0187L58.5854 43.0275L58.5822 43.0365L58.8176 43.1207ZM58.7796 43.2033L58.5638 43.077L58.9306 43.4026L58.7796 43.2033ZM58.8392 43.059L59.0783 43.1319L59.0783 43.1319L58.8392 43.059ZM58.8479 43.0311L59.0853 43.1095L59.0876 43.1027L59.0894 43.0959L58.8479 43.0311ZM58.8682 42.9461L58.6243 42.89L58.6221 42.9021L58.8682 42.9461ZM58.8806 42.8479L58.6314 42.8285L58.6314 42.8288L58.8806 42.8479ZM58.8809 42.8446L58.6331 42.8112L58.6322 42.8182L58.6316 42.8253L58.8809 42.8446ZM58.8816 42.839L58.6339 42.8053L58.6339 42.8056L58.8816 42.839ZM58.8733 42.6629L59.1204 42.6251L59.1186 42.6136L59.1158 42.6023L58.8733 42.6629ZM58.8733 42.6629L58.6266 42.7036L58.6283 42.7137L58.6307 42.7235L58.8733 42.6629ZM58.8581 42.5709L59.1047 42.5301L59.1027 42.518L59.0995 42.5061L58.8581 42.5709ZM58.853 42.5402L59.0945 42.4754L59.093 42.4702L58.853 42.5402ZM42.003 35.9229L41.7611 35.8596L41.6837 36.1558L41.9894 36.1725L42.003 35.9229ZM36.3339 1.20991L36.1487 1.37781L36.1495 1.37869L36.3339 1.20991ZM35.5613 0.877156L35.5534 1.12716H35.5613V0.877156ZM35.4118 0.872437L35.4197 0.622437H35.4118V0.872437ZM35.1991 0.893676L35.1483 0.648484L35.1347 0.652094L35.1991 0.893676ZM35.1814 0.898896L35.2527 1.13854L35.2555 1.13765L35.1814 0.898896ZM35.1813 0.89892L35.1101 0.659273L35.1072 0.660167L35.1813 0.89892ZM35.1459 0.907836L35.1129 0.660021L35.1009 0.661614L35.0892 0.664353L35.1459 0.907836ZM34.999 0.952676L34.9076 0.7199L34.9033 0.721696L34.999 0.952676ZM34.9356 0.985716L35.0513 1.20768L35.0614 1.20175L34.9356 0.985716ZM34.9138 0.997074L34.7983 0.775322L34.7947 0.777306L34.9138 0.997074ZM34.9137 0.997142L35.0289 1.21904L35.0329 1.21691L34.9137 0.997142ZM34.8191 1.04944L34.6872 0.837062L34.6872 0.83707L34.8191 1.04944ZM34.7558 1.099L34.9106 1.29532L34.9187 1.28894L34.9262 1.28191L34.7558 1.099ZM34.6621 1.1816L34.4845 1.00565L34.4754 1.01479L34.4673 1.02481L34.6621 1.1816ZM34.6467 1.19516L34.4984 0.993903L34.4983 0.993939L34.6467 1.19516ZM34.6342 1.2052L34.4638 1.02223L34.4563 1.02925L34.4494 1.03686L34.6342 1.2052ZM29.0157 36.0903L29.0391 36.3392L29.333 36.3116L29.2574 36.0263L29.0157 36.0903ZM19.0603 38.8822L18.8116 38.9074L18.8518 39.3044L19.1915 39.095L19.0603 38.8822ZM18.5866 37.6668L18.4012 37.8345L18.4018 37.8352L18.5866 37.6668ZM17.4543 37.1594L17.4623 36.9096L17.4616 36.9095L17.4543 37.1594ZM10.5059 42.6535L10.262 42.7084L10.3898 43.2767L10.7137 42.7925L10.5059 42.6535ZM10.7744 37.5536L10.5699 37.4098L10.5697 37.4101L10.7744 37.5536ZM12.8439 36.5695L12.8288 36.3199L12.8288 36.3199L12.8439 36.5695ZM16.7424 34.6956L16.9707 34.7974L16.9708 34.7972L16.7424 34.6956ZM16.0584 31.9297L15.8766 32.1013L15.8768 32.1016L16.0584 31.9297ZM9.64463 30.3981L9.70563 30.6405L9.70568 30.6405L9.64463 30.3981ZM1.56656 39.1348L1.80639 39.2053L1.80641 39.2053L1.56656 39.1348ZM2.77486 45.7497L2.94759 45.5689L2.94756 45.5689L2.77486 45.7497ZM4.20858 45.7686L4.37606 45.9542L4.37664 45.9536L4.20858 45.7686ZM4.22884 44.4328L4.40216 44.2527L4.40162 44.2521L4.22884 44.4328ZM3.52213 39.6326L3.2823 39.562L3.28223 39.5623L3.52213 39.6326ZM10.1742 32.2196L10.2353 32.4621L10.2356 32.462L10.1742 32.2196ZM14.5362 33.1754L14.3544 33.347L14.3547 33.3473L14.5362 33.1754ZM14.8681 33.9731L15.0969 34.0738L15.0969 34.0738L14.8681 33.9731ZM12.7124 34.6834L12.7275 34.933L12.7276 34.933L12.7124 34.6834ZM9.07486 36.5195L8.87022 36.3759L8.87009 36.3761L9.07486 36.5195ZM9.22937 45.4145L9.46257 45.3244L9.46241 45.324L9.22937 45.4145ZM10.121 46.0328L10.15 45.7845L10.1421 45.7836L10.1342 45.7832L10.121 46.0328ZM11.0861 45.516L10.8663 45.3968L10.8658 45.3978L11.0861 45.516ZM17.0566 39.0684L17.3055 39.0445L17.2794 38.7738L17.0119 38.8225L17.0566 39.0684ZM16.8463 41.4618L16.5988 41.4266L16.5988 41.4266L16.8463 41.4618ZM16.8413 41.4968L17.0888 41.5324L17.0888 41.532L16.8413 41.4968ZM17.1149 45.5513L17.2975 45.3805L17.2969 45.3799L17.1149 45.5513ZM20.9324 44.501L20.7371 44.3449L20.7371 44.345L20.9324 44.501ZM23.0045 44.4986L22.8092 44.6547L22.8096 44.6552L23.0045 44.4986ZM23.0082 44.5032L23.2031 44.3466L23.2031 44.3466L23.0082 44.5032ZM28.3241 44.4986L28.1289 44.3425L28.1288 44.3425L28.3241 44.4986ZM30.3962 44.4962L30.2009 44.6522L30.2013 44.6527L30.3962 44.4962ZM30.3999 44.5008L30.2049 44.6573L30.205 44.6573L30.3999 44.5008ZM35.7158 44.4962L35.5209 44.3397L35.5205 44.3401L35.7158 44.4962ZM37.7879 44.4962L37.5926 44.6522L37.593 44.6527L37.7879 44.4962ZM37.7916 44.5008L37.5967 44.6573L37.5967 44.6573L37.7916 44.5008ZM43.1101 44.4962L42.9148 44.34L42.9148 44.3401L43.1101 44.4962ZM45.1822 44.4938L44.9869 44.6498L44.9873 44.6503L45.1822 44.4938ZM45.1859 44.4983L45.3808 44.3418L45.3808 44.3418L45.1859 44.4983ZM50.5007 44.4983L50.6956 44.6548L50.6956 44.6548L50.5007 44.4983ZM50.5043 44.4938L50.3094 44.3373L50.3094 44.3373L50.5043 44.4938ZM52.5765 44.4962L52.3808 44.6519L52.3815 44.6528L52.5765 44.4962ZM52.5801 44.5008L52.775 44.3442L52.775 44.3442L52.5801 44.5008ZM57.516 44.213L57.2791 44.1333L57.279 44.1336L57.516 44.213ZM57.5212 44.1977L57.7581 44.2774L57.7582 44.2774L57.5212 44.1977ZM57.706 43.7363L57.6116 43.5048L57.5603 43.5257L57.5227 43.5664L57.706 43.7363ZM58.1037 43.6891L58.047 43.4456L58.0453 43.4461L58.1037 43.6891ZM58.1316 43.6868L58.0809 43.4419L58.0748 43.4433L58.1316 43.6868ZM58.1727 43.6731L58.0788 43.4414L58.0788 43.4414L58.1727 43.6731ZM58.1924 43.6655L58.2749 43.9015L58.2767 43.9009L58.1924 43.6655ZM58.2217 43.6554L58.1418 43.4185L58.1418 43.4185L58.2217 43.6554ZM58.2886 43.6301L58.1898 43.4004L58.1831 43.4035L58.2886 43.6301ZM58.3419 43.6042L58.4568 43.8263L58.4568 43.8263L58.3419 43.6042ZM58.3798 43.5853L58.4854 43.8119L58.4938 43.808L58.5018 43.8035L58.3798 43.5853ZM58.4558 43.5404L58.5878 43.753L58.5961 43.7474L58.4558 43.5404ZM58.5369 43.4767L58.3774 43.2842L58.3718 43.2888L58.3664 43.2938L58.5369 43.4767ZM58.553 43.463L58.389 43.2743L58.389 43.2743L58.553 43.463ZM58.6002 43.4201L58.7709 43.6033L58.78 43.5938L58.6002 43.4201ZM58.6661 43.3469L58.8557 43.5098L58.861 43.5036L58.8659 43.4971L58.6661 43.3469ZM58.6838 43.3238L58.8812 43.4773L58.8812 43.4773L58.6838 43.3238ZM58.7192 43.2761L58.5873 43.0638L58.5425 43.0916L58.5128 43.1351L58.7192 43.2761ZM58.78 43.203L59.0003 43.3212L58.6291 43.0037L58.78 43.203ZM36.4255 38.8302H36.1755V39.0802H36.4255V38.8302ZM39.0448 38.8302V39.0802H39.2259L39.2823 38.9082L39.0448 38.8302ZM36.4255 4.70513L36.6371 4.57194L36.1755 3.83881V4.70513H36.4255ZM55.5938 43.6611L55.8308 43.7408L55.9572 43.3651L55.5637 43.4129L55.5938 43.6611ZM55.5887 43.6764L55.3517 43.5967L55.3517 43.5968L55.5887 43.6764ZM55.593 43.6612L55.3561 43.5815L55.2297 43.9572L55.6232 43.9094L55.593 43.6612ZM56.4137 42.3184L56.572 42.5118L56.7691 42.3506L56.6043 42.1566L56.4137 42.3184ZM41.4813 37.7895L41.4932 37.5398L41.2976 37.5304L41.2417 37.7182L41.4813 37.7895ZM40.7542 40.0646L40.9907 40.1456L40.9908 40.1455L40.7542 40.0646ZM30.2168 40.0646L29.98 40.1448L29.9803 40.1456L30.2168 40.0646ZM29.5404 37.9453L29.7797 37.873L29.721 37.6785L29.5186 37.6963L29.5404 37.9453ZM18.9164 41.3224L18.7702 41.1196L18.684 41.1818L18.6689 41.287L18.9164 41.3224ZM18.8934 41.4881L18.6457 41.4542L18.6457 41.4542L18.8934 41.4881ZM18.8556 41.7543L18.6084 41.717L18.6082 41.7188L18.8556 41.7543ZM18.6352 44.0718L18.3856 44.0852L18.4069 44.4822L18.7555 44.2909L18.6352 44.0718ZM19.3116 43.3803L19.1167 43.2237L19.1159 43.2247L19.3116 43.3803ZM19.3152 43.3758L19.5101 43.5324L19.5101 43.5323L19.3152 43.3758ZM24.6301 43.3758L24.4351 43.5323L24.4351 43.5323L24.6301 43.3758ZM24.6337 43.3803L24.829 43.2243L24.8286 43.2238L24.6337 43.3803ZM26.7059 43.3803L26.5109 43.2237L26.5109 43.2238L26.7059 43.3803ZM26.7095 43.3758L26.9044 43.5324L26.9044 43.5323L26.7095 43.3758ZM32.0243 43.3758L31.8294 43.5323L31.8294 43.5323L32.0243 43.3758ZM32.028 43.3803L32.2229 43.2238L32.2229 43.2237L32.028 43.3803ZM34.1001 43.3803L34.295 43.5368L34.2954 43.5364L34.1001 43.3803ZM39.416 43.3758L39.611 43.2192L39.611 43.2192L39.416 43.3758ZM39.4197 43.3803L39.6149 43.2242L39.6146 43.2238L39.4197 43.3803ZM41.4944 43.3827L41.2995 43.2261L41.2994 43.2262L41.4944 43.3827ZM41.498 43.3782L41.6928 43.5348L41.6929 43.5347L41.498 43.3782ZM46.8128 43.3782L46.6179 43.5347L46.6179 43.5347L46.8128 43.3782ZM46.8165 43.3827L47.0118 43.2267L47.0114 43.2262L46.8165 43.3827ZM48.8911 43.3803L49.0864 43.5365L49.0864 43.5364L48.8911 43.3803ZM54.2096 43.3758L54.4045 43.2192L54.4045 43.2192L54.2096 43.3758ZM54.2133 43.3803L54.0183 43.5368L54.0183 43.5368L54.2133 43.3803ZM55.4038 44.1378L55.4982 44.3693L55.5495 44.3484L55.5872 44.3078L55.4038 44.1378ZM58.5822 43.0365C58.5763 43.0529 58.5698 43.0667 58.5638 43.077L58.9953 43.3297C59.0197 43.288 59.0385 43.2452 59.0529 43.205L58.5822 43.0365ZM58.6001 42.986C58.5928 43.0099 58.5907 43.0156 58.5893 43.0187L59.0458 43.2228C59.062 43.1865 59.0727 43.1505 59.0783 43.1319L58.6001 42.986ZM58.6106 42.9527C58.6064 42.9652 58.6028 42.9772 58.6001 42.9861L59.0783 43.1319C59.0813 43.1223 59.0833 43.1156 59.0853 43.1095L58.6106 42.9527ZM58.6221 42.9021C58.6192 42.9181 58.6146 42.9361 58.6065 42.9663L59.0894 43.0959C59.0965 43.0694 59.107 43.0307 59.1143 42.9901L58.6221 42.9021ZM58.6314 42.8288C58.6286 42.8644 58.627 42.8795 58.6246 42.8901L59.1119 43.0021C59.1241 42.9487 59.1277 42.8955 59.1299 42.8669L58.6314 42.8288ZM58.6316 42.8253L58.6314 42.8285L59.1299 42.8672L59.1301 42.864L58.6316 42.8253ZM58.6339 42.8056L58.6331 42.8112L59.1286 42.8781L59.1294 42.8725L58.6339 42.8056ZM58.6359 42.7903C58.6359 42.7886 58.6361 42.7881 58.6359 42.79C58.6356 42.7928 58.6352 42.7963 58.6339 42.8053L59.1294 42.8727C59.1314 42.8579 59.1359 42.8267 59.1359 42.7903H58.6359ZM58.6369 42.8094C58.6373 42.8125 58.6371 42.8107 58.6368 42.8083C58.6365 42.8054 58.6359 42.7989 58.6359 42.7903H59.1359C59.1359 42.7661 59.1327 42.7448 59.1325 42.7429L58.6369 42.8094ZM58.6334 42.762C58.6334 42.7862 58.6366 42.8074 58.6369 42.8094L59.1325 42.7429C59.1321 42.74 59.1323 42.7417 59.1326 42.7442C59.1329 42.7471 59.1334 42.7535 59.1334 42.762H58.6334ZM58.6262 42.7008C58.6318 42.7372 58.6334 42.7513 58.6334 42.762H59.1334C59.1334 42.7067 59.125 42.6547 59.1204 42.6251L58.6262 42.7008ZM58.6307 42.7235L58.6308 42.7236L59.1158 42.6023L59.1158 42.6023L58.6307 42.7235ZM58.6114 42.6116L58.6266 42.7036L59.1199 42.6222L59.1047 42.5301L58.6114 42.6116ZM58.6073 42.5851C58.6074 42.5862 58.6098 42.6103 58.6166 42.6357L59.0995 42.5061C59.1021 42.5157 59.1033 42.523 59.1037 42.5255C59.104 42.5278 59.1042 42.5293 59.1038 42.5259L58.6073 42.5851ZM58.6116 42.605C58.609 42.5953 58.6078 42.588 58.6074 42.5855C58.6071 42.5833 58.6069 42.5817 58.6073 42.5851L59.1038 42.5259C59.1037 42.5248 59.1013 42.5007 59.0945 42.4754L58.6116 42.605ZM41.9894 36.1725C49.4363 36.5792 53.5843 38.1653 55.8712 39.656C58.1538 41.1438 58.5935 42.5434 58.613 42.6102L59.093 42.4702C59.0416 42.2939 58.5314 40.7931 56.1442 39.2371C53.7615 37.684 49.5199 36.083 42.0166 35.6732L41.9894 36.1725ZM36.1495 1.37869C36.6154 1.88782 47.4485 14.1088 41.7611 35.8596L42.2449 35.9861C47.9919 14.007 37.0454 1.61707 36.5183 1.04114L36.1495 1.37869ZM35.5613 1.12716C35.7937 1.12716 36.0062 1.22066 36.1487 1.37781L36.5191 1.04202C36.2765 0.774368 35.9267 0.627156 35.5613 0.627156V1.12716ZM35.404 1.12231L35.5534 1.12703L35.5692 0.627281L35.4197 0.622561L35.404 1.12231ZM35.2498 1.13848C35.3006 1.12795 35.3545 1.12244 35.4118 1.12244V0.622437C35.3222 0.622437 35.2343 0.631082 35.1484 0.648869L35.2498 1.13848ZM35.2555 1.13765C35.2587 1.13668 35.2604 1.13614 35.262 1.13568C35.2634 1.13526 35.2637 1.13518 35.2634 1.13526L35.1347 0.652094C35.1231 0.655195 35.1123 0.658577 35.1073 0.660138L35.2555 1.13765ZM35.2526 1.13855L35.2527 1.13853L35.1102 0.659266L35.1101 0.65929L35.2526 1.13855ZM35.1789 1.15565C35.2153 1.1508 35.2477 1.1401 35.2555 1.13767L35.1072 0.660167C35.104 0.661149 35.1023 0.661688 35.1008 0.662148C35.0993 0.66257 35.099 0.662657 35.0993 0.662577C35.0997 0.662482 35.1048 0.6611 35.1129 0.660021L35.1789 1.15565ZM35.0902 1.18541C35.1249 1.17182 35.1611 1.16098 35.2026 1.15132L35.0892 0.664353C35.0293 0.678289 34.9693 0.695769 34.9077 0.719941L35.0902 1.18541ZM35.0614 1.20175C35.0722 1.19551 35.0785 1.19182 35.0845 1.18862C35.09 1.1857 35.093 1.18433 35.0946 1.18366L34.9033 0.721696C34.8625 0.738578 34.8282 0.758972 34.8098 0.769678L35.0614 1.20175ZM35.0293 1.2188L35.0511 1.20744L34.8201 0.763994L34.7983 0.775353L35.0293 1.2188ZM35.0329 1.21691L35.033 1.21684L34.7947 0.777306L34.7945 0.777374L35.0329 1.21691ZM34.951 1.26181C34.9726 1.24838 34.9953 1.23649 35.0289 1.219L34.7985 0.775284C34.7672 0.791504 34.7277 0.811899 34.6872 0.837062L34.951 1.26181ZM34.9262 1.28191C34.9388 1.27013 34.9461 1.26483 34.951 1.2618L34.6872 0.83707C34.6465 0.862367 34.6132 0.890105 34.5854 0.916084L34.9262 1.28191ZM34.8397 1.35755C34.8607 1.33634 34.8827 1.31725 34.9106 1.29532L34.601 0.902669C34.563 0.932659 34.5242 0.965491 34.4845 1.00565L34.8397 1.35755ZM34.795 1.39641C34.7971 1.39485 34.8289 1.373 34.8568 1.33838L34.4673 1.02481C34.4777 1.01197 34.4874 1.00304 34.4934 0.997965C34.4983 0.993845 34.5024 0.990952 34.4984 0.993903L34.795 1.39641ZM34.8045 1.38816C34.8003 1.39209 34.7969 1.39488 34.795 1.39633C34.7936 1.39746 34.7926 1.39817 34.795 1.39638L34.4983 0.993939C34.4952 0.996226 34.48 1.00721 34.4638 1.02223L34.8045 1.38816ZM29.2574 36.0263C23.4664 14.1695 34.3527 1.88559 34.819 1.37353L34.4494 1.03686C33.9227 1.61511 22.9224 14.0685 28.7741 36.1544L29.2574 36.0263ZM19.1915 39.095C21.017 37.9697 23.6992 36.8414 29.0391 36.3392L28.9923 35.8414C23.592 36.3493 20.8324 37.4961 18.9291 38.6694L19.1915 39.095ZM18.4018 37.8352C18.6369 38.0933 18.7641 38.4384 18.8116 38.9074L19.309 38.857C19.2552 38.3253 19.1037 37.8633 18.7715 37.4985L18.4018 37.8352ZM17.4464 37.4093C17.8291 37.4215 18.1661 37.5744 18.4012 37.8345L18.7721 37.4992C18.4397 37.1314 17.9711 36.9257 17.4623 36.9096L17.4464 37.4093ZM10.7137 42.7925C11.4689 41.6632 12.5028 40.2885 13.6834 39.2086C14.8709 38.1224 16.1658 37.3721 17.4471 37.4093L17.4616 36.9095C15.9817 36.8665 14.5624 37.7269 13.346 38.8396C12.1226 39.9587 11.0628 41.3711 10.2981 42.5145L10.7137 42.7925ZM10.5697 37.4101C10.1004 38.0795 9.93377 38.9838 9.9247 39.9117C9.91558 40.8451 10.0658 41.8361 10.262 42.7084L10.7498 42.5986C10.5584 41.748 10.4161 40.798 10.4247 39.9166C10.4333 39.0297 10.5947 38.2454 10.9791 37.6971L10.5697 37.4101ZM12.8288 36.3199C11.8083 36.382 11.0495 36.7274 10.5699 37.4098L10.9789 37.6974C11.3453 37.1761 11.9392 36.875 12.8591 36.819L12.8288 36.3199ZM16.5141 34.5938C16.2218 35.2494 15.3725 36.1655 12.8288 36.3199L12.8591 36.819C15.5234 36.6572 16.5791 35.6759 16.9707 34.7974L16.5141 34.5938ZM15.8768 32.1016C16.6569 32.926 16.8544 33.8287 16.514 34.594L16.9708 34.7972C17.4156 33.7973 17.1167 32.6845 16.2401 31.7579L15.8768 32.1016ZM9.70568 30.6405C12.3951 29.9632 14.7456 30.9025 15.8766 32.1013L16.2403 31.7582C14.98 30.4223 12.4416 29.4359 9.58357 30.1557L9.70568 30.6405ZM1.80641 39.2053C2.31812 37.4642 3.38748 35.5459 4.78938 33.9481C6.19276 32.3486 7.9097 31.0924 9.70563 30.6405L9.58362 30.1556C7.65587 30.6407 5.85677 31.9734 4.41354 33.6183C2.96882 35.2649 1.86098 37.2464 1.3267 39.0643L1.80641 39.2053ZM2.94756 45.5689C1.44812 44.1364 1.01528 41.8947 1.80639 39.2053L1.32672 39.0642C0.501701 41.8689 0.925055 44.3282 2.60217 45.9304L2.94756 45.5689ZM4.0411 45.5829C3.73491 45.8592 3.245 45.8532 2.94759 45.5689L2.60213 45.9304C3.08999 46.3967 3.87671 46.4047 4.37606 45.9542L4.0411 45.5829ZM4.05553 44.613C4.34086 44.8875 4.3341 45.3169 4.04051 45.5835L4.37664 45.9536C4.88352 45.4934 4.89702 44.7287 4.40216 44.2527L4.05553 44.613ZM3.28223 39.5623C3.10222 40.1764 2.91151 41.0623 2.95415 41.9789C2.99687 42.8973 3.27558 43.8672 4.05607 44.6135L4.40162 44.2521C3.74326 43.6226 3.49256 42.793 3.45361 41.9556C3.41457 41.1164 3.58992 40.2901 3.76204 39.703L3.28223 39.5623ZM10.1131 31.9772C8.71592 32.3291 7.26374 33.3664 6.0408 34.7292C4.81475 36.0955 3.79697 37.8132 3.2823 39.562L3.76196 39.7032C4.25295 38.0348 5.22998 36.3814 6.41294 35.0631C7.59901 33.7414 8.97004 32.7808 10.2353 32.4621L10.1131 31.9772ZM14.7181 33.0038C13.8945 32.131 12.1113 31.4713 10.1128 31.9773L10.2356 32.462C12.0773 31.9957 13.6682 32.6198 14.3544 33.347L14.7181 33.0038ZM15.0969 34.0738C15.1774 33.891 15.1388 33.688 15.0699 33.5218C14.9978 33.3481 14.875 33.1696 14.7178 33.0036L14.3547 33.3473C14.4812 33.4809 14.5648 33.6093 14.608 33.7134C14.6295 33.7651 14.6388 33.8056 14.6412 33.8343C14.6437 33.8628 14.6389 33.8731 14.6393 33.8723L15.0969 34.0738ZM12.7276 34.933C13.4419 34.8895 13.9769 34.7777 14.3567 34.6337C14.7209 34.4956 14.9938 34.3079 15.0969 34.0738L14.6393 33.8723C14.6208 33.9144 14.5137 34.0394 14.1794 34.1662C13.8606 34.2871 13.3786 34.3924 12.6972 34.4339L12.7276 34.933ZM9.27949 36.6631C10.0023 35.6331 11.1813 35.0261 12.7275 34.933L12.6974 34.4339C11.0315 34.5343 9.69763 35.1969 8.87022 36.3759L9.27949 36.6631ZM9.46241 45.324C9.34871 45.0313 8.80007 43.5659 8.53585 41.8128C8.26969 40.0469 8.30293 38.0574 9.27962 36.663L8.87009 36.3761C7.77723 37.9364 7.77121 40.0944 8.04144 41.8873C8.3136 43.6931 8.87699 45.1978 8.99634 45.505L9.46241 45.324ZM10.1342 45.7832C9.82107 45.7667 9.56081 45.5786 9.46257 45.3244L8.99618 45.5046C9.17152 45.9584 9.61546 46.2565 10.1079 46.2825L10.1342 45.7832ZM10.1817 45.7852C10.1591 45.7852 10.1534 45.7849 10.15 45.7845L10.0921 46.2811C10.1291 46.2854 10.1639 46.2852 10.1817 46.2852V45.7852ZM10.1818 45.7852H10.1817V46.2852H10.1818V45.7852ZM10.8658 45.3978C10.7408 45.6307 10.4777 45.7852 10.1818 45.7852V46.2852C10.6459 46.2852 11.087 46.0431 11.3064 45.6342L10.8658 45.3978ZM17.0119 38.8225C16.4811 38.9191 15.9206 39.2324 15.3679 39.6624C14.8113 40.0954 14.243 40.6624 13.6954 41.2938C12.6003 42.5565 11.5706 44.0976 10.8663 45.3968L11.3059 45.6351C11.9948 44.3643 13.0043 42.8538 14.0731 41.6214C14.6075 41.0052 15.1523 40.4637 15.6749 40.057C16.2014 39.6474 16.6861 39.39 17.1014 39.3144L17.0119 38.8225ZM17.0938 41.4969C17.1457 41.1313 17.2121 40.6644 17.2588 40.2203C17.3048 39.7822 17.3344 39.3442 17.3055 39.0445L16.8078 39.0924C16.8313 39.3362 16.8077 39.7285 16.7615 40.1681C16.7159 40.6016 16.6509 41.0596 16.5988 41.4266L17.0938 41.4969ZM17.0888 41.532L17.0938 41.4969L16.5988 41.4266L16.5938 41.4617L17.0888 41.532ZM17.2969 45.3799C17.0038 45.0687 16.8695 44.6337 16.8538 43.9958C16.8379 43.354 16.9425 42.5496 17.0888 41.5324L16.5939 41.4612C16.4489 42.469 16.3368 43.3166 16.3539 44.0081C16.3711 44.7036 16.5193 45.2834 16.9329 45.7227L17.2969 45.3799ZM18.2726 45.7851C17.8832 45.7851 17.5382 45.6379 17.2975 45.3805L16.9323 45.722C17.2743 46.0877 17.755 46.2851 18.2726 46.2851V45.7851ZM20.7371 44.345C20.2203 44.9915 19.5752 45.7851 18.2726 45.7851V46.2851C19.8323 46.2851 20.6108 45.3038 21.1277 44.6571L20.7371 44.345ZM21.9684 43.4746C21.7356 43.4746 21.5443 43.5321 21.3452 43.6856C21.165 43.8247 20.9786 44.0429 20.7371 44.3449L21.1276 44.6572C21.375 44.3479 21.5256 44.178 21.6506 44.0816C21.7567 43.9997 21.839 43.9746 21.9684 43.9746V43.4746ZM23.1998 44.3426C22.9596 44.0418 22.7738 43.824 22.5933 43.6851C22.394 43.5318 22.202 43.4746 21.9684 43.4746V43.9746C22.0996 43.9746 22.1825 44 22.2884 44.0814C22.4132 44.1774 22.5631 44.3466 22.8092 44.6547L23.1998 44.3426ZM23.2031 44.3466L23.1994 44.3421L22.8096 44.6552L22.8132 44.6597L23.2031 44.3466ZM25.6643 45.7826C24.3647 45.7826 23.7222 44.9931 23.2031 44.3466L22.8132 44.6597C23.332 45.3057 24.1081 46.2826 25.6643 46.2826V45.7826ZM28.1288 44.3425C27.6121 44.9891 26.967 45.7826 25.6643 45.7826V46.2826C27.2241 46.2826 28.0026 45.3014 28.5194 44.6547L28.1288 44.3425ZM29.3602 43.4722C29.1273 43.4722 28.936 43.5297 28.7369 43.6832C28.5567 43.8222 28.3704 44.0405 28.1289 44.3425L28.5193 44.6548C28.7667 44.3455 28.9173 44.1756 29.0423 44.0791C29.1485 43.9973 29.2308 43.9722 29.3602 43.9722V43.4722ZM30.5916 44.3402C30.3513 44.0394 30.1655 43.8215 29.985 43.6827C29.7857 43.5294 29.5938 43.4722 29.3602 43.4722V43.9722C29.4913 43.9722 29.5742 43.9975 29.6802 44.079C29.8049 44.175 29.9548 44.3442 30.2009 44.6522L30.5916 44.3402ZM30.5948 44.3442L30.5912 44.3397L30.2013 44.6527L30.2049 44.6573L30.5948 44.3442ZM33.056 45.7802C31.7565 45.7802 31.114 44.9907 30.5948 44.3442L30.205 44.6573C30.7237 45.3033 31.4998 46.2802 33.056 46.2802V45.7802ZM35.5205 44.3401C35.0037 44.9868 34.3611 45.7802 33.056 45.7802V46.2802C34.6183 46.2802 35.3944 45.2988 35.9111 44.6523L35.5205 44.3401ZM36.7519 43.4722C36.5181 43.4722 36.3267 43.5295 36.1278 43.6829C35.9479 43.8215 35.7621 44.0392 35.5209 44.3397L35.9107 44.6527C36.1584 44.3443 36.3083 44.175 36.433 44.0789C36.5386 43.9974 36.6209 43.9722 36.7519 43.9722V43.4722ZM37.9833 44.3402C37.743 44.0394 37.5572 43.8215 37.3767 43.6827C37.1774 43.5294 36.9855 43.4722 36.7519 43.4722V43.9722C36.883 43.9722 36.966 43.9975 37.0719 44.079C37.1966 44.175 37.3465 44.3442 37.5926 44.6522L37.9833 44.3402ZM37.9865 44.3442L37.9829 44.3397L37.593 44.6527L37.5967 44.6573L37.9865 44.3442ZM40.4503 45.7802C39.1481 45.7802 38.5056 44.9905 37.9865 44.3442L37.5967 44.6573C38.1156 45.3034 38.8916 46.2802 40.4503 46.2802V45.7802ZM42.9148 44.3401C42.398 44.9867 41.7529 45.7802 40.4503 45.7802V46.2802C42.01 46.2802 42.7885 45.299 43.3054 44.6523L42.9148 44.3401ZM44.1461 43.4697C43.9133 43.4697 43.722 43.5273 43.5229 43.6808C43.3427 43.8198 43.1563 44.0381 42.9148 44.34L43.3053 44.6524C43.5527 44.3431 43.7033 44.1731 43.8283 44.0767C43.9344 43.9948 44.0167 43.9697 44.1461 43.9697V43.4697ZM45.3775 44.3378C45.1373 44.037 44.9515 43.8191 44.771 43.6803C44.5717 43.527 44.3797 43.4697 44.1461 43.4697V43.9697C44.2773 43.9697 44.3602 43.9951 44.4661 44.0766C44.5909 44.1726 44.7407 44.3417 44.9869 44.6498L45.3775 44.3378ZM45.3808 44.3418L45.3771 44.3372L44.9873 44.6503L44.9909 44.6549L45.3808 44.3418ZM47.842 45.7778C46.5424 45.7778 45.8999 44.9883 45.3808 44.3418L44.9909 44.6549C45.5097 45.3009 46.2858 46.2778 47.842 46.2778V45.7778ZM50.3058 44.3418C49.7867 44.9881 49.1441 45.7778 47.842 45.7778V46.2778C49.4006 46.2778 50.1767 45.301 50.6956 44.6548L50.3058 44.3418ZM50.3094 44.3373L50.3057 44.3418L50.6956 44.6548L50.6993 44.6503L50.3094 44.3373ZM51.5404 43.4697C51.3066 43.4697 51.1153 43.5271 50.9163 43.6804C50.7364 43.8191 50.5506 44.0368 50.3094 44.3373L50.6992 44.6503C50.9469 44.3419 51.0968 44.1726 51.2215 44.0764C51.3272 43.995 51.4094 43.9697 51.5404 43.9697V43.4697ZM52.7721 44.3405C52.5318 44.0386 52.346 43.82 52.1655 43.6808C51.9661 43.527 51.774 43.4697 51.5404 43.4697V43.9697C51.6715 43.9697 51.7543 43.9951 51.8601 44.0767C51.9849 44.1729 52.1347 44.3426 52.3808 44.6519L52.7721 44.3405ZM52.775 44.3442L52.7714 44.3397L52.3815 44.6528L52.3852 44.6573L52.775 44.3442ZM55.2362 45.7802C53.9367 45.7802 53.2942 44.9907 52.775 44.3442L52.3852 44.6573C52.904 45.3033 53.68 46.2802 55.2362 46.2802V45.7802ZM57.279 44.1336C57.1795 44.4306 57.0398 44.8391 56.7408 45.1773C56.4519 45.5039 55.9996 45.7802 55.2362 45.7802V46.2802C56.1422 46.2802 56.731 45.943 57.1153 45.5085C57.4894 45.0856 57.6549 44.5855 57.7531 44.2924L57.279 44.1336ZM57.2842 44.118L57.2791 44.1333L57.753 44.2928L57.7581 44.2774L57.2842 44.118ZM57.5227 43.5664C57.4807 43.6117 57.4524 43.6714 57.4381 43.7023C57.4191 43.7433 57.4001 43.7908 57.3824 43.8377C57.3468 43.9319 57.3107 44.0392 57.2842 44.118L57.7582 44.2774C57.7853 44.1967 57.8183 44.0985 57.8501 44.0144C57.866 43.9723 57.8802 43.9374 57.8919 43.9121C57.8978 43.8994 57.9018 43.8919 57.9038 43.8883C57.9073 43.8823 57.9026 43.892 57.8894 43.9063L57.5227 43.5664ZM57.8605 43.4698C57.7916 43.4698 57.7388 43.4748 57.6988 43.4816C57.6787 43.485 57.6616 43.4889 57.6473 43.4928C57.6401 43.4948 57.6335 43.4969 57.6276 43.4989C57.6247 43.4999 57.6218 43.5009 57.6192 43.5019C57.6179 43.5024 57.6166 43.5029 57.6153 43.5034C57.6147 43.5036 57.6141 43.5038 57.6134 43.5041C57.6131 43.5042 57.6128 43.5043 57.6125 43.5045C57.6124 43.5045 57.6122 43.5046 57.6121 43.5046C57.612 43.5047 57.6119 43.5047 57.6119 43.5047C57.6118 43.5048 57.6116 43.5048 57.706 43.7363C57.8004 43.9678 57.8003 43.9679 57.8002 43.9679C57.8001 43.9679 57.8 43.968 57.7999 43.968C57.7998 43.9681 57.7996 43.9681 57.7995 43.9682C57.7992 43.9683 57.7989 43.9684 57.7986 43.9685C57.7981 43.9688 57.7975 43.969 57.797 43.9692C57.7959 43.9696 57.7948 43.97 57.7938 43.9704C57.7918 43.9711 57.79 43.9718 57.7883 43.9723C57.7851 43.9735 57.7826 43.9742 57.781 43.9746C57.7778 43.9755 57.778 43.9753 57.7823 43.9746C57.791 43.9731 57.8155 43.9698 57.8605 43.9698V43.4698ZM58.0453 43.4461C57.9817 43.4613 57.9205 43.4698 57.8605 43.4698V43.9698C57.9677 43.9698 58.0687 43.9547 58.1621 43.9322L58.0453 43.4461ZM58.0748 43.4433C58.1012 43.4371 58.1235 43.4379 58.1176 43.4379C58.1146 43.4379 58.0835 43.4371 58.047 43.4456L58.1604 43.9326C58.1341 43.9387 58.1118 43.9379 58.1176 43.9379C58.1206 43.9379 58.1518 43.9387 58.1883 43.9302L58.0748 43.4433ZM58.0788 43.4414C58.0753 43.4428 58.0735 43.4436 58.0719 43.4442C58.0705 43.4447 58.0702 43.4448 58.0705 43.4447C58.0713 43.4444 58.0751 43.4431 58.0809 43.442L58.1823 43.9316C58.2227 43.9232 58.2555 43.9093 58.2665 43.9048L58.0788 43.4414ZM58.1099 43.4295C58.0965 43.4342 58.0845 43.4391 58.0788 43.4414L58.2665 43.9049C58.2699 43.9035 58.2717 43.9027 58.2733 43.9021C58.2748 43.9015 58.2751 43.9014 58.2749 43.9015L58.1099 43.4295ZM58.1418 43.4185C58.1325 43.4217 58.1204 43.4257 58.108 43.4302L58.2767 43.9009C58.2839 43.8983 58.2914 43.8957 58.3015 43.8923L58.1418 43.4185ZM58.1831 43.4035C58.1764 43.4066 58.1672 43.41 58.1418 43.4185L58.3015 43.8923C58.3221 43.8854 58.3581 43.8736 58.3942 43.8568L58.1831 43.4035ZM58.2271 43.3821C58.2091 43.3914 58.1994 43.3963 58.1899 43.4005L58.3874 43.8598C58.4157 43.8476 58.4406 43.8346 58.4568 43.8263L58.2271 43.3821ZM58.2742 43.3587C58.2559 43.3672 58.239 43.376 58.2271 43.3821L58.4568 43.8263C58.47 43.8194 58.4779 43.8154 58.4854 43.8119L58.2742 43.3587ZM58.3239 43.3281C58.3041 43.3404 58.2796 43.3549 58.2578 43.3671L58.5018 43.8035C58.5307 43.7873 58.5619 43.7688 58.5877 43.7528L58.3239 43.3281ZM58.3664 43.2938C58.3529 43.3064 58.3358 43.3198 58.3156 43.3335L58.5961 43.7474C58.6315 43.7234 58.6702 43.6942 58.7073 43.6596L58.3664 43.2938ZM58.389 43.2743C58.3851 43.2777 58.3812 43.281 58.3774 43.2842L58.6963 43.6693C58.7035 43.6633 58.7104 43.6574 58.7171 43.6517L58.389 43.2743ZM58.4298 43.2372C58.414 43.2519 58.4017 43.2633 58.389 43.2743L58.717 43.6517C58.7372 43.6341 58.7557 43.6169 58.7706 43.603L58.4298 43.2372ZM58.4764 43.1841C58.457 43.2066 58.438 43.2281 58.4204 43.2464L58.78 43.5938C58.808 43.5648 58.8346 43.5344 58.8557 43.5098L58.4764 43.1841ZM58.4864 43.1704C58.4807 43.1778 58.4735 43.187 58.4662 43.1968L58.8659 43.4971C58.8704 43.4911 58.8751 43.4851 58.8812 43.4773L58.4864 43.1704ZM58.5128 43.1351C58.5059 43.1452 58.4987 43.1546 58.4864 43.1704L58.8812 43.4773C58.8925 43.4627 58.9089 43.4417 58.9257 43.4171L58.5128 43.1351ZM58.5598 43.0847C58.5564 43.091 58.555 43.0935 58.5542 43.0948C58.5536 43.0958 58.5545 43.0941 58.557 43.091C58.5595 43.0876 58.5635 43.0829 58.569 43.0778C58.5746 43.0726 58.5808 43.0678 58.5873 43.0638L58.8512 43.4885C58.9425 43.4318 58.9837 43.3522 59.0003 43.3212L58.5598 43.0847ZM58.9306 43.4026L58.931 43.4022L58.6291 43.0037L58.6286 43.0041L58.9306 43.4026ZM36.4255 39.0802H39.0448V38.5802H36.4255V39.0802ZM36.1755 4.70513V38.8302H36.6755V4.70513H36.1755ZM39.2823 38.9082C45.0792 21.2464 39.6274 9.32171 36.6371 4.57194L36.214 4.83833C39.146 9.4955 44.5466 21.2656 38.8073 38.7523L39.2823 38.9082ZM55.3569 43.5814L55.3517 43.5967L55.8256 43.7561L55.8308 43.7408L55.3569 43.5814ZM55.6232 43.9094L55.624 43.9093L55.5637 43.4129L55.5629 43.413L55.6232 43.9094ZM56.2554 42.1249C55.6952 42.5832 55.4748 43.2285 55.3561 43.5815L55.83 43.7409C55.9494 43.3858 56.1342 42.8701 56.572 42.5118L56.2554 42.1249ZM41.4693 38.0393C51.7053 38.5308 55.1638 41.2323 56.2231 42.4801L56.6043 42.1566C55.4199 40.7613 51.8009 38.0348 41.4932 37.5398L41.4693 38.0393ZM40.9908 40.1455C41.2554 39.3728 41.497 38.612 41.7208 37.8609L41.2417 37.7182C41.0196 38.4634 40.78 39.2177 40.5177 39.9836L40.9908 40.1455ZM39.7891 40.973C40.3279 40.973 40.819 40.6465 40.9907 40.1456L40.5178 39.9835C40.4209 40.266 40.1319 40.473 39.7891 40.473V40.973ZM31.1819 40.973H39.7891V40.473H31.1819V40.973ZM29.9803 40.1456C30.152 40.6466 30.6432 40.973 31.1819 40.973V40.473C30.8391 40.473 30.5501 40.266 30.4533 39.9835L29.9803 40.1456ZM29.3011 38.0176C29.5119 38.7158 29.7357 39.4242 29.98 40.1448L30.4535 39.9843C30.2114 39.2701 29.9894 38.5671 29.7797 37.873L29.3011 38.0176ZM19.0626 41.5252C19.9457 40.8886 20.9529 40.2015 22.5423 39.6004C24.1349 38.9981 26.3221 38.4785 29.5622 38.1943L29.5186 37.6963C26.2459 37.9832 24.0116 38.5102 22.3655 39.1327C20.7163 39.7564 19.6679 40.4724 18.7702 41.1196L19.0626 41.5252ZM19.1411 41.522C19.1487 41.4665 19.1561 41.4123 19.1639 41.3578L18.6689 41.287C18.6609 41.3432 18.6533 41.3989 18.6457 41.4542L19.1411 41.522ZM19.1028 41.7916C19.117 41.6976 19.1292 41.6083 19.1411 41.522L18.6457 41.4542C18.6338 41.5409 18.622 41.6269 18.6084 41.717L19.1028 41.7916ZM18.8849 44.0584C18.8561 43.5229 19.0025 42.4915 19.1031 41.7898L18.6082 41.7188C18.5112 42.3952 18.3535 43.4879 18.3856 44.0852L18.8849 44.0584ZM19.1159 43.2247C18.8046 43.6162 18.6477 43.7798 18.515 43.8526L18.7555 44.2909C18.9926 44.1608 19.2106 43.909 19.5073 43.5359L19.1159 43.2247ZM19.1203 43.2192L19.1167 43.2237L19.5065 43.5369L19.5101 43.5324L19.1203 43.2192ZM21.9739 41.5963C20.4153 41.5963 19.6392 42.5731 19.1203 43.2193L19.5101 43.5323C20.0292 42.886 20.6718 42.0963 21.9739 42.0963V41.5963ZM24.825 43.2192C24.3062 42.5732 23.5302 41.5963 21.9739 41.5963V42.0963C23.2735 42.0963 23.916 42.8858 24.4351 43.5323L24.825 43.2192ZM24.8286 43.2238L24.825 43.2192L24.4351 43.5323L24.4388 43.5369L24.8286 43.2238ZM25.6698 43.9044C25.5386 43.9044 25.4557 43.879 25.3498 43.7975C25.225 43.7015 25.0752 43.5324 24.829 43.2243L24.4384 43.5363C24.6787 43.8371 24.8644 44.055 25.0449 44.1938C25.2443 44.3471 25.4362 44.4044 25.6698 44.4044V43.9044ZM26.5109 43.2238C26.2633 43.5322 26.1134 43.7015 25.9886 43.7976C25.883 43.8791 25.8008 43.9044 25.6698 43.9044V44.4044C25.9036 44.4044 26.0949 44.347 26.2939 44.1937C26.4738 44.055 26.6595 43.8373 26.9008 43.5368L26.5109 43.2238ZM26.5146 43.2193L26.5109 43.2237L26.9008 43.5369L26.9044 43.5324L26.5146 43.2193ZM29.3682 41.5963C27.8095 41.5963 27.0334 42.5731 26.5145 43.2193L26.9044 43.5323C27.4234 42.886 28.066 42.0963 29.3682 42.0963V41.5963ZM32.2192 43.2192C31.7005 42.5732 30.9244 41.5963 29.3682 41.5963V42.0963C30.6677 42.0963 31.3102 42.8858 31.8294 43.5323L32.2192 43.2192ZM32.2229 43.2237L32.2192 43.2192L31.8294 43.5323L31.8331 43.5369L32.2229 43.2237ZM33.064 43.9044C32.9346 43.9044 32.8522 43.8792 32.7459 43.7975C32.6209 43.7013 32.4703 43.5319 32.2229 43.2238L31.833 43.5368C32.0745 43.8376 32.2609 44.0552 32.4411 44.1938C32.6401 44.3469 32.8313 44.4044 33.064 44.4044V43.9044ZM33.9052 43.2238C33.6575 43.5322 33.5076 43.7015 33.3829 43.7976C33.2773 43.8791 33.195 43.9044 33.064 43.9044V44.4044C33.2978 44.4044 33.4892 44.347 33.6882 44.1937C33.868 44.055 34.0538 43.8373 34.295 43.5368L33.9052 43.2238ZM36.7599 41.5963C35.1976 41.5963 34.4215 42.5777 33.9048 43.2242L34.2954 43.5364C34.8122 42.8897 35.4548 42.0963 36.7599 42.0963V41.5963ZM39.611 43.2192C39.0922 42.5732 38.3161 41.5963 36.7599 41.5963V42.0963C38.0595 42.0963 38.702 42.8858 39.2211 43.5323L39.611 43.2192ZM39.6146 43.2238L39.611 43.2192L39.2211 43.5323L39.2248 43.5368L39.6146 43.2238ZM40.4583 43.9068C40.3272 43.9068 40.2443 43.8814 40.138 43.7996C40.0129 43.7033 39.8623 43.5335 39.6149 43.2242L39.2245 43.5365C39.466 43.8384 39.6524 44.0568 39.8331 44.1959C40.0327 44.3495 40.2246 44.4068 40.4583 44.4068V43.9068ZM41.2994 43.2262C41.0518 43.5346 40.9019 43.7039 40.7772 43.8001C40.6715 43.8815 40.5893 43.9068 40.4583 43.9068V44.4068C40.6921 44.4068 40.8834 44.3495 41.0824 44.1961C41.2623 44.0574 41.4481 43.8397 41.6893 43.5392L41.2994 43.2262ZM41.3031 43.2216L41.2995 43.2261L41.6892 43.5394L41.6928 43.5348L41.3031 43.2216ZM44.1567 41.5987C42.598 41.5987 41.822 42.5755 41.3031 43.2217L41.6929 43.5347C42.212 42.8884 42.8546 42.0987 44.1567 42.0987V41.5987ZM47.0077 43.2216C46.489 42.5756 45.7129 41.5987 44.1567 41.5987V42.0987C45.4562 42.0987 46.0987 42.8882 46.6179 43.5347L47.0077 43.2216ZM47.0114 43.2262L47.0077 43.2216L46.6179 43.5347L46.6216 43.5393L47.0114 43.2262ZM47.8525 43.9068C47.7214 43.9068 47.6385 43.8814 47.5325 43.7999C47.4078 43.7039 47.2579 43.5348 47.0118 43.2267L46.6211 43.5388C46.8614 43.8395 47.0472 44.0574 47.2277 44.1962C47.427 44.3496 47.6189 44.4068 47.8525 44.4068V43.9068ZM48.6959 43.2241C48.4485 43.5335 48.298 43.7033 48.1728 43.7996C48.0665 43.8814 47.9836 43.9068 47.8525 43.9068V44.4068C48.0862 44.4068 48.2782 44.3495 48.4778 44.1959C48.6585 44.0568 48.8449 43.8384 49.0864 43.5365L48.6959 43.2241ZM51.5509 41.5963C49.9912 41.5963 49.2127 42.5775 48.6958 43.2242L49.0864 43.5364C49.6032 42.8898 50.2483 42.0963 51.5509 42.0963V41.5963ZM54.4045 43.2192C53.8856 42.5731 53.1096 41.5963 51.5509 41.5963V42.0963C52.8531 42.0963 53.4956 42.886 54.0147 43.5323L54.4045 43.2192ZM54.4082 43.2238L54.4045 43.2192L54.0147 43.5323L54.0183 43.5368L54.4082 43.2238ZM55.2493 43.9044C55.1199 43.9044 55.0375 43.8792 54.9312 43.7975C54.8062 43.7013 54.6556 43.5319 54.4082 43.2238L54.0183 43.5368C54.2598 43.8376 54.4462 44.0552 54.6264 44.1938C54.8254 44.3469 55.0165 44.4044 55.2493 44.4044V43.9044ZM55.4038 44.1378C55.3095 43.9063 55.3096 43.9063 55.3097 43.9062C55.3097 43.9062 55.3098 43.9062 55.3099 43.9061C55.3101 43.9061 55.3102 43.906 55.3103 43.906C55.3106 43.9059 55.3109 43.9057 55.3112 43.9056C55.3118 43.9054 55.3123 43.9052 55.3129 43.905C55.314 43.9045 55.315 43.9041 55.316 43.9038C55.3181 43.903 55.3199 43.9024 55.3215 43.9018C55.3248 43.9007 55.3273 43.9 55.3289 43.8995C55.3321 43.8986 55.3319 43.8989 55.3276 43.8996C55.3189 43.9011 55.2944 43.9044 55.2493 43.9044V44.4044C55.3182 44.4044 55.371 44.3994 55.4111 44.3926C55.4312 44.3892 55.4482 44.3853 55.4626 44.3813C55.4698 44.3793 55.4763 44.3773 55.4822 44.3753C55.4852 44.3743 55.488 44.3733 55.4907 44.3723C55.492 44.3718 55.4933 44.3713 55.4945 44.3708C55.4952 44.3705 55.4958 44.3703 55.4964 44.3701C55.4967 44.3699 55.497 44.3698 55.4973 44.3697C55.4975 44.3696 55.4976 44.3696 55.4978 44.3695C55.4978 44.3695 55.498 44.3694 55.498 44.3694C55.4981 44.3694 55.4982 44.3693 55.4038 44.1378ZM55.3517 43.5968C55.3246 43.6774 55.2915 43.7757 55.2598 43.8597C55.2438 43.9019 55.2296 43.9367 55.2179 43.9621C55.2121 43.9747 55.2081 43.9823 55.2061 43.9858C55.2026 43.9918 55.2072 43.9822 55.2205 43.9679L55.5872 44.3078C55.6292 44.2625 55.6575 44.2027 55.6718 44.1718C55.6907 44.1308 55.7098 44.0834 55.7275 44.0364C55.7631 43.9422 55.7991 43.8349 55.8256 43.7561L55.3517 43.5968Z" fill="#222532"/>
<path d="M6.41998 30.4666C6.29983 30.3226 5.2067 29.0695 3.80729 29.0695C3.15942 29.0695 2.23352 29.3361 1.50557 30.6035L0.692749 32.0195H7.72506L6.41998 30.4666Z" fill="white" stroke="#222532" stroke-width="0.5"/>
<path fill-rule="evenodd" clip-rule="evenodd" d="M4.59303 33.886L5.56132 33.9875L5.43886 34.9551C5.08308 37.5699 2.33138 40.3287 2.21358 40.4467L0.939023 41.7117L0.623329 39.9417C0.248735 37.8602 0.514949 36.2601 1.41256 35.1863C2.66825 33.683 4.59303 33.886 4.59303 33.886ZM2.86065 36.3971C2.6937 36.5954 2.56909 36.8479 2.48209 37.1452L2.4821 37.1452C2.68195 36.8455 2.87476 36.5316 3.03935 36.2154C2.97821 36.2697 2.91708 36.3287 2.86065 36.3971Z" fill="white"/>
<path d="M5.56132 33.9875L5.80935 34.0189L5.84142 33.7655L5.58738 33.7388L5.56132 33.9875ZM4.59303 33.886L4.56681 34.1346L4.56697 34.1346L4.59303 33.886ZM5.43886 34.9551L5.68658 34.9888L5.68688 34.9865L5.43886 34.9551ZM2.21358 40.4467L2.38969 40.6242L2.39051 40.6233L2.21358 40.4467ZM0.939023 41.7117L0.692907 41.7556L0.776644 42.2251L1.11513 41.8891L0.939023 41.7117ZM0.623329 39.9417L0.869445 39.8978L0.869376 39.8974L0.623329 39.9417ZM1.41256 35.1863L1.60437 35.3467L1.60443 35.3466L1.41256 35.1863ZM2.48209 37.1452L2.24215 37.075L2.21459 37.1692L2.25849 37.257L2.48209 37.1452ZM2.86065 36.3971L3.05189 36.5581L3.05353 36.5561L2.86065 36.3971ZM2.4821 37.1452L2.25849 37.257L2.45113 37.6423L2.6901 37.2839L2.4821 37.1452ZM3.03935 36.2154L3.26111 36.3308L2.87337 36.0284L3.03935 36.2154ZM5.58738 33.7388L4.61908 33.6374L4.56697 34.1346L5.53527 34.2361L5.58738 33.7388ZM5.68688 34.9865L5.80935 34.0189L5.3133 33.9561L5.19083 34.9237L5.68688 34.9865ZM2.39051 40.6233C2.45356 40.5602 3.18127 39.8304 3.93943 38.7839C4.69279 37.744 5.50011 36.3592 5.68657 34.9888L5.19114 34.9214C5.02182 36.1658 4.2754 37.4678 3.53452 38.4905C2.79844 39.5066 2.0914 40.2152 2.03665 40.2701L2.39051 40.6233ZM1.11513 41.8891L2.38969 40.6242L2.03748 40.2693L0.762914 41.5342L1.11513 41.8891ZM0.377213 39.9856L0.692907 41.7556L1.18514 41.6678L0.869445 39.8978L0.377213 39.9856ZM1.22076 35.026C0.255629 36.1805 -0.00365242 37.8693 0.377281 39.986L0.869376 39.8974C0.501122 37.8511 0.77427 36.3397 1.60437 35.3467L1.22076 35.026ZM4.59303 33.886C4.61924 33.6374 4.61913 33.6374 4.61901 33.6374C4.61897 33.6374 4.61884 33.6373 4.61874 33.6373C4.61855 33.6373 4.61832 33.6373 4.61807 33.6373C4.61756 33.6372 4.61693 33.6371 4.61619 33.6371C4.6147 33.6369 4.61275 33.6367 4.61034 33.6365C4.60552 33.6361 4.59887 33.6355 4.59047 33.6348C4.57368 33.6335 4.54988 33.6319 4.51972 33.6305C4.45941 33.6276 4.37348 33.6255 4.26709 33.6278C4.05462 33.6326 3.75866 33.6555 3.42114 33.728C2.74658 33.873 1.89459 34.2193 1.22069 35.0261L1.60443 35.3466C2.18622 34.6501 2.92447 34.3462 3.52621 34.2169C3.82684 34.1522 4.09056 34.1319 4.27823 34.1277C4.37191 34.1256 4.44616 34.1276 4.49602 34.1299C4.52093 34.1311 4.53971 34.1324 4.55173 34.1333C4.55774 34.1338 4.56205 34.1342 4.56459 34.1344C4.56586 34.1345 4.56669 34.1346 4.56706 34.1347C4.56725 34.1347 4.56732 34.1347 4.56728 34.1347C4.56726 34.1347 4.56721 34.1347 4.56713 34.1347C4.56709 34.1347 4.56701 34.1346 4.56699 34.1346C4.5669 34.1346 4.56681 34.1346 4.59303 33.886ZM2.72203 37.2154C2.80195 36.9423 2.91272 36.7234 3.05188 36.5581L2.66942 36.2361C2.47469 36.4673 2.33622 36.7535 2.24215 37.075L2.72203 37.2154ZM2.70571 37.0334L2.7057 37.0334L2.25849 37.257L2.25849 37.257L2.70571 37.0334ZM2.81758 36.1C2.65839 36.4058 2.47069 36.7117 2.2741 37.0065L2.6901 37.2839C2.89322 36.9793 3.09112 36.6574 3.26111 36.3308L2.81758 36.1ZM3.05353 36.5561C3.09861 36.5015 3.14933 36.4521 3.20532 36.4023L2.87337 36.0284C2.80709 36.0873 2.73554 36.1559 2.66776 36.2381L3.05353 36.5561Z" fill="#222532"/>
<path fill-rule="evenodd" clip-rule="evenodd" d="M11.8486 28.6323C11.8486 29.6188 11.0453 30.4212 10.0605 30.4212C9.07575 30.4212 8.27475 29.6188 8.27475 28.6323C8.27475 27.6459 9.07575 26.8435 10.0605 26.8435C11.0476 26.8435 11.8486 27.6459 11.8486 28.6323ZM10.1591 28.6323C10.1591 28.5781 10.1144 28.5332 10.0603 28.5332C10.0062 28.5332 9.96392 28.5781 9.96392 28.6323C9.96392 28.7409 10.1591 28.7409 10.1591 28.6323Z" fill="white"/>
<path d="M10.0605 30.6712C11.1833 30.6712 12.0986 29.7569 12.0986 28.6323H11.5986C11.5986 29.4807 10.9072 30.1712 10.0605 30.1712V30.6712ZM8.02475 28.6323C8.02475 29.7565 8.93727 30.6712 10.0605 30.6712V30.1712C9.21422 30.1712 8.52475 29.4812 8.52475 28.6323H8.02475ZM10.0605 26.5935C8.93727 26.5935 8.02475 27.5082 8.02475 28.6323H8.52475C8.52475 27.7835 9.21422 27.0935 10.0605 27.0935V26.5935ZM12.0986 28.6323C12.0986 27.508 11.1859 26.5935 10.0605 26.5935V27.0935C10.9094 27.0935 11.5986 27.7838 11.5986 28.6323H12.0986ZM10.0603 28.7832C9.97546 28.7832 9.90908 28.7153 9.90908 28.6323H10.4091C10.4091 28.4409 10.2534 28.2832 10.0603 28.2832V28.7832ZM10.2139 28.6323C10.2139 28.7073 10.153 28.7832 10.0603 28.7832V28.2832C9.85954 28.2832 9.71392 28.4488 9.71392 28.6323H10.2139ZM9.90908 28.6323C9.90908 28.5742 9.93943 28.5225 9.97965 28.4926C10.0127 28.4681 10.0435 28.4638 10.0615 28.4638C10.0795 28.4638 10.1103 28.4681 10.1433 28.4926C10.1836 28.5225 10.2139 28.5742 10.2139 28.6323H9.71392C9.71392 28.7447 9.76867 28.8372 9.84549 28.8942C9.91511 28.9458 9.99474 28.9638 10.0615 28.9638C10.1283 28.9638 10.2079 28.9458 10.2775 28.8942C10.3543 28.8372 10.4091 28.7447 10.4091 28.6323H9.90908Z" fill="#222532"/>
</svg>
