<svg width="25" height="24" viewBox="0 0 25 24" fill="none" xmlns="http://www.w3.org/2000/svg">
<path fill-rule="evenodd" clip-rule="evenodd" d="M24.2582 23.3304C25.1505 22.4376 25.1505 20.9911 24.2582 20.0983L19.5449 15.3817C19.2103 15.0469 19.1233 14.4375 19.3486 14.0223C19.3486 14.0223 19.3329 14.0848 19.498 13.721C20.0512 12.5 20.359 11.1429 20.359 9.7143C20.359 4.34823 16.0137 0 10.6512 0C5.28863 0 0.943268 4.34823 0.943268 9.7143C0.943268 15.0804 5.28863 19.4286 10.6512 19.4286C12.0743 19.4286 13.4261 19.1228 14.6441 18.5715C15.0121 18.4063 14.9541 18.4197 14.9541 18.4197C15.3757 18.1942 15.9802 18.279 16.3148 18.6139L21.0282 23.3304C21.9205 24.2232 23.366 24.2232 24.2582 23.3304ZM16.0762 9.71434C16.0762 12.7121 13.647 15.1429 10.6512 15.1429C7.65541 15.1429 5.22621 12.7121 5.22621 9.71434C5.22621 6.71657 7.65541 4.28577 10.6512 4.28577C13.647 4.28577 16.0762 6.71657 16.0762 9.71434Z" fill="white"/>
</svg>
