<svg width="1002" height="496" viewBox="0 0 1002 496" fill="none" xmlns="http://www.w3.org/2000/svg">
<g opacity="0.29827">
<path d="M1008.11 163.448L443.591 -356.858V-747.19L28.7922 -770C25.5891 -762.456 5.0654 -740.714 8.26796 -728.596C12.1236 -714.102 31.5195 -718.735 37.1547 -709.409C43.7389 -698.42 32.4094 -653.749 29.0282 -640.86C22.5627 -616.445 7.79327 -596.665 3.52168 -572.25C-3.65575 -531.263 10.8769 -534.53 38.4005 -508.927C84.7867 -465.742 47.5947 -420.952 59.2801 -370.223C68.7709 -328.878 110.234 -307.554 125.419 -266.211C137.164 -234.37 153.298 -226.233 178.33 -202.947C177.737 -217.084 165.103 -258.785 188.83 -255.102C212.379 -251.478 203.303 -216.669 207.811 -202.115C211.607 -189.997 238.478 -165.761 216.175 -154.593C208.76 -150.91 187.643 -165.582 179.161 -169.503C185.152 -150.791 181.356 -131.367 190.846 -113.487C202.176 -92.162 214.396 -100.359 229.403 -88.7754C244.884 -76.8355 243.224 -63.1137 236.343 -45.0554C229.166 -26.2247 221.751 -29.1352 233.14 -6.44342C241.385 9.95119 255.383 30.7421 267.425 43.2164C274.425 50.4634 282.017 52.1267 289.017 61.3932C294.83 69.1155 292.576 79.2142 299.516 86.1638C311.379 98.1037 331.488 98.282 340.861 113.904C351.301 131.309 339.437 144.437 370.164 142.833C371.765 177.643 378.349 209.185 377.993 243.994C395.136 250.825 422.837 242.687 440.81 239.063C458.665 263.18 481.738 246.429 502.144 259.558C511.042 265.26 509.203 279.517 514.601 284.506C525.693 294.723 533.878 288.308 547.641 291.872C557.843 294.486 565.732 301.97 575.46 304.703C584.654 307.257 599.781 301.258 606.602 309.396C614.788 319.138 601.085 336.958 613.423 344.799C623.685 351.333 638.395 335.77 648.361 338.027C659.987 340.7 693.323 371.174 701.509 381.212C710.822 392.677 720.195 414.062 725.473 428.793C733.718 451.841 732.591 463.127 749.615 479.998C760.47 490.75 750.148 491.522 767.825 494.67C779.392 496.749 794.695 488.374 806.381 487.067C830.702 484.394 855.259 489.027 879.223 484.453C901.527 480.176 922.821 473.166 945.718 469.899C965.53 467.048 1000.41 469.246 1017.97 459.801C1037.01 449.643 1038.73 426.654 1011.2 430.932C1009.01 416.26 1018.8 396.003 1007.88 385.847C1023.07 365.056 1028.58 350.384 1030.96 324.959C1032.02 313.792 1032.5 301.436 1038.01 292.05C1043.41 282.783 1058.6 277.259 1061.56 269.299C1066.13 256.943 1058.83 251.419 1053.26 244.528C1049.7 240.073 1039.56 242.212 1036.65 238.291C1031.25 231.103 1036.59 223.678 1033.62 216.431C1024.96 195.462 1014.64 187.205 1008.12 163.444C1008.3 167.424 1008.47 171.463 1008.24 175.384" stroke="white" stroke-width="2" stroke-linecap="round" stroke-linejoin="round"/>
</g>
<path d="M729.334 83.9394C720.772 107.321 740.826 115.526 756.877 130.807C761.633 135.336 762.087 142.817 757.081 147.342C746.316 157.074 705.5 142.917 708.089 155.745C710.763 168.994 745.271 187.531 746.826 188.799C760.484 199.932 764.932 228.174 757.41 243.658C752.058 254.676 716.571 250.962 705.408 247.293C632.308 223.266 665.248 226.131 583.133 218.67C576.847 218.099 570.26 217.806 564.223 219.65C558.005 221.549 558.203 229.339 560.289 233.55C567.203 247.506 598.156 271.178 589.826 289.523C587.27 295.152 581.281 298.707 578.584 304.27C576.472 308.627 576.706 313.772 575.767 318.523" stroke="white" stroke-width="2"/>
<path fill-rule="evenodd" clip-rule="evenodd" d="M573.823 326C577.41 326 580.319 323.09 580.319 319.5C580.319 315.91 577.41 313 573.823 313C570.235 313 567.327 315.91 567.327 319.5C567.327 323.09 570.235 326 573.823 326Z" fill="#fff"/>
<path fill-rule="evenodd" clip-rule="evenodd" d="M661.265 363C662.921 363 664.263 361.657 664.263 360C664.263 358.343 662.921 357 661.265 357C659.609 357 658.267 358.343 658.267 360C658.267 361.657 659.609 363 661.265 363Z" fill="#fff"/>
<path fill-rule="evenodd" clip-rule="evenodd" d="M725.223 471C726.879 471 728.221 469.657 728.221 468C728.221 466.343 726.879 465 725.223 465C723.567 465 722.225 466.343 722.225 468C722.225 469.657 723.567 471 725.223 471Z" fill="#fff"/>
<path class="animated fadeIn" fill-rule="evenodd" clip-rule="evenodd" d="M365.46 228C367.116 228 368.458 226.657 368.458 225C368.458 223.343 367.116 222 365.46 222C363.805 222 362.462 223.343 362.462 225C362.462 226.657 363.805 228 365.46 228Z" fill="#fff"/>
<path fill-rule="evenodd" clip-rule="evenodd" d="M729.72 91C733.307 91 736.216 88.0899 736.216 84.5C736.216 80.9101 733.307 78 729.72 78C726.132 78 723.224 80.9101 723.224 84.5C723.224 88.0899 726.132 91 729.72 91Z" fill="#fff"/>
<path d="M398.744 310.976L396.504 322H394.552L392.52 312.768L390.472 322H388.568L386.328 310.976H387.816L389.592 320.672L391.72 310.976H393.336L395.512 320.672L397.352 310.976H398.744ZM406.878 317.536C406.878 317.781 406.867 318.032 406.846 318.288H401.47C401.534 319.216 401.769 319.899 402.174 320.336C402.579 320.773 403.102 320.992 403.742 320.992C404.147 320.992 404.521 320.933 404.862 320.816C405.203 320.699 405.561 320.512 405.934 320.256L406.574 321.136C405.678 321.84 404.697 322.192 403.63 322.192C402.457 322.192 401.539 321.808 400.878 321.04C400.227 320.272 399.902 319.216 399.902 317.872C399.902 316.997 400.041 316.224 400.318 315.552C400.606 314.869 401.011 314.336 401.534 313.952C402.067 313.568 402.691 313.376 403.406 313.376C404.526 313.376 405.385 313.744 405.982 314.48C406.579 315.216 406.878 316.235 406.878 317.536ZM405.422 317.104C405.422 316.272 405.257 315.637 404.926 315.2C404.595 314.763 404.099 314.544 403.438 314.544C402.233 314.544 401.577 315.429 401.47 317.2H405.422V317.104ZM411.517 313.376C412.093 313.376 412.61 313.456 413.069 313.616C413.527 313.776 413.965 314.016 414.381 314.336L413.757 315.264C413.373 315.019 413.005 314.837 412.653 314.72C412.311 314.603 411.949 314.544 411.565 314.544C411.085 314.544 410.706 314.645 410.429 314.848C410.151 315.04 410.013 315.307 410.013 315.648C410.013 315.989 410.141 316.256 410.397 316.448C410.663 316.64 411.138 316.827 411.821 317.008C412.759 317.243 413.458 317.563 413.917 317.968C414.386 318.373 414.621 318.928 414.621 319.632C414.621 320.464 414.295 321.099 413.645 321.536C413.005 321.973 412.221 322.192 411.293 322.192C410.013 322.192 408.951 321.824 408.109 321.088L408.893 320.192C409.607 320.736 410.397 321.008 411.261 321.008C411.815 321.008 412.253 320.896 412.573 320.672C412.903 320.437 413.069 320.123 413.069 319.728C413.069 319.44 413.01 319.211 412.893 319.04C412.775 318.859 412.573 318.704 412.285 318.576C411.997 318.437 411.575 318.293 411.021 318.144C410.125 317.909 409.474 317.595 409.069 317.2C408.674 316.805 408.477 316.304 408.477 315.696C408.477 315.259 408.605 314.864 408.861 314.512C409.127 314.149 409.49 313.872 409.949 313.68C410.418 313.477 410.941 313.376 411.517 313.376ZM420.954 321.616C420.399 322 419.77 322.192 419.066 322.192C418.351 322.192 417.791 321.989 417.386 321.584C416.991 321.168 416.794 320.571 416.794 319.792V314.704H415.322V313.568H416.794V311.664L418.266 311.488V313.568H420.266L420.106 314.704H418.266V319.728C418.266 320.165 418.34 320.485 418.49 320.688C418.65 320.88 418.911 320.976 419.274 320.976C419.604 320.976 419.978 320.864 420.394 320.64L420.954 321.616ZM429.513 310.784C430.249 310.784 430.878 310.891 431.401 311.104C431.924 311.307 432.43 311.627 432.921 312.064L432.089 312.992C431.673 312.661 431.262 312.421 430.857 312.272C430.462 312.112 430.036 312.032 429.577 312.032C429.001 312.032 428.526 312.165 428.153 312.432C427.78 312.699 427.593 313.088 427.593 313.6C427.593 313.92 427.657 314.192 427.785 314.416C427.913 314.629 428.148 314.827 428.489 315.008C428.841 315.189 429.348 315.381 430.009 315.584C430.702 315.797 431.278 316.027 431.737 316.272C432.196 316.517 432.564 316.859 432.841 317.296C433.129 317.723 433.273 318.267 433.273 318.928C433.273 319.568 433.113 320.133 432.793 320.624C432.484 321.115 432.03 321.499 431.433 321.776C430.846 322.053 430.148 322.192 429.337 322.192C427.812 322.192 426.564 321.717 425.593 320.768L426.425 319.84C426.873 320.203 427.326 320.48 427.785 320.672C428.244 320.853 428.756 320.944 429.321 320.944C430.004 320.944 430.569 320.779 431.017 320.448C431.465 320.107 431.689 319.616 431.689 318.976C431.689 318.613 431.62 318.315 431.481 318.08C431.342 317.835 431.102 317.616 430.761 317.424C430.43 317.232 429.945 317.04 429.305 316.848C428.174 316.507 427.348 316.096 426.825 315.616C426.302 315.136 426.041 314.485 426.041 313.664C426.041 313.109 426.185 312.613 426.473 312.176C426.772 311.739 427.182 311.397 427.705 311.152C428.238 310.907 428.841 310.784 429.513 310.784ZM439.4 313.376C440.168 313.376 440.765 313.605 441.192 314.064C441.629 314.523 441.848 315.152 441.848 315.952V322H440.376V316.16C440.376 315.563 440.259 315.141 440.024 314.896C439.8 314.651 439.469 314.528 439.032 314.528C438.595 314.528 438.205 314.656 437.864 314.912C437.523 315.168 437.203 315.531 436.904 316V322H435.432V310.192L436.904 310.032V314.736C437.565 313.829 438.397 313.376 439.4 313.376ZM447.975 313.376C449.159 313.376 450.076 313.771 450.727 314.56C451.388 315.349 451.719 316.421 451.719 317.776C451.719 318.651 451.57 319.424 451.271 320.096C450.972 320.757 450.54 321.275 449.975 321.648C449.41 322.011 448.738 322.192 447.959 322.192C446.775 322.192 445.852 321.797 445.191 321.008C444.53 320.219 444.199 319.147 444.199 317.792C444.199 316.917 444.348 316.149 444.647 315.488C444.946 314.816 445.378 314.299 445.943 313.936C446.508 313.563 447.186 313.376 447.975 313.376ZM447.975 314.56C446.514 314.56 445.783 315.637 445.783 317.792C445.783 319.936 446.508 321.008 447.959 321.008C449.41 321.008 450.135 319.931 450.135 317.776C450.135 315.632 449.415 314.56 447.975 314.56ZM457.815 313.376C458.113 313.376 458.391 313.408 458.647 313.472L458.375 314.912C458.119 314.848 457.873 314.816 457.639 314.816C457.116 314.816 456.695 315.008 456.375 315.392C456.055 315.776 455.804 316.373 455.623 317.184V322H454.151V313.568H455.415L455.559 315.28C455.783 314.651 456.087 314.176 456.471 313.856C456.855 313.536 457.303 313.376 457.815 313.376ZM466.206 317.536C466.206 317.781 466.195 318.032 466.174 318.288H460.798C460.862 319.216 461.097 319.899 461.502 320.336C461.907 320.773 462.43 320.992 463.07 320.992C463.475 320.992 463.849 320.933 464.19 320.816C464.531 320.699 464.889 320.512 465.262 320.256L465.902 321.136C465.006 321.84 464.025 322.192 462.958 322.192C461.785 322.192 460.867 321.808 460.206 321.04C459.555 320.272 459.23 319.216 459.23 317.872C459.23 316.997 459.369 316.224 459.646 315.552C459.934 314.869 460.339 314.336 460.862 313.952C461.395 313.568 462.019 313.376 462.734 313.376C463.854 313.376 464.713 313.744 465.31 314.48C465.907 315.216 466.206 316.235 466.206 317.536ZM464.75 317.104C464.75 316.272 464.585 315.637 464.254 315.2C463.923 314.763 463.427 314.544 462.766 314.544C461.561 314.544 460.905 315.429 460.798 317.2H464.75V317.104ZM474.743 309.184V323.568H474.391V309.184H474.743ZM493.571 322H492.099L491.715 317.024C491.555 315.072 491.464 313.573 491.443 312.528L489.059 320.752H487.635L485.123 312.512C485.123 313.845 485.054 315.387 484.915 317.136L484.547 322H483.107L484.019 310.976H486.067L488.387 318.992L490.595 310.976H492.659L493.571 322ZM501.768 320.032C501.768 320.373 501.827 320.629 501.944 320.8C502.061 320.96 502.237 321.083 502.472 321.168L502.136 322.192C501.699 322.139 501.347 322.016 501.08 321.824C500.813 321.632 500.616 321.333 500.488 320.928C499.923 321.771 499.085 322.192 497.976 322.192C497.144 322.192 496.488 321.957 496.008 321.488C495.528 321.019 495.288 320.405 495.288 319.648C495.288 318.752 495.608 318.064 496.248 317.584C496.899 317.104 497.816 316.864 499 316.864H500.296V316.24C500.296 315.643 500.152 315.216 499.864 314.96C499.576 314.704 499.133 314.576 498.536 314.576C497.917 314.576 497.16 314.725 496.264 315.024L495.896 313.952C496.941 313.568 497.912 313.376 498.808 313.376C499.8 313.376 500.541 313.621 501.032 314.112C501.523 314.592 501.768 315.28 501.768 316.176V320.032ZM498.312 321.088C499.155 321.088 499.816 320.651 500.296 319.776V317.84H499.192C497.635 317.84 496.856 318.416 496.856 319.568C496.856 320.069 496.979 320.448 497.224 320.704C497.469 320.96 497.832 321.088 498.312 321.088ZM506.315 322.192C505.771 322.192 505.339 322.032 505.019 321.712C504.71 321.381 504.555 320.923 504.555 320.336V310.176L506.027 310V320.304C506.027 320.539 506.064 320.709 506.139 320.816C506.224 320.923 506.363 320.976 506.555 320.976C506.758 320.976 506.939 320.944 507.099 320.88L507.483 321.904C507.131 322.096 506.742 322.192 506.315 322.192ZM510.795 313.568V322H509.323V313.568H510.795ZM510.043 309.52C510.352 309.52 510.603 309.616 510.795 309.808C510.987 310 511.083 310.24 511.083 310.528C511.083 310.816 510.987 311.056 510.795 311.248C510.603 311.429 510.352 311.52 510.043 311.52C509.744 311.52 509.499 311.429 509.307 311.248C509.115 311.056 509.019 310.816 509.019 310.528C509.019 310.24 509.115 310 509.307 309.808C509.499 309.616 509.744 309.52 510.043 309.52ZM517.694 313.376C518.654 313.376 519.417 313.765 519.982 314.544C520.547 315.312 520.83 316.389 520.83 317.776C520.83 318.651 520.697 319.424 520.43 320.096C520.163 320.757 519.779 321.275 519.278 321.648C518.777 322.011 518.19 322.192 517.518 322.192C516.633 322.192 515.886 321.819 515.278 321.072L515.134 322H513.838V310.176L515.31 310V314.624C515.918 313.792 516.713 313.376 517.694 313.376ZM517.166 321.024C517.817 321.024 518.323 320.763 518.686 320.24C519.059 319.707 519.246 318.885 519.246 317.776C519.246 316.635 519.075 315.813 518.734 315.312C518.393 314.8 517.907 314.544 517.278 314.544C516.531 314.544 515.875 314.981 515.31 315.856V319.888C515.534 320.24 515.806 320.517 516.126 320.72C516.457 320.923 516.803 321.024 517.166 321.024ZM529.61 322H528.346L528.234 320.688C527.914 321.211 527.546 321.595 527.13 321.84C526.714 322.075 526.207 322.192 525.61 322.192C524.874 322.192 524.298 321.968 523.882 321.52C523.466 321.072 523.258 320.437 523.258 319.616V313.568H524.73V319.456C524.73 320.032 524.831 320.443 525.034 320.688C525.237 320.923 525.567 321.04 526.026 321.04C526.847 321.04 527.551 320.555 528.138 319.584V313.568H529.61V322ZM533.035 319.968C533.355 319.968 533.621 320.075 533.835 320.288C534.048 320.501 534.155 320.763 534.155 321.072C534.155 321.403 534.059 321.781 533.867 322.208L532.795 324.656H531.739L532.379 322C532.24 321.893 532.128 321.76 532.043 321.6C531.968 321.44 531.931 321.264 531.931 321.072C531.931 320.763 532.037 320.501 532.251 320.288C532.464 320.075 532.725 319.968 533.035 319.968ZM544.665 310.784C545.326 310.784 545.881 310.869 546.329 311.04C546.787 311.211 547.251 311.488 547.721 311.872L546.889 312.848C546.217 312.304 545.507 312.032 544.761 312.032C543.843 312.032 543.102 312.384 542.537 313.088C541.982 313.792 541.705 314.923 541.705 316.48C541.705 317.995 541.982 319.115 542.537 319.84C543.091 320.555 543.827 320.912 544.745 320.912C545.214 320.912 545.625 320.832 545.977 320.672C546.329 320.512 546.702 320.288 547.097 320L547.849 320.96C547.507 321.312 547.07 321.605 546.537 321.84C546.003 322.075 545.39 322.192 544.697 322.192C543.801 322.192 543.001 321.973 542.297 321.536C541.603 321.088 541.059 320.437 540.665 319.584C540.281 318.72 540.089 317.685 540.089 316.48C540.089 315.275 540.291 314.245 540.697 313.392C541.102 312.528 541.651 311.877 542.345 311.44C543.038 311.003 543.811 310.784 544.665 310.784ZM555.634 322L554.802 319.232H550.626L549.794 322H548.258L551.794 310.976H553.714L557.234 322H555.634ZM550.994 318H554.434L552.722 312.24L550.994 318Z" fill="white"/>
<path d="M598.609 75.784C599.27 75.784 599.825 75.8693 600.273 76.04C600.731 76.2107 601.195 76.488 601.665 76.872L600.833 77.848C600.161 77.304 599.451 77.032 598.705 77.032C597.787 77.032 597.046 77.384 596.481 78.088C595.926 78.792 595.649 79.9227 595.649 81.48C595.649 82.9947 595.926 84.1147 596.481 84.84C597.035 85.5547 597.771 85.912 598.689 85.912C599.158 85.912 599.569 85.832 599.921 85.672C600.273 85.512 600.646 85.288 601.041 85L601.793 85.96C601.451 86.312 601.014 86.6053 600.481 86.84C599.947 87.0747 599.334 87.192 598.641 87.192C597.745 87.192 596.945 86.9733 596.241 86.536C595.547 86.088 595.003 85.4373 594.609 84.584C594.225 83.72 594.033 82.6853 594.033 81.48C594.033 80.2747 594.235 79.2453 594.641 78.392C595.046 77.528 595.595 76.8773 596.289 76.44C596.982 76.0027 597.755 75.784 598.609 75.784ZM609.632 87H608.368L608.256 85.688C607.936 86.2107 607.568 86.5947 607.152 86.84C606.736 87.0747 606.23 87.192 605.632 87.192C604.896 87.192 604.32 86.968 603.904 86.52C603.488 86.072 603.28 85.4373 603.28 84.616V78.568H604.752V84.456C604.752 85.032 604.854 85.4427 605.056 85.688C605.259 85.9227 605.59 86.04 606.048 86.04C606.87 86.04 607.574 85.5547 608.16 84.584V78.568H609.632V87ZM616.337 78.376C616.635 78.376 616.913 78.408 617.169 78.472L616.897 79.912C616.641 79.848 616.395 79.816 616.161 79.816C615.638 79.816 615.217 80.008 614.897 80.392C614.577 80.776 614.326 81.3733 614.145 82.184V87H612.673V78.568H613.937L614.081 80.28C614.305 79.6507 614.609 79.176 614.993 78.856C615.377 78.536 615.825 78.376 616.337 78.376ZM622.509 78.376C622.807 78.376 623.085 78.408 623.341 78.472L623.069 79.912C622.813 79.848 622.567 79.816 622.333 79.816C621.81 79.816 621.389 80.008 621.069 80.392C620.749 80.776 620.498 81.3733 620.317 82.184V87H618.845V78.568H620.109L620.253 80.28C620.477 79.6507 620.781 79.176 621.165 78.856C621.549 78.536 621.997 78.376 622.509 78.376ZM630.9 82.536C630.9 82.7813 630.889 83.032 630.868 83.288H625.492C625.556 84.216 625.791 84.8987 626.196 85.336C626.601 85.7733 627.124 85.992 627.764 85.992C628.169 85.992 628.543 85.9333 628.884 85.816C629.225 85.6987 629.583 85.512 629.956 85.256L630.596 86.136C629.7 86.84 628.719 87.192 627.652 87.192C626.479 87.192 625.561 86.808 624.9 86.04C624.249 85.272 623.924 84.216 623.924 82.872C623.924 81.9973 624.063 81.224 624.34 80.552C624.628 79.8693 625.033 79.336 625.556 78.952C626.089 78.568 626.713 78.376 627.428 78.376C628.548 78.376 629.407 78.744 630.004 79.48C630.601 80.216 630.9 81.2347 630.9 82.536ZM629.444 82.104C629.444 81.272 629.279 80.6373 628.948 80.2C628.617 79.7627 628.121 79.544 627.46 79.544C626.255 79.544 625.599 80.4293 625.492 82.2H629.444V82.104ZM637.219 78.376C637.987 78.376 638.584 78.6053 639.011 79.064C639.448 79.5227 639.667 80.152 639.667 80.952V87H638.195V81.16C638.195 80.5627 638.083 80.1413 637.859 79.896C637.635 79.6507 637.304 79.528 636.867 79.528C636.419 79.528 636.024 79.656 635.683 79.912C635.342 80.168 635.022 80.536 634.723 81.016V87H633.251V78.568H634.515L634.643 79.816C634.942 79.368 635.31 79.016 635.747 78.76C636.195 78.504 636.686 78.376 637.219 78.376ZM646.882 86.616C646.327 87 645.698 87.192 644.994 87.192C644.279 87.192 643.719 86.9893 643.314 86.584C642.919 86.168 642.722 85.5707 642.722 84.792V79.704H641.25V78.568H642.722V76.664L644.194 76.488V78.568H646.194L646.034 79.704H644.194V84.728C644.194 85.1653 644.269 85.4853 644.418 85.688C644.578 85.88 644.839 85.976 645.202 85.976C645.533 85.976 645.906 85.864 646.322 85.64L646.882 86.616ZM654.241 75.976V85.672H658.769L658.593 87H652.721V75.976H654.241ZM663.372 78.376C664.556 78.376 665.473 78.7707 666.124 79.56C666.785 80.3493 667.116 81.4213 667.116 82.776C667.116 83.6507 666.967 84.424 666.668 85.096C666.369 85.7573 665.937 86.2747 665.372 86.648C664.807 87.0107 664.135 87.192 663.356 87.192C662.172 87.192 661.249 86.7973 660.588 86.008C659.927 85.2187 659.596 84.1467 659.596 82.792C659.596 81.9173 659.745 81.1493 660.044 80.488C660.343 79.816 660.775 79.2987 661.34 78.936C661.905 78.5627 662.583 78.376 663.372 78.376ZM663.372 79.56C661.911 79.56 661.18 80.6373 661.18 82.792C661.18 84.936 661.905 86.008 663.356 86.008C664.807 86.008 665.532 84.9307 665.532 82.776C665.532 80.632 664.812 79.56 663.372 79.56ZM672.62 78.376C673.121 78.376 673.58 78.4507 673.996 78.6C674.412 78.7387 674.812 78.968 675.196 79.288L674.492 80.216C674.193 80.0027 673.9 79.848 673.612 79.752C673.334 79.6453 673.025 79.592 672.684 79.592C672.001 79.592 671.468 79.864 671.084 80.408C670.71 80.952 670.524 81.7573 670.524 82.824C670.524 83.8907 670.71 84.68 671.084 85.192C671.457 85.6933 671.99 85.944 672.684 85.944C673.014 85.944 673.318 85.896 673.596 85.8C673.873 85.6933 674.182 85.528 674.524 85.304L675.196 86.264C674.428 86.8827 673.569 87.192 672.62 87.192C671.478 87.192 670.577 86.808 669.916 86.04C669.265 85.272 668.94 84.2107 668.94 82.856C668.94 81.96 669.089 81.176 669.388 80.504C669.686 79.832 670.108 79.3093 670.652 78.936C671.206 78.5627 671.862 78.376 672.62 78.376ZM682.712 85.032C682.712 85.3733 682.771 85.6293 682.888 85.8C683.005 85.96 683.181 86.0827 683.416 86.168L683.08 87.192C682.643 87.1387 682.291 87.016 682.024 86.824C681.757 86.632 681.56 86.3333 681.432 85.928C680.867 86.7707 680.029 87.192 678.92 87.192C678.088 87.192 677.432 86.9573 676.952 86.488C676.472 86.0187 676.232 85.4053 676.232 84.648C676.232 83.752 676.552 83.064 677.192 82.584C677.843 82.104 678.76 81.864 679.944 81.864H681.24V81.24C681.24 80.6427 681.096 80.216 680.808 79.96C680.52 79.704 680.077 79.576 679.48 79.576C678.861 79.576 678.104 79.7253 677.208 80.024L676.84 78.952C677.885 78.568 678.856 78.376 679.752 78.376C680.744 78.376 681.485 78.6213 681.976 79.112C682.467 79.592 682.712 80.28 682.712 81.176V85.032ZM679.256 86.088C680.099 86.088 680.76 85.6507 681.24 84.776V82.84H680.136C678.579 82.84 677.8 83.416 677.8 84.568C677.8 85.0693 677.923 85.448 678.168 85.704C678.413 85.96 678.776 86.088 679.256 86.088ZM689.991 86.616C689.437 87 688.807 87.192 688.103 87.192C687.389 87.192 686.829 86.9893 686.423 86.584C686.029 86.168 685.831 85.5707 685.831 84.792V79.704H684.359V78.568H685.831V76.664L687.303 76.488V78.568H689.303L689.143 79.704H687.303V84.728C687.303 85.1653 687.378 85.4853 687.527 85.688C687.687 85.88 687.949 85.976 688.311 85.976C688.642 85.976 689.015 85.864 689.431 85.64L689.991 86.616ZM692.988 78.568V87H691.516V78.568H692.988ZM692.236 74.52C692.546 74.52 692.796 74.616 692.988 74.808C693.18 75 693.276 75.24 693.276 75.528C693.276 75.816 693.18 76.056 692.988 76.248C692.796 76.4293 692.546 76.52 692.236 76.52C691.938 76.52 691.692 76.4293 691.5 76.248C691.308 76.056 691.212 75.816 691.212 75.528C691.212 75.24 691.308 75 691.5 74.808C691.692 74.616 691.938 74.52 692.236 74.52ZM699.2 78.376C700.384 78.376 701.301 78.7707 701.952 79.56C702.613 80.3493 702.944 81.4213 702.944 82.776C702.944 83.6507 702.795 84.424 702.496 85.096C702.197 85.7573 701.765 86.2747 701.2 86.648C700.635 87.0107 699.963 87.192 699.184 87.192C698 87.192 697.077 86.7973 696.416 86.008C695.755 85.2187 695.424 84.1467 695.424 82.792C695.424 81.9173 695.573 81.1493 695.872 80.488C696.171 79.816 696.603 79.2987 697.168 78.936C697.733 78.5627 698.411 78.376 699.2 78.376ZM699.2 79.56C697.739 79.56 697.008 80.6373 697.008 82.792C697.008 84.936 697.733 86.008 699.184 86.008C700.635 86.008 701.36 84.9307 701.36 82.776C701.36 80.632 700.64 79.56 699.2 79.56ZM709.344 78.376C710.112 78.376 710.709 78.6053 711.136 79.064C711.573 79.5227 711.792 80.152 711.792 80.952V87H710.32V81.16C710.32 80.5627 710.208 80.1413 709.984 79.896C709.76 79.6507 709.429 79.528 708.992 79.528C708.544 79.528 708.149 79.656 707.808 79.912C707.467 80.168 707.147 80.536 706.848 81.016V87H705.376V78.568H706.64L706.768 79.816C707.067 79.368 707.435 79.016 707.872 78.76C708.32 78.504 708.811 78.376 709.344 78.376Z" fill="white"/>
</svg>
